<?xml version="1.0" encoding="UTF-8" standalone="no"?>
<!-- Created with Inkscape (http://www.inkscape.org/) -->

<svg
   xmlns:dc="http://purl.org/dc/elements/1.1/"
   xmlns:cc="http://creativecommons.org/ns#"
   xmlns:rdf="http://www.w3.org/1999/02/22-rdf-syntax-ns#"
   xmlns:svg="http://www.w3.org/2000/svg"
   xmlns="http://www.w3.org/2000/svg"
   xmlns:sodipodi="http://sodipodi.sourceforge.net/DTD/sodipodi-0.dtd"
   xmlns:inkscape="http://www.inkscape.org/namespaces/inkscape"
   width="1052.3622"
   height="744.09448"
   id="svg2"
   version="1.1"
   inkscape:version="0.48.5 r10040"
   sodipodi:docname="numbers.svg">
  <defs
     id="defs4" />
  <sodipodi:namedview
     id="base"
     pagecolor="#ffffff"
     bordercolor="#666666"
     borderopacity="1.0"
     inkscape:pageopacity="0.0"
     inkscape:pageshadow="2"
     inkscape:zoom="2.2757215"
     inkscape:cx="410.2265"
     inkscape:cy="637.28664"
     inkscape:document-units="px"
     inkscape:current-layer="layer1"
     showgrid="true"
     showguides="true"
     inkscape:snap-global="false"
     inkscape:guide-bbox="true"
     inkscape:window-width="1268"
     inkscape:window-height="664"
     inkscape:window-x="0"
     inkscape:window-y="0"
     inkscape:window-maximized="0">
    <inkscape:grid
       type="xygrid"
       id="grid2985"
       empspacing="5"
       visible="true"
       enabled="true"
       snapvisiblegridlinesonly="true" />
    <sodipodi:guide
       orientation="0,1"
       position="77.042763,639.7899"
       id="guide2987" />
    <sodipodi:guide
       orientation="1,0"
       position="100.18801,713.18043"
       id="guide2989" />
    <sodipodi:guide
       orientation="1,0"
       position="199.9366,702.1949"
       id="guide2991" />
    <sodipodi:guide
       orientation="1,0"
       position="300.1246,710.98332"
       id="guide2993" />
    <sodipodi:guide
       orientation="1,0"
       position="399.87319,717.57464"
       id="guide2995" />
    <sodipodi:guide
       orientation="1,0"
       position="500.0612,707.90737"
       id="guide2997" />
    <sodipodi:guide
       orientation="1,0"
       position="599.80979,700.87664"
       id="guide2999" />
    <sodipodi:guide
       orientation="1,0"
       position="699.99779,709.22564"
       id="guide3001" />
    <sodipodi:guide
       orientation="1,0"
       position="800.1858,714.93811"
       id="guide3003" />
    <sodipodi:guide
       orientation="1,0"
       position="899.93439,731.19669"
       id="guide3005" />
    <sodipodi:guide
       orientation="1,0"
       position="1000.1224,742.18222"
       id="guide3007" />
  </sodipodi:namedview>
  <metadata
     id="metadata7">
    <rdf:RDF>
      <cc:Work
         rdf:about="">
        <dc:format>image/svg+xml</dc:format>
        <dc:type
           rdf:resource="http://purl.org/dc/dcmitype/StillImage" />
        <dc:title></dc:title>
      </cc:Work>
    </rdf:RDF>
  </metadata>
  <g
     inkscape:label="Layer 1"
     inkscape:groupmode="layer"
     id="layer1"
     transform="translate(0,-308.2677)">
    <path
       style="fill:none;stroke:#000000;stroke-width:3.75;stroke-linecap:butt;stroke-linejoin:miter;stroke-opacity:1;stroke-miterlimit:4;stroke-dasharray:none"
       d="m 58.443005,9.3824223 c -4.687158,0 -9.374317,0 -14.061475,0 -2.050632,0 -4.107304,-0.1572763 -6.151895,0 -0.888341,0.068334 -1.757685,0.2929474 -2.636527,0.4394211 -2.355848,0.3926416 -5.01901,0.7601576 -7.030737,2.1971056 -0.505683,0.361202 -0.878842,0.878842 -1.318264,1.318263 -1.96432,1.96432 -3.918219,3.668034 -5.273053,6.151895 -0.377711,0.692471 -0.526086,1.491595 -0.878842,2.197106 -2.777642,5.555285 0.161046,-1.460906 -2.636526,4.833632 -0.18812,0.423269 -0.256962,0.892524 -0.439421,1.318263 -0.258037,0.602086 -0.648839,1.144342 -0.878843,1.757684 -0.424105,1.130948 -0.708026,2.319656 -0.878842,3.515369 -0.06214,0.435005 0.106576,0.891962 0,1.318263 -0.191308,0.765234 -0.671299,1.436115 -0.878842,2.197106 -0.234428,0.85957 -0.22333,1.772164 -0.439421,2.636526 -0.22468,0.898722 -0.697164,1.728136 -0.878842,2.636527 -0.114904,0.574517 0.0647,1.175373 0,1.757684 -0.164957,1.484609 -0.730209,2.90788 -0.878842,4.394211 -0.07287,0.728734 0,1.464737 0,2.197106 0,2.050631 0,4.101263 0,6.151895 0,1.757684 -0.248574,3.533034 0,5.273053 0.150804,1.055627 0.541634,2.064324 0.878842,3.075947 1.124194,3.372582 2.195017,4.976626 3.95479,7.90958 0.878842,1.464737 1.806969,2.901009 2.636526,4.394211 0.318121,0.572617 0.485812,1.233644 0.878842,1.757684 0.994297,1.325729 2.343579,2.343579 3.515369,3.515369 2.327618,2.327618 4.483854,5.098164 7.470159,6.591316 0.70551,0.352756 1.476304,0.558487 2.197105,0.878842 0.598593,0.266042 1.125716,0.706488 1.757684,0.878843 0.999231,0.272517 2.050632,0.292947 3.075948,0.439421 1.025316,0.146473 2.056929,0.254145 3.075948,0.439421 0.594185,0.108033 1.156238,0.384744 1.757684,0.439421 2.513504,0.2285 5.749771,0 8.349001,0 3.272061,0 9.532459,0.506823 12.30379,-0.878842 0.472364,-0.236182 0.8459,-0.642661 1.318263,-0.878842 0.414291,-0.207146 0.903973,-0.232276 1.318264,-0.439422 1.914358,-0.957179 2.556771,-1.478212 3.954789,-3.075947 1.677617,-1.917276 1.299574,-1.943131 2.636527,-4.394211 0.408979,-0.749794 0.989771,-1.408723 1.318263,-2.197105 0.410133,-0.984319 0.577956,-2.052934 0.878842,-3.075948 0.431498,-1.467091 0.947371,-2.91064 1.318264,-4.394211 0.290018,-1.160073 0.784251,-5.253285 0.878842,-6.151895 0.495978,-4.711792 0.439421,-9.331964 0.439421,-14.061475 0,-2.050632 0,-4.101264 0,-6.151895 0,-1.611211 0.145872,-3.229039 0,-4.833632 -0.08066,-0.887306 -0.358757,-1.749221 -0.439421,-2.636527 -0.06631,-0.729361 0.07287,-1.468371 0,-2.197105 -0.04975,-0.497519 -0.82909,-4.336114 -0.878842,-4.833632 -0.284967,-2.849669 0.478166,-0.743234 -0.439421,-3.95479 -0.08998,-0.314923 -0.385577,-0.555773 -0.439421,-0.878842 -0.09632,-0.577923 0.205721,-1.209094 0,-1.757685 -0.257152,-0.685738 -0.990739,-1.102634 -1.318264,-1.757684 -0.270084,-0.540168 -0.227368,-1.19221 -0.439421,-1.757684 C 74.911003,21.07287 74.520201,20.530615 74.262164,19.928528 73.51243,18.179149 74.24307,18.915964 72.943901,17.292002 72.036652,16.15794 70.677711,16.107094 69.867953,15.094896 69.5786,14.733205 69.706446,14.147186 69.428532,13.776633 69.232017,13.514613 68.81171,13.533727 68.54969,13.337212 68.218258,13.088638 68.00228,12.706944 67.670848,12.45837 67.255572,12.146913 65.52937,11.263869 65.034321,11.140107 c -0.284201,-0.07105 -0.616822,0.13101 -0.878842,0 -0.370552,-0.185277 -0.534132,-0.649036 -0.878842,-0.878843 -0.121874,-0.08125 -0.300464,0.04632 -0.439421,0 -0.310718,-0.103572 -0.568125,-0.3358481 -0.878843,-0.4394206 -0.277914,-0.092638 -0.588839,0.041429 -0.878842,0 C 60.197521,9.6958419 59.302575,9.6168506 58.443005,9.3824223 57.682014,9.1748792 57.004335,8.720276 56.245899,8.5035801 c -0.471936,-0.134839 -1.705135,0 -2.197105,0 -1.318263,0 -2.636527,0 -3.95479,0 -2.197105,0 -4.394211,0 -6.591316,0 -0.732369,0 -1.474702,-0.1204006 -2.197106,0 -0.595709,0.099285 -1.161975,0.3401362 -1.757684,0.4394211 -0.288962,0.04816 -0.606847,-0.108798 -0.878842,0 -0.792995,0.3171977 -1.404111,1.0010655 -2.197106,1.3182628 -1.612279,0.644912 -3.372506,1.223022 -4.833632,2.197106 -1.296242,0.864161 -2.019876,2.459298 -3.075947,3.515369 -0.517863,0.517862 -1.239822,0.8004 -1.757685,1.318263 -1.20681,1.206811 -1.570155,3.061247 -2.636526,4.394211 -0.258805,0.323506 -0.620037,0.555336 -0.878842,0.878842 -0.329913,0.412391 -0.505406,0.944827 -0.878842,1.318263 -0.231596,0.231595 -0.616823,0.242906 -0.878843,0.439421 -0.331432,0.248574 -0.585894,0.585895 -0.878842,0.878842 -0.292947,0.292948 -0.665691,0.523592 -0.878842,0.878843 -0.23831,0.397182 -0.232276,0.903973 -0.439421,1.318263 -0.236182,0.472363 -0.642661,0.8459 -0.878842,1.318263 -0.962272,1.924543 -1.966884,6.716425 -2.197106,8.788422 -0.0647,0.582311 0.0647,1.175373 0,1.757684 -0.08248,0.742304 -0.356943,1.454802 -0.439421,2.197106 -0.17084,1.537565 0,3.28587 0,4.833632 0,3.95479 0,7.909579 0,11.864369 0,1.904158 0,3.808316 0,5.712474 0,0.732369 -0.1204,1.474702 0,2.197106 0.07615,0.456888 0.348582,0.864067 0.439421,1.318263 0.493978,2.46989 -1.089412,-1.440362 0.439421,2.636526 0.230004,0.613343 0.620806,1.155599 0.878843,1.757685 1.062326,2.478763 -0.236084,0.102812 0.878842,3.075947 0.230003,0.613343 0.620805,1.155599 0.878842,1.757685 0.271137,0.632653 0.913849,3.550375 1.318263,3.95479 0.231595,0.231595 0.597992,0.27091 0.878842,0.439421 0.452858,0.271714 0.905872,0.548929 1.318264,0.878842 0.323506,0.258805 0.54741,0.630268 0.878842,0.878842 0.26202,0.196515 0.597991,0.270911 0.878842,0.439421 1.031664,0.618999 1.192649,0.916481 2.197105,1.318263 0.860124,0.34405 1.842162,0.402224 2.636527,0.878843 0.355251,0.21315 0.50829,0.693566 0.878842,0.878842 0.26202,0.13101 0.594642,-0.07105 0.878842,0 0.76002,0.190005 1.983189,0.882705 2.636527,1.318263 1.005529,0.670353 -0.274766,0.347832 1.318263,0.878842 0.572935,0.190979 1.184749,0.248443 1.757684,0.439421 0.310718,0.103573 0.561097,0.359985 0.878843,0.439421 0.2842,0.07105 0.616822,-0.13101 0.878842,0 0.370552,0.185277 0.54741,0.630268 0.878842,0.878843 0.52404,0.39303 1.136249,0.671697 1.757684,0.878842 0.138957,0.04632 0.300464,-0.04632 0.439421,0 1.062879,0.354293 2.49466,1.553542 3.515369,1.757684 0.430888,0.08618 0.887376,-0.08618 1.318263,0 0.321165,0.06423 0.561097,0.359985 0.878843,0.439421 0.2842,0.07105 0.591583,-0.05745 0.878842,0 0.454195,0.09084 0.864067,0.348582 1.318263,0.439421 0.287259,0.05745 0.594641,-0.07105 0.878842,0 0.317746,0.07944 0.561096,0.359985 0.878842,0.439421 0.284201,0.07105 0.594642,-0.07105 0.878843,0 0.317746,0.07944 0.568124,0.335849 0.878842,0.439421 0.518174,0.172725 3.721324,0 4.394211,0 0.948336,0 2.620208,0.223791 3.515368,0 1.142505,-0.285626 1.494023,-1.472058 2.636527,-1.757684 2.914752,0 -0.621435,0.207145 1.318263,-0.439421 0.277914,-0.09264 0.600928,0.09264 0.878842,0 0.39303,-0.13101 0.534132,-0.649035 0.878842,-0.878842 0.272518,-0.181678 0.606325,-0.257743 0.878843,-0.439421 0.34471,-0.229807 0.508289,-0.693566 0.878842,-0.878842 0.13101,-0.0655 0.335848,0.103572 0.439421,0 0.373436,-0.373437 0.456347,-1.001393 0.878842,-1.318264 0.234358,-0.175768 0.635095,0.162498 0.878842,0 0.272518,-0.181678 0.257743,-0.606324 0.439421,-0.878842 0.337373,-0.506059 0.952951,-0.83118 1.318264,-1.318263 0.316871,-0.422495 0.561971,-0.895769 0.878842,-1.318263 0.248574,-0.331433 0.747832,-0.485812 0.878842,-0.878843 0.09264,-0.277914 -0.07105,-0.594641 0,-0.878842 0.158873,-0.635492 0.719969,-1.122192 0.878842,-1.757684 0.07105,-0.284201 -0.05745,-0.591584 0,-0.878842 0.09084,-0.454196 0.363273,-0.861375 0.439421,-1.318264 0.07224,-0.433442 -0.08618,-0.887375 0,-1.318263 0.06423,-0.321165 0.375188,-0.557677 0.439421,-0.878842 0,-3.352184 -0.196515,0.346639 0.439421,-2.197105 0.142101,-0.568402 -0.114903,-1.183168 0,-1.757685 1.204318,-3.612952 -0.154396,0.926381 0.439422,-2.636526 -0.15262,-0.894064 0.724148,-1.423638 0.878842,-2.197106 0.172355,-0.861775 -0.326394,-1.820542 0,-2.636526 0.153863,-0.384659 0.693566,-0.50829 0.878842,-0.878842 0.270084,-0.540169 0.292947,-1.17179 0.439421,-1.757685 0.146474,-0.585895 0.354013,-1.159827 0.439421,-1.757684 0.06214,-0.435005 -0.06214,-0.883259 0,-1.318263 0.54606,-3.822418 0.252816,0.05418 0.878842,-3.075948 0.05745,-0.287259 -0.108798,-0.606847 0,-0.878842 0.196138,-0.490346 0.642661,-0.8459 0.878842,-1.318264 0.541139,-1.082276 0.868111,-2.389987 1.318264,-3.515368 0.121639,-0.3041 0.359984,-0.561096 0.439421,-0.878842 0.07105,-0.284201 -0.05745,-0.591584 0,-0.878843 0.09084,-0.454195 0.348582,-0.864067 0.439421,-1.318263 0.143629,-0.718146 0,-1.464737 0,-2.197105 0,-2.197106 0,-4.394211 0,-6.591317 0,-1.61121 0,-3.222421 0,-4.833632 0,-0.878842 0.144481,-1.769642 0,-2.636526 -0.07615,-0.456888 -0.363273,-0.861375 -0.439421,-1.318263 -0.07224,-0.433443 0.08618,-0.887376 0,-1.318264 -0.128466,-0.642329 -0.635563,-1.149485 -0.878842,-1.757684 -0.411727,-1.029317 -0.691932,-2.13645 -1.318264,-3.075948 -0.34471,-0.517065 -0.821115,-0.945402 -1.318263,-1.318263 -0.26202,-0.196515 -0.647247,-0.207826 -0.878842,-0.439421 -0.231595,-0.231595 -0.257743,-0.606325 -0.439421,-0.878842 -0.673008,-1.009511 -0.250997,0.188424 -1.318263,-0.878842 -2.929474,-2.929474 2.197105,1.025316 -1.318264,-1.318264 -0.790365,-0.52691 -0.70117,-1.580012 -1.318263,-2.197105 -0.463191,-0.463191 -1.21265,-0.515486 -1.757684,-0.878842 -0.664835,-0.443224 -1.123872,-1.282325 -1.757685,-1.757685 -0.26202,-0.196515 -0.568124,-0.335848 -0.878842,-0.439421 -0.138957,-0.04632 -0.322242,0.08788 -0.439421,0 -0.497148,-0.372861 -0.833004,-0.930055 -1.318263,-1.318263 -0.255754,-0.204603 -0.606325,-0.257743 -0.878842,-0.439421 -0.344711,-0.229807 -0.50829,-0.693566 -0.878843,-0.878842 -0.13101,-0.0655 -0.358172,0.121873 -0.439421,0 -0.174149,-0.261224 -0.259824,-1.551345 -0.878842,-1.757685 -0.277914,-0.09264 -0.600928,0.09264 -0.878842,0 -0.196515,-0.0655 -0.254145,-0.3467825 -0.439421,-0.4394206 -0.13101,-0.065505 -0.297321,0.035525 -0.439421,0 C 62.827276,9.7095032 62.388435,9.5544469 61.958373,9.3824223 61.654274,9.2607825 61.407056,8.9430012 61.079531,8.9430012 c -0.890964,0 -1.757684,0.5858948 -2.636526,0.4394211 -1.504611,-0.2507685 -2.450179,-1.5069159 -3.95479,-1.7576844 -0.722404,-0.1204006 -1.464737,0 -2.197105,0 -1.757685,0 -3.515369,0 -5.273054,0"
       id="path3013"
       inkscape:connector-curvature="0"
       transform="translate(0,308.2677)"
       inkscape:export-filename="/Users/christian/Documents/Informatik/Autorennen/autorennen/img/numbers.png"
       inkscape:export-xdpi="8.9988985"
       inkscape:export-ydpi="8.9988985" />
    <path
       style="fill:none;stroke:#000000;stroke-width:3.75;stroke-linecap:butt;stroke-linejoin:miter;stroke-opacity:1;stroke-miterlimit:4;stroke-dasharray:none"
       d="m 123.0379,47.612057 c 1.26803,-3.610777 5.16333,-4.45534 7.90958,-6.591316 1.4716,-1.144573 2.56907,-2.707635 3.95479,-3.95479 2.06607,-1.859459 4.51395,-2.987078 6.59132,-4.833632 0.61929,-0.550479 1.1384,-1.207206 1.75768,-1.757684 0.70099,-0.6231 1.49998,-1.13027 2.19711,-1.757685 0.76985,-0.692864 1.41764,-1.515075 2.19711,-2.197105 0.39745,-0.347769 0.91255,-0.540749 1.31826,-0.878842 0.4774,-0.397834 0.84643,-0.913839 1.31826,-1.318264 1.35192,-1.15879 2.79949,-2.129003 3.95479,-3.515368 0.46885,-0.562621 0.91202,-1.148317 1.31827,-1.757685 0.18167,-0.272517 0.20782,-0.647247 0.43942,-0.878842 2.84476,-2.844765 -0.24298,1.40227 2.63652,-2.197105 0.20461,-0.255755 0.24291,-0.616822 0.43942,-0.878843 0.56887,-0.758489 2.246,-1.855466 2.63653,-2.636526 0.0655,-0.13101 -0.0813,-0.317548 0,-0.439421 0.39595,-0.593929 1.22887,-1.228871 1.75768,-1.757685 0.29295,-0.2929469 0.69357,-0.5082893 0.87885,-0.8788417 0.0655,-0.1310101 -0.10358,-0.3358486 0,-0.4394211 0.10357,-0.1035726 0.33585,0.1035725 0.43942,0 0.20714,-0.2071451 0,-1.1717896 0,-0.8788422 0,0.2929474 0.13101,0.6168221 0,0.8788422 -0.18528,0.3705524 -0.62004,0.5553359 -0.87884,0.8788422 -0.5008,0.6259896 -1.0786,2.1838016 -1.75769,2.6365266 -0.27252,0.181678 -0.62309,0.234818 -0.87884,0.439421 -0.91474,0.731791 -3.18019,2.986534 -3.95479,3.95479 -0.32991,0.412391 -0.47313,0.98017 -0.87884,1.318263 -0.50323,0.419353 -1.18894,0.553846 -1.75769,0.878842 -2.36687,1.352499 -0.39264,0.314115 -2.1971,1.757685 -0.41239,0.329913 -0.90587,0.548929 -1.31827,0.878842 -1.1081,0.886487 -1.7703,1.993165 -2.63652,3.075947 -0.25881,0.323507 -0.5859,0.585895 -0.87884,0.878843 -0.43943,0.292947 -0.98017,0.47313 -1.31827,0.878842 -0.41935,0.503223 -0.44749,1.264708 -0.87884,1.757684 -0.6176,0.705834 -1.53392,1.094497 -2.19711,1.757684 -0.51786,0.517863 -0.84164,1.201629 -1.31826,1.757685 -0.80885,0.943657 -1.82768,1.692869 -2.63652,2.636526 -0.47662,0.556056 -0.84165,1.201629 -1.31827,1.757685 -1.70819,1.992887 -3.91551,3.4918 -6.15189,4.833632 -0.28085,0.16851 -0.60633,0.257742 -0.87885,0.439421 -0.51706,0.34471 -0.833,0.930055 -1.31826,1.318263 -1.081,0.8648 -1.40136,0.696697 -2.1971,1.757684 -0.19652,0.26202 -0.17741,0.682327 -0.43943,0.878843 -0.37055,0.277914 -0.90397,0.232276 -1.31826,0.439421 -0.59998,0.299992 -2.08983,3.397778 -2.63653,1.757684 -0.64819,-1.944591 1.61533,-2.463227 2.63653,-3.075948 0.89696,-0.06586 1.54574,-1.323439 2.19711,-1.757684 0.54503,-0.363357 1.18894,-0.553846 1.75768,-0.878842 0.45854,-0.26202 0.8459,-0.642661 1.31826,-0.878842 0.41429,-0.207145 0.93287,-0.18249 1.31827,-0.439421 0.51706,-0.344711 0.833,-0.930056 1.31826,-1.318264 0.51526,-0.412208 1.6682,-0.66728 2.19711,-0.878842 1.51948,-0.607792 0.30561,-0.229209 1.75768,-1.318263 0.77156,-0.578673 1.83329,-0.78277 2.63653,-1.318263 0.34471,-0.229807 0.58589,-0.585895 0.87884,-0.878843 0.47251,-0.472513 1.36173,-1.163755 1.75768,-1.757684 0.48225,-0.723366 0.83602,-1.473739 1.31827,-2.197105 0.2298,-0.344711 0.69356,-0.50829 0.87884,-0.878843 0.20714,-0.41429 0.16151,-0.94771 0.43942,-1.318263 0.19652,-0.26202 0.61682,-0.242906 0.87884,-0.439421 1.26709,-0.950312 0.56973,-0.63488 1.31827,-1.757684 0.33335,-0.500029 1.35434,-1.455177 1.75768,-1.757685 0.26202,-0.196515 0.60632,-0.257742 0.87884,-0.439421 0.83888,-0.559251 1.40935,-1.5669 2.19711,-2.197105 0.41239,-0.329913 0.91255,-0.540749 1.31826,-0.878842 0.79567,-0.663056 1.38834,-1.550093 2.19711,-2.197106 0.41239,-0.329913 0.8654,-0.607127 1.31826,-0.878842 0.28085,-0.16851 0.64725,-0.207826 0.87884,-0.439421 0.46319,-0.463191 0.48581,-1.233644 0.87884,-1.757684 0.37287,-0.497149 0.97356,-0.801198 1.31827,-1.318264 0.18168,-0.272517 0.25774,-0.606324 0.43942,-0.878842 0.34471,-0.517065 0.9454,-0.821115 1.31826,-1.318263 0.53364,-0.711511 0.20683,-0.870255 0.87884,-1.318263 0.27252,-0.181679 0.69717,-0.166904 0.87885,-0.439421 0.1144,-0.171605 -0.28804,-1.3182637 0.43942,-1.3182637 0.14647,0 0,0.2929474 0,0.4394211 0,0.8788426 0,1.7576846 0,2.6365266 0,3.198232 0.22779,6.478152 0,9.667264 0.0618,2.097091 -0.70682,4.087599 -0.87885,6.151895 -0.073,0.875807 0.12429,1.766517 0,2.636527 -0.17081,1.195713 -0.70802,2.319655 -0.87884,3.515368 -0.12428,0.87001 0,1.757685 0,2.636527 0,2.636526 0,5.273053 0,7.909579 0,8.056054 0,16.112107 0,24.16816 0,4.394211 0,8.788422 0,13.182633 0,1.464737 0,2.929474 0,4.394211 0,1.171789 0.19264,2.359522 0,3.515369 -0.0762,0.456888 -0.37391,0.859728 -0.43942,1.318263 -0.0829,0.580006 0,1.171789 0,1.757684 0,1.611211 0,3.222422 0,4.833632 0,0.439421 0,0.878842 0,1.318263 0,0.146474 0,0.585895 0,0.439422 0,-2.783001 0,-5.566001 0,-8.349001 0,-1.757685 0.14597,-3.52144 0,-5.273053 -0.062,-0.744293 -0.3718,-1.453301 -0.43942,-2.197106 -0.15913,-1.750466 0,-3.515368 0,-5.273053 0,-4.247737 0,-8.495474 0,-12.743211 0,-3.222422 0,-6.444843 0,-9.667264 0,-1.318264 -0.18643,-2.649776 0,-3.95479 0.0655,-0.458535 0.29295,-0.878842 0.43942,-1.318263 0.14648,-0.732369 0.35694,-1.454802 0.43942,-2.197106 0.0647,-0.582311 -0.1271,-1.185741 0,-1.757684 0.17111,-0.770002 0.70773,-1.427104 0.87884,-2.197106 0.1271,-0.571942 -0.0727,-1.176313 0,-1.757684 0.0749,-0.599263 0.35402,-1.159828 0.43943,-1.757684 0.0621,-0.435005 -0.0722,-0.884821 0,-1.318264 0.15229,-0.913776 0.69716,-1.728135 0.87884,-2.636526 0.25383,-1.269146 -0.21301,-2.676722 0,-3.95479 0.0762,-0.456888 0.36327,-0.861375 0.43942,-1.318263 0.22345,-1.340684 0,-3.045393 0,-4.394211 0,-3.075948 0,-6.151895 0,-9.227843 0,-2.226785 -0.13101,0.52404 0.43942,-1.757684 0.20599,-0.823968 0,-3.336217 0,-4.394211"
       id="path3015"
       inkscape:connector-curvature="0"
       transform="translate(0,308.2677)"
       inkscape:export-filename="/Users/christian/Documents/Informatik/Autorennen/autorennen/img/numbers.png"
       inkscape:export-xdpi="8.9988985"
       inkscape:export-ydpi="8.9988985" />
    <path
       style="fill:none;stroke:#000000;stroke-width:3.75;stroke-linecap:butt;stroke-linejoin:miter;stroke-opacity:1;stroke-miterlimit:4;stroke-dasharray:none"
       d="m 223.66533,41.020741 c -0.16956,-1.014759 0.12718,-2.05855 0,-3.075948 -0.0926,-0.741105 -0.37739,-1.452813 -0.43942,-2.197105 -0.12164,-1.459678 0,-2.929474 0,-4.394211 0,-0.585895 0,-1.17179 0,-1.757685 0,-0.439421 -0.13895,-0.901391 0,-1.318263 0.33462,-1.003842 2.08037,-2.519784 2.63653,-3.075948 0.43942,-0.439421 0.87884,-0.878842 1.31826,-1.318263 0.43942,-0.585895 0.8004,-1.239821 1.31827,-1.757684 0.51786,-0.517863 1.23982,-0.800401 1.75768,-1.318263 0.51786,-0.517863 0.84941,-1.195064 1.31826,-1.757685 0.92828,-1.113933 1.93138,-2.185724 3.07595,-3.075947 0.51707,-0.402162 1.21265,-0.515486 1.75769,-0.878843 2.73406,-1.82271 -2.24393,-0.102815 3.51536,-2.197105 0.70191,-0.255238 1.46802,-0.277402 2.19711,-0.439421 2.03312,-0.451804 4.54873,-1.114005 6.59132,-1.318263 1.45746,-0.145747 2.92947,0 4.39421,0 0.87884,0 1.75768,0 2.63652,0 0.87885,0 1.77475,-0.172356 2.63653,0 0.64233,0.128466 1.19598,0.541821 1.75768,0.878842 0.90572,0.543429 1.84709,1.055959 2.63653,1.757684 0.54738,0.486559 0.86863,1.179588 1.31826,1.757685 0.57581,0.740324 1.13459,1.496118 1.75769,2.197105 0.55048,0.619289 1.31284,1.058643 1.75768,1.757684 0.59889,0.941113 0.91782,2.034791 1.31827,3.075948 0.33255,0.864634 0.56225,1.76592 0.87884,2.636526 0.26956,0.741295 0.6713,1.436115 0.87884,2.197106 0.66348,2.432768 0.99911,6.235171 1.31826,8.788422 0.14648,1.318263 0.29295,2.636526 0.43942,3.954789 0.29295,0.732369 0.75891,1.417493 0.87885,2.197106 0.28954,1.882016 0,3.808316 0,5.712474 0,1.17179 0,2.343579 0,3.515369 0,1.025316 0.21483,2.073391 0,3.075947 -0.005,0.02137 -2.59699,6.049081 -2.63653,6.151896 -2.17746,5.661385 0.76015,-0.595632 -2.63653,5.712474 -0.46583,0.865129 -0.70445,1.869264 -1.31826,2.636526 -0.58589,0.732369 -1.46474,1.17179 -2.1971,1.757685 -0.73237,0.585894 -1.42876,1.21984 -2.19711,1.757684 -0.69969,0.489783 -1.53018,0.784723 -2.19711,1.318263 -0.80876,0.647013 -1.3486,1.603156 -2.1971,2.197106 -0.6462,0.452338 -1.52073,0.473015 -2.19711,0.878842 -0.80423,0.48254 -1.46473,1.171789 -2.1971,1.757684 -1.17179,0.585895 -2.38373,1.097563 -3.51537,1.757685 -0.63261,0.369019 -1.14832,0.912018 -1.75768,1.318263 -1.47344,0.982291 -3.17482,1.973 -4.83364,2.636526 -2.16805,0.86722 -0.44437,0.165402 -2.63652,0.439422 -5.81001,0.726251 0.47038,0.08169 -3.51537,0.878842 -0.28726,0.05745 -0.58988,-0.04816 -0.87884,0 -1.83403,0.30567 -5.16472,1.055823 -6.59132,2.197105 -0.70543,0.564344 -1.20749,1.559761 -2.19711,1.757684 -0.43088,0.08618 -0.88482,-0.07224 -1.31826,0 -0.4764,0.0794 -1.71897,0.560087 -2.1971,0.878843 -0.17236,0.114903 -0.25415,0.346783 -0.43943,0.439421 -0.13101,0.06551 -0.29294,0 -0.43942,0 -0.14647,0 -0.43942,0.146473 -0.43942,0 0,-0.146474 0.29295,0 0.43942,0 0.5859,0 1.17179,0 1.75769,0 3.04319,0 5.74756,-0.005 8.78842,-0.439421 0.88201,-0.126002 1.74783,-0.375943 2.63653,-0.439421 2.04542,-0.146102 4.10834,0.170295 6.15189,0 0.88789,-0.07399 1.74864,-0.365431 2.63653,-0.439422 0.8758,-0.07298 1.75768,0 2.63652,0 2.92948,0 5.85895,0 8.78843,0 2.58375,0 5.83349,-0.228682 8.349,0 0.60144,0.05468 1.15745,0.372729 1.75768,0.439422 5.21789,0.579765 -0.51769,-0.496942 3.95479,0 0.7423,0.08248 1.45774,0.333797 2.19711,0.439421 0.29,0.04143 0.58589,0 0.87884,0 0.43942,0 0.88326,-0.06214 1.31826,0 0.59786,0.08541 1.15983,0.354013 1.75769,0.439421 0.725,0.103572 1.47895,-0.14363 2.1971,0 1.55332,0.310664 1.33861,0.885625 2.63653,1.318263 0.39548,0.131826 0.92278,-0.131826 1.31826,0 1.62898,0.542994 -0.53563,0.439421 0.87884,0.439421 0.14648,0 0.5859,0 0.43942,0 -0.58589,0 -1.17767,0.08286 -1.75768,0 -0.45854,-0.06551 -0.87884,-0.292947 -1.31826,-0.439421 -1.42182,-0.473941 -2.90389,-1.105361 -4.39421,-1.318263 -1.53407,-0.219153 -3.28572,0 -4.83364,0 -3.51536,0 -7.03073,0 -10.5461,0 -1.31827,0 -2.64459,0.145578 -3.95479,0 -0.74231,-0.08248 -1.45394,-0.365105 -2.19711,-0.439421 -1.31172,-0.131172 -2.63652,0 -3.95479,0 -2.1971,0 -4.39421,0 -6.59131,0 -6.00543,0 -12.01085,0 -18.01627,0 -0.63227,0 -2.44344,0.246339 -1.75768,-0.439421 0.39636,-0.396363 3.21597,-1.607986 3.51537,-1.757685 0.78687,-0.393436 1.41023,-0.924827 2.1971,-1.318263 0.41429,-0.207145 0.90397,-0.232276 1.31826,-0.439421 0.47237,-0.236182 0.82378,-0.693408 1.31827,-0.878842 0.69932,-0.262245 1.47897,-0.23424 2.1971,-0.439421 0.31493,-0.08998 0.56813,-0.335849 0.87885,-0.439421 0.57293,-0.190979 1.18475,-0.248443 1.75768,-0.439422 3.38517,-1.128389 1.21738,-0.270831 3.07595,-1.757684 0.41239,-0.329913 0.90587,-0.548929 1.31826,-0.878842 0.32351,-0.258805 0.54741,-0.630268 0.87884,-0.878842 0.26202,-0.196515 0.59799,-0.270911 0.87885,-0.439421 1.33502,-0.801013 2.50377,-1.575243 3.95479,-2.197106 0.42573,-0.182459 0.92108,-0.201111 1.31826,-0.439421 0.35525,-0.21315 0.55533,-0.620037 0.87884,-0.878842 0.82478,-0.659826 1.81174,-1.097859 2.63653,-1.757684 0.3235,-0.258805 0.55533,-0.620038 0.87884,-0.878843 0.51376,-0.797442 1.51384,-0.805814 2.1971,-1.318263 0.33144,-0.248574 0.55534,-0.620037 0.87885,-0.878842 0.41239,-0.329913 0.90587,-0.548929 1.31826,-0.878842 1.10811,-0.886487 1.7703,-1.993165 2.63653,-3.075948 1.73939,-2.174239 -0.0868,0.526239 2.1971,-1.757684 0.37344,-0.373436 0.54893,-0.905872 0.87884,-1.318263 0.25881,-0.323507 0.62004,-0.555336 0.87885,-0.878843 0.79744,-0.513758 0.80581,-1.51384 1.31826,-2.197105 0.49715,-0.662864 1.26054,-1.09482 1.75768,-1.757684 0.19652,-0.262021 0.29295,-0.585895 0.43943,-0.878843 0.29294,-0.292947 0.63026,-0.54741 0.87884,-0.878842 0.19651,-0.26202 0.27091,-0.597991 0.43942,-0.878842 0.27171,-0.452858 0.61682,-0.859728 0.87884,-1.318263 0.325,-0.568743 0.51549,-1.21265 0.87884,-1.757685 0.57452,-0.861775 1.5501,-1.388339 2.19711,-2.197105 0.34306,-0.428831 2.97896,-5.130538 3.07595,-5.712474 0,-4.594762 -0.26202,0.169238 0.43942,-2.636527 0.0702,-0.280859 0.0823,-5.90502 0,-6.151895 -0.0655,-0.196515 -0.32452,-0.267066 -0.43942,-0.439421 -0.40314,-0.604705 -1.59241,-2.854251 -1.75769,-3.515369 -0.0711,-0.2842 0.15072,-0.627642 0,-0.878842 -0.31972,-0.532876 -0.97355,-0.801198 -1.31826,-1.318263 -0.25693,-0.385398 -0.2674,-0.888202 -0.43942,-1.318263 -0.36011,-0.900262 -1.01188,-1.717357 -1.31827,-2.636527 -0.0463,-0.138957 0.10358,-0.335849 0,-0.439421 -0.37343,-0.373436 -0.94482,-0.505406 -1.31826,-0.878842 -0.46319,-0.463191 -0.54182,-1.195984 -0.87884,-1.757685 0.0908,-0.900043 -0.93079,-1.176469 -1.31826,-1.757684 -0.36336,-0.545035 -0.51549,-1.21265 -0.87885,-1.757684 -0.1149,-0.172355 -0.31513,-0.273705 -0.43942,-0.439421 -0.31687,-0.422495 -0.54893,-0.905872 -0.87884,-1.318264 -0.80791,-1.009889 -1.63751,-1.397894 -2.63653,-2.197105 -0.64701,-0.51761 -1.11067,-1.240074 -1.75768,-1.757684 -0.41239,-0.329913 -0.88852,-0.57188 -1.31826,-0.878843 -0.59596,-0.42568 -1.23983,-0.8004 -1.75769,-1.318263 -0.89811,-0.898112 -0.67056,-1.544833 -1.75768,-2.197105 -0.39719,-0.23831 -0.8882,-0.267397 -1.31827,-0.439421 -1.75734,-0.7029379 -3.84748,-1.8862734 -5.71247,-2.1971059 -1.142,-0.1903337 -2.82529,0 -3.95479,0 -0.77845,0 -3.9715,-0.1409023 -4.39421,0 -0.84556,0.2818541 -2.43563,1.9962059 -3.07595,2.6365269 -1.17179,1.171789 -2.4369,2.257158 -3.51537,3.515368 -0.34369,0.400978 -0.5054,0.944827 -0.87884,1.318264 -0.37344,0.373436 -0.90587,0.548929 -1.31826,0.878842 -1.28186,1.025482 -2.2028,2.530943 -3.51537,3.515368 -0.26202,0.196516 -0.61682,0.242906 -0.87884,0.439422 -1.53761,1.153204 -0.35586,0.474479 -1.31827,1.757684 -0.62143,0.82858 -1.53405,1.401439 -2.1971,2.197105 -1.22011,1.464127 -1.51203,3.120929 -2.19711,4.833632 -0.12164,0.3041 -0.35998,0.561096 -0.43942,0.878843 -0.20214,0.80858 0,3.870742 0,4.833631 0,0.491428 -0.15961,3.196148 0,3.515369 0.38196,0.763914 0.87884,1.464737 1.31826,2.197106 z"
       id="path3019"
       inkscape:connector-curvature="0"
       transform="translate(0,308.2677)"
       inkscape:export-filename="/Users/christian/Documents/Informatik/Autorennen/autorennen/img/numbers.png"
       inkscape:export-xdpi="8.9988985"
       inkscape:export-ydpi="8.9988985" />
    <path
       style="fill:none;stroke:#000000;stroke-width:3.75;stroke-linecap:butt;stroke-linejoin:miter;stroke-opacity:1;stroke-miterlimit:4;stroke-dasharray:none"
       d="m 324.29276,18.610265 c 2.53803,0.06249 4.96588,0.06144 7.47016,-0.439421 0.4542,-0.09084 0.8661,-0.338941 1.31827,-0.439421 0.664,-0.147558 4.03393,-0.612278 4.83363,-0.878842 0.62143,-0.207145 1.12571,-0.706487 1.75768,-0.878842 0.99923,-0.272518 2.05432,-0.269149 3.07595,-0.439421 8.09278,-1.618557 -2.72403,0.395431 3.95479,-0.439422 0.59926,-0.07491 1.15842,-0.364513 1.75768,-0.439421 0.58137,-0.07267 1.1747,0.0583 1.75769,0 1.51352,0.584772 2.61263,-0.729713 3.95479,-0.878842 0.87346,-0.09705 1.76204,0.08745 2.63652,0 0.60093,-0.06009 1.15676,-0.379328 1.75769,-0.439421 1.74896,-0.174896 3.51537,0 5.27305,0 1.90416,0 3.81614,-0.172394 5.71248,0 2.04323,0.185749 3.6354,1.544758 5.27305,2.636527 1.54283,1.028556 3.257,1.999089 4.39421,3.515368 0.58954,0.786061 0.83077,1.783412 1.31826,2.636527 0.26202,0.458535 0.64266,0.8459 0.87884,1.318263 0.65135,1.302699 0.96958,2.99946 1.31827,4.394211 0.29295,1.17179 0.72902,2.316843 0.87884,3.515369 0.19394,1.551479 0,3.265672 0,4.833632 0,0.725059 0.17967,4.294625 0,4.833632 -0.16701,0.501017 -0.64266,0.845899 -0.87884,1.318263 -0.20715,0.41429 -0.20962,0.916101 -0.43942,1.318263 -0.36336,0.635874 -0.93011,1.136637 -1.31827,1.757685 -0.34717,0.555481 -0.45949,1.25446 -0.87884,1.757684 -0.33809,0.405712 -0.87884,0.585895 -1.31826,0.878842 -0.87884,0.585895 -1.65584,1.365408 -2.63653,1.757684 -0.27199,0.108798 -0.60093,-0.09264 -0.87884,0 -0.62144,0.207146 -1.1556,0.620806 -1.75768,0.878843 -1.45763,0.624697 -1.38187,0.439421 -3.07595,0.439421 -1.31827,0 -2.63653,0 -3.95479,0 -0.73237,0 -1.50232,0.231595 -2.19711,0 -0.19651,-0.06551 -0.58589,-0.292948 -0.43942,-0.439421 0.0847,-0.08466 5.45262,0.02887 5.71248,0 0.60023,-0.06669 1.16813,-0.308411 1.75768,-0.439421 0.72909,-0.16202 1.46802,-0.277402 2.19711,-0.439422 0.58954,-0.13101 1.15842,-0.364513 1.75768,-0.439421 1.16274,-0.145342 2.35263,0.145343 3.51537,0 0.59926,-0.07491 1.15842,-0.364513 1.75768,-0.439421 1.23847,-0.154808 5.05199,-0.220523 6.1519,0.439421 0.54517,0.327101 1.55043,1.713507 1.75768,2.197106 0.2379,0.555096 0.22737,1.19221 0.43942,1.757684 0.23001,0.613343 0.69062,1.13026 0.87885,1.757684 0.25601,0.85339 0.29294,1.757685 0.43942,2.636527 0.14647,0.878842 0.36543,1.748639 0.43942,2.636527 0.1338,1.605645 -0.16032,3.230417 0,4.833632 0.0743,0.743165 0.3651,1.453939 0.43942,2.197105 0.0663,0.663245 0.18145,4.547238 0,5.273053 -0.1595,0.637982 -2.2247,4.72395 -2.63653,5.273053 -0.49715,0.662864 -1.21845,1.128579 -1.75768,1.757684 -1.62487,1.895675 0.0148,1.045708 -2.63653,2.636527 -0.84255,0.505531 -1.79397,0.812732 -2.63653,1.318263 -0.628,0.376801 -1.13663,0.930109 -1.75768,1.318264 -0.55548,0.347175 -1.18894,0.553846 -1.75768,0.878842 -0.45854,0.26202 -0.85973,0.616822 -1.31827,0.878842 -0.56874,0.324996 -1.22465,0.498102 -1.75768,0.878842 -0.50568,0.361202 -0.82112,0.945402 -1.31826,1.318263 -6.5852,4.9389 0.14186,-0.387523 -3.07595,1.757685 -0.60937,0.406245 -1.12181,0.954906 -1.75769,1.318263 -0.40216,0.229807 -0.88456,0.276784 -1.31826,0.439421 -0.73856,0.276961 -1.43187,0.687534 -2.19711,0.878842 -1.0048,0.251201 -2.0493,0.302536 -3.07594,0.439421 -1.17055,0.156074 -2.33708,0.360868 -3.51537,0.439421 -2.33839,0.155893 -4.68716,0 -7.03074,0 -1.75768,0 -3.51537,0 -5.27305,0 -1.31827,0 -2.64459,0.145578 -3.95479,0 -2.1796,-0.242177 -4.26126,-1.116742 -6.1519,-2.197105 -0.45853,-0.26202 -0.8459,-0.642661 -1.31826,-0.878842 -0.41429,-0.207145 -0.92108,-0.201112 -1.31826,-0.439421 -0.35525,-0.213151 -0.55534,-0.620037 -0.87885,-0.878843 -0.97467,-0.779736 -2.39968,-1.509416 -3.07594,-2.636526 -0.23831,-0.397183 -0.23228,-0.903973 -0.43942,-1.318263 -0.23619,-0.472364 -0.60713,-0.865406 -0.87885,-1.318264 -0.37648,-0.62748 -0.77599,-1.757684 -1.75768,-1.757684 -0.14647,0 0,0.292947 0,0.439421 0,0.585895 -0.2308,1.219162 0,1.757685 0.0845,0.197176 1.89665,1.821531 2.1971,2.197105 2.76772,3.459639 -1.2495,-1.134118 1.75769,3.075948 0.7643,1.070028 2.56428,2.564285 3.51537,3.515368 0.27187,0.271874 2.46543,2.154332 2.63652,2.197106 0.4263,0.106575 0.91027,-0.163197 1.31827,0 0.38466,0.153863 0.49418,0.724978 0.87884,0.878842 0.40799,0.163197 0.88223,-0.0545 1.31826,0 0.74111,0.09264 1.45394,0.365104 2.19711,0.439421 1.45747,0.145747 2.92947,0 4.39421,0 1.75768,0 3.51537,0 5.27305,0 0.43942,0 0.88326,0.06214 1.31827,0 0.59785,-0.08541 1.15982,-0.354013 1.75768,-0.439421 0.435,-0.06214 0.88738,0.08618 1.31826,0 0.32117,-0.06423 0.55768,-0.375188 0.87885,-0.439421 0.96813,-0.193627 2.11688,0.239766 3.07594,0 1.08972,-0.272429 1.92378,-1.08783 3.07595,-1.318263 0.28726,-0.05745 0.59158,0.05745 0.87884,0 0.90839,-0.181679 1.72814,-0.697164 2.63653,-0.878843 0.57452,-0.114903 1.23364,0.26202 1.75768,0 0.37056,-0.185276 0.50829,-0.693566 0.87885,-0.878842 0.26202,-0.13101 0.59464,0.07105 0.87884,0 0.31774,-0.07944 0.55768,-0.375188 0.87884,-0.439421 0.43089,-0.08618 0.88738,0.08618 1.31826,0 0.32117,-0.06423 0.5611,-0.359984 0.87885,-0.439421 0.2842,-0.07105 0.60684,0.108798 0.87884,0 0.49034,-0.196138 0.82792,-0.682704 1.31826,-0.878842 0.272,-0.108798 0.5859,0 0.87884,0 0.43942,-0.146474 0.90398,-0.232276 1.31827,-0.439421 0.47236,-0.236182 0.8654,-0.607128 1.31826,-0.878842 1.11363,-0.668181 2.43547,-1.03775 3.51537,-1.757685 0.51706,-0.34471 0.9454,-0.821115 1.31826,-1.318263 0.19652,-0.26202 0.24291,-0.616822 0.43942,-0.878842 0.24858,-0.331432 0.63027,-0.54741 0.87884,-0.878842 0.19652,-0.262021 0.24291,-0.616822 0.43943,-0.878843 0.6566,-0.875469 1.05235,-0.694048 1.31826,-1.757684 0.0711,-0.284201 -0.0575,-0.591584 0,-0.878842 0.18168,-0.908391 0.72655,-1.72275 0.87884,-2.636527 0.1204,-0.722403 -0.14363,-1.478959 0,-2.197105 0.28522,-1.426078 0.367,-1.245843 1.31826,-2.197106 0.14648,-0.146473 0.34679,-0.254144 0.43943,-0.439421 0.19651,-0.39303 -0.0722,-0.884821 0,-1.318263 1.09211,-6.552716 -0.166,2.148228 0.87884,-3.075948 0.0575,-0.287258 -0.0575,-0.591583 0,-0.878842 0.0908,-0.454195 0.36327,-0.861375 0.43942,-1.318263 0.22655,-1.359296 0,-3.808169 0,-5.273053 0,-1.757684 0,-3.515369 0,-5.273053 0,-0.878842 0.21315,-1.783924 0,-2.636527 -0.0502,-0.20096 -0.32452,-0.267066 -0.43942,-0.439421 -0.18168,-0.272517 -0.20783,-0.647247 -0.43942,-0.878842 -0.2316,-0.231595 -0.60633,-0.257743 -0.87885,-0.439421 -0.65913,-0.439421 -0.43942,-0.878842 -1.31826,-1.318263 -0.26202,-0.13101 -0.59158,0.05745 -0.87884,0 -0.4542,-0.09084 -0.86407,-0.348582 -1.31826,-0.439421 -0.71815,-0.14363 -1.46474,0 -2.19711,0 -1.90416,0 -3.80832,0 -5.71247,0 -0.84593,0 -2.60499,0.227596 -3.51537,0 -0.79533,0.264851 -0.81725,-0.711837 -1.31827,-0.878842 -0.72869,-0.242897 -2.93469,0.290338 -3.51536,0 -0.13101,-0.06551 0,-0.292948 0,-0.439422 0,-0.146473 -0.13896,-0.393102 0,-0.439421 0.41687,-0.138957 0.87884,0 1.31826,0 0.58589,-0.146473 1.20259,-0.201522 1.75768,-0.439421 0.48542,-0.208036 0.82792,-0.682704 1.31827,-0.878842 0.27199,-0.108798 0.59464,0.07105 0.87884,0 0.63549,-0.158873 1.12219,-0.719969 1.75768,-0.878842 0.2842,-0.07105 0.60093,0.09264 0.87885,0 0.19651,-0.0655 0.26706,-0.324518 0.43942,-0.439421 0.54503,-0.363357 1.21265,-0.515486 1.75768,-0.878842 0.34471,-0.229807 0.53413,-0.649036 0.87884,-0.878843 0.84663,-0.564417 1.58493,-0.839415 2.19711,-1.757684 0.0813,-0.121873 -0.0655,-0.308411 0,-0.439421 0.0926,-0.185276 0.29295,-0.292947 0.43942,-0.439421 0.87242,-0.872421 0.87884,-1.395406 0.87884,-2.636527 0,-2.490052 0,-4.980105 0,-7.470158 0,-0.975199 0.19053,-2.123301 0,-3.075948 -1.51729,-4.55186 0.45131,1.817108 -0.43942,-2.636526 -0.0642,-0.321165 -0.31778,-0.574743 -0.43942,-0.878842 -0.17203,-0.430062 -0.31217,-0.872895 -0.43942,-1.318264 -0.14648,-0.585895 -0.29295,-1.171789 -0.43942,-1.757684 0,-0.292947 0.071,-0.594642 0,-0.878842 -0.0794,-0.317746 -0.31778,-0.574743 -0.43942,-0.878842 -0.17203,-0.430062 -0.1119,-0.990739 -0.43943,-1.318264 -0.32752,-0.327525 -0.94771,-0.161506 -1.31826,-0.439421 -0.26202,-0.196515 -0.2429,-0.616822 -0.43942,-0.878842 -0.24857,-0.331432 -0.54741,-0.630268 -0.87884,-0.878842 -2.69752,-2.02314 0.841,0.859921 -1.75769,-0.439421 -0.37055,-0.185276 -0.52359,-0.665692 -0.87884,-0.878842 -1.51728,-0.910372 -1.06174,-0.124464 -2.63652,-0.439421 -0.32117,-0.06423 -0.55768,-0.375189 -0.87885,-0.439422 -0.43088,-0.08618 -0.88482,0.07224 -1.31826,0 -3.61295,-1.204317 0.92638,0.154397 -2.63653,-0.439421 -2.98842,-0.49807 0.40016,-0.306035 -2.63652,-1.318263 -0.41687,-0.138957 -0.88482,0.07224 -1.31827,0 -0.45688,-0.07615 -0.86406,-0.348582 -1.31826,-0.439421 -0.28726,-0.05745 -0.59158,0.05745 -0.87884,0 -0.4542,-0.09084 -0.85973,-0.373916 -1.31827,-0.439421 -1.51526,-0.216467 -3.29625,0 -4.83363,0 -2.05063,0 -4.10126,0 -6.15189,0 -0.87884,0 -1.76964,-0.144481 -2.63653,0 -0.45689,0.07615 -0.86137,0.363273 -1.31826,0.439421 -1.26173,0.210289 -3.20059,-0.298406 -4.39421,0 -0.31775,0.07944 -0.57475,0.317781 -0.87885,0.439421 -1.25759,0.503037 -1.16658,0.26053 -2.1971,0.878842 -0.33753,0.202521 -1.62313,1.17477 -2.19711,1.318264 -0.2842,0.07105 -0.58988,-0.04816 -0.87884,0 -0.83679,0.139466 -4.62201,1.546061 -5.27305,2.197105 -0.2316,0.231595 -0.20783,0.647247 -0.43942,0.878842 -0.2316,0.231595 -0.60633,0.257743 -0.87884,0.439421 -0.34471,0.229807 -0.50829,0.693566 -0.87885,0.878842 -0.13101,0.06551 -0.33585,-0.103572 -0.43942,0 -0.10357,0.103573 0.0463,0.300464 0,0.439421 -0.0752,0.225686 -1.16003,1.959752 -1.31826,2.197106 -0.47915,0.71872 -0.87884,0.07163 -0.87884,0.878842"
       id="path3021"
       inkscape:connector-curvature="0"
       transform="translate(0,308.2677)"
       inkscape:export-filename="/Users/christian/Documents/Informatik/Autorennen/autorennen/img/numbers.png"
       inkscape:export-xdpi="8.9988985"
       inkscape:export-ydpi="8.9988985" />
    <path
       style="fill:none;stroke:#000000;stroke-width:3.75;stroke-linecap:butt;stroke-linejoin:miter;stroke-opacity:1;stroke-miterlimit:4;stroke-dasharray:none"
       d="m 446.18767,317.53391 c -4.5966,6.89489 -0.94219,-1.3561 -5.5388,5.53878 -1.145,1.71751 -1.81159,3.71027 -2.76938,5.53878 -0.735,1.4032 -1.53855,2.7694 -2.30783,4.15409 -0.76928,1.69241 -1.4479,3.42903 -2.30782,5.07722 -0.98871,1.89501 -2.23918,3.64539 -3.23096,5.53878 -2.53675,5.70766 -0.94163,2.49458 -3.69253,7.38504 -0.97615,1.73539 -2.79366,4.90106 -3.69251,6.92348 -0.3952,0.8892 -0.48796,1.89906 -0.92313,2.76939 -0.24809,0.49618 -0.71712,0.86965 -0.92313,1.3847 -0.11429,0.2857 0.11427,0.63743 0,0.92313 -0.20603,0.51506 -0.5903,0.94091 -0.92314,1.3847 -0.13054,0.17406 -0.39275,0.25515 -0.46156,0.46156 -0.0973,0.29193 0.0973,0.63121 0,0.92313 -0.0688,0.20642 -0.34086,0.28053 -0.46157,0.46157 -0.19084,0.28624 -0.30771,1.23084 -0.46156,0.92313 -0.89659,-1.79319 2.00888,-5.52204 2.30783,-6.00034 2.81099,-4.49761 6.46811,-8.73166 9.69286,-12.92384 5.19838,-6.75788 -0.45786,0.45565 4.15409,-6.92348 0.81543,-1.30468 1.93357,-2.4008 2.7694,-3.69251 0.73505,-1.13601 2.95074,-5.29158 3.69251,-6.92348 0.34285,-0.75427 0.5526,-1.56677 0.92314,-2.30783 0.64911,-1.29823 1.65871,-2.39429 2.30782,-3.69252 1.19835,-2.39671 -0.41839,-0.50474 1.38469,-2.30782 0.18647,-0.18648 1.22205,-0.78688 0.92314,-1.3847 -0.50097,-1.00196 -1.18011,-0.20459 -1.84627,0.46156 -0.69661,0.69661 -1.19175,1.57151 -1.84626,2.30783 -5.08574,5.72146 1.57577,-2.43127 -3.69251,4.15409 -1.48351,1.85438 -2.1801,2.51392 -3.23097,4.61565 -0.524,1.04802 -0.96406,2.13733 -1.38469,3.23095 -0.34931,0.90821 -0.48796,1.89907 -0.92313,2.76939 -0.49617,0.99234 -1.32027,1.79255 -1.84626,2.76939 -0.55552,1.03167 -0.86068,2.18295 -1.3847,3.23097 -0.24808,0.49616 -0.6479,0.90305 -0.92312,1.38469 -0.49737,0.8704 -1.62647,3.27487 -1.84627,4.15409 -0.92874,3.71499 1.38839,-1.39393 -0.46156,3.23095 -0.38331,0.95828 -1.05832,1.79027 -1.3847,2.76939 -0.14596,0.43788 0,0.92314 0,1.3847 -0.15386,0.61542 -0.26096,1.24446 -0.46156,1.84626 -0.41028,1.23084 -1.12483,2.39315 -1.3847,3.69252 -0.28151,1.40757 0.54242,0.63452 -0.46157,2.30782 -0.22388,0.37316 -0.66203,0.575 -0.92312,0.92314 -1.67662,2.23548 0.48862,-0.027 -0.92313,1.38469 -0.37271,0.3727 -1.14328,1.05948 -0.46157,0.92314 2.26591,-0.45319 2.54466,-1.36648 4.61565,-2.30783 0.88584,-0.40266 1.84626,-0.61543 2.76938,-0.92314 1.83146,-0.61047 5.8032,-2.05239 7.84662,-2.30782 1.22133,-0.15266 2.46441,0.0819 3.69252,0 1.08551,-0.0724 2.14516,-0.3937 3.23096,-0.46156 2.61044,-0.16316 5.23107,0 7.84661,0 1.38469,0 2.77291,-0.0987 4.15408,0 0.78252,0.0559 1.53399,0.33259 2.30782,0.46156 2.81383,0.46897 5.58909,0.9399 8.30818,1.84626 0.78602,0.26201 1.5085,0.70513 2.30784,0.92313 0.90288,0.24624 1.85169,0.27803 2.76938,0.46157 2.1495,0.4299 4.4341,1.03513 6.46191,1.84626 0.63885,0.25554 1.21384,0.65209 1.84626,0.92313 0.44719,0.19165 0.9675,0.21125 1.38471,0.46156 0.37314,0.2239 0.5339,0.72852 0.92312,0.92313 0.27522,0.13761 0.6671,-0.17068 0.92313,0 0.28625,0.19084 0.2183,0.67987 0.46157,0.92314 0.10879,0.10878 0.0688,-0.32395 0,-0.46157 -1.05156,-2.10313 -0.74105,-0.95561 -2.76939,-2.30782 -0.36209,-0.24139 -0.5453,-0.70723 -0.92314,-0.92314 -2.08756,-1.19289 -5.03866,-1.61162 -7.38504,-1.84626 -0.61237,-0.0612 -1.23389,0.0612 -1.84627,0 -1.51122,-0.15111 -3.55507,-0.64637 -5.07721,-0.92313 -0.92076,-0.16741 -1.86146,-0.23458 -2.76939,-0.46156 -0.94401,-0.23601 -1.81522,-0.7323 -2.76939,-0.92313 -0.60347,-0.1207 -1.23084,0 -1.84627,0 -1.38468,0 -2.76938,0 -4.15408,0 -4.15409,0 -8.30818,0 -12.46226,0 -2.46168,0 -4.92336,0 -7.38504,0 -1.6075,0 -4.58001,-0.0238 -6.00035,0.92313 -0.54312,0.36208 -0.80085,1.09277 -1.3847,1.38469 -0.76927,0.38464 -1.53854,-0.25642 -2.30782,0 -0.20641,0.0688 -0.26695,0.36426 -0.46157,0.46157 -0.13761,0.0688 -0.61082,0.0373 -0.46156,0 0.76108,-0.19027 1.5564,-0.23614 2.30783,-0.46157 0.7936,-0.23808 1.49537,-0.76064 2.30782,-0.92313 0.75434,-0.15087 1.53856,0 2.30783,0 3.23096,0 6.46191,0 9.69287,0 2.76939,0 5.53877,0 8.30817,0 0.92313,0 1.84946,-0.0767 2.76939,0 1.69756,0.14146 3.01213,0.52226 4.61565,0.92313 0.61543,0.15386 1.2168,0.38288 1.84626,0.46157 0.91601,0.1145 1.87383,-0.22389 2.7694,0 0.33375,0.0834 0.58936,0.37812 0.92313,0.46157 0.54079,0.13519 1.74946,0 2.30783,0 0.46156,0 1.17827,0.41283 1.38469,0 0.27522,-0.55045 0,-1.23085 0,-1.84627 0,-2.64556 -0.52083,-5.2316 -0.92313,-7.8466 -0.14231,-0.92499 -0.38979,-1.83629 -0.46156,-2.76939 -0.19804,-2.57446 0,-5.25957 0,-7.84661 0,-0.61543 0,-1.23085 0,-1.84626 0,-0.30771 0.21758,-0.70555 0,-0.92314 -0.15386,-0.15385 -0.34962,0.27499 -0.46157,0.46157 -0.35401,0.59 -0.75625,1.17874 -0.92314,1.84626 -0.30084,1.20339 -0.25764,2.46898 -0.46156,3.69252 -0.25794,1.54767 -0.64245,3.07194 -0.92313,4.61566 -0.68161,3.74888 -1.22659,6.82174 -1.38469,10.61599 -0.0833,1.99839 0.15949,4.00661 0,6.00035 -0.14926,1.86576 -0.76099,3.67409 -0.92314,5.53879 -0.14661,1.68603 0,3.3848 0,5.07721 0,3.38481 0,6.76963 0,10.15443 0,1.23085 0,2.46169 0,3.69253 0,0.92313 0.15176,1.85882 0,2.76939 -2.23217,6.69653 -0.21829,-0.31817 -0.92313,4.61565 -0.0688,0.48164 -0.34356,0.91269 -0.46156,1.38469 -0.0373,0.14927 0.0688,0.32395 0,0.46157 -0.0973,0.19461 -0.36426,0.26696 -0.46156,0.46157 -0.13761,0.27522 0,1.23084 0,0.92313 0,-4.00024 0,-8.00046 0,-12.0007 0,-1.53855 -0.0809,-3.07923 0,-4.61565 0.0362,-0.68799 0.78942,-6.95522 0.92312,-7.84661 0.70865,-4.72431 0.95209,-5.68353 1.84627,-10.15443 0.6075,-3.03756 1.09217,-6.21494 1.84626,-9.23131 0.54874,-2.19498 0.49145,-0.64088 0.92312,-3.23095 0.16677,-1.00053 0,-2.20874 0,-3.23096 0,-2.15398 0,-4.30794 0,-6.46191"
       id="path3023"
       inkscape:connector-curvature="0"
       inkscape:export-filename="/Users/christian/Documents/Informatik/Autorennen/autorennen/img/numbers.png"
       inkscape:export-xdpi="8.9988985"
       inkscape:export-ydpi="8.9988985" />
    <path
       style="fill:none;stroke:#000000;stroke-width:3.75;stroke-linecap:butt;stroke-linejoin:miter;stroke-opacity:1;stroke-miterlimit:4;stroke-dasharray:none"
       d="m 529.69952,319.84723 c -0.73983,3.6173 -0.7444,7.35103 -1.31827,10.98552 -0.21061,1.3339 -0.62616,2.62822 -0.87884,3.95479 -0.33342,1.75046 -0.50031,3.5318 -0.87884,5.27306 -0.35477,1.63194 -1.03211,3.18827 -1.31826,4.83363 -0.30221,1.73769 -0.14946,3.53327 -0.43942,5.27305 -0.1523,0.91378 -0.5859,1.75769 -0.87885,2.63653 -0.14647,1.31826 -0.25184,2.64174 -0.43942,3.95479 -1.1835,5.91753 0.14938,-1.49375 -0.43942,4.39421 -0.24426,2.44259 -0.51186,1.75289 -0.87884,3.95479 -0.0963,0.57792 0,1.17179 0,1.75768 0,0.29295 0,1.17179 0,0.87885 0,-2.50717 -0.056,-3.47055 2.1971,-5.27306 0.25576,-0.2046 0.60633,-0.25774 0.87885,-0.43942 0.60936,-0.40624 1.08453,-1.02977 1.75768,-1.31826 0.40389,-0.1731 0.88738,0.0862 1.31826,0 6.40689,-1.83054 0.48898,-0.44438 4.83364,-0.87884 0.88654,-0.0887 1.74864,-0.36543 2.63652,-0.43942 2.67137,-0.22262 5.65991,0 8.349,0 3.07595,0 6.1519,0 9.22785,0 0.87884,0 1.75768,0 2.63652,0 0.5859,0 1.18929,-0.14211 1.75769,0 0.63549,0.15887 1.17179,0.58589 1.75768,0.87884 0.5859,0.29294 1.21265,0.51548 1.75769,0.87884 0.34471,0.22981 0.56057,0.61362 0.87884,0.87884 0.56262,0.46885 1.27541,0.7671 1.75768,1.31826 0.56242,0.64277 0.82848,1.49742 1.31827,2.19711 0.53784,0.76835 1.23743,1.41673 1.75768,2.19711 0.85433,1.28148 1.76494,4.19263 2.19711,5.27305 0.41429,1.03572 1.02475,1.99974 1.31826,3.07595 0.15416,0.56525 -0.0963,1.17976 0,1.75768 0.54286,3.2572 1.0875,3.15198 1.31826,6.1519 0.15728,2.04459 0,4.10126 0,6.15189 0,1.41885 0.45428,4.02188 -0.43942,5.27305 -0.42568,0.59596 -1.20163,0.84165 -1.75768,1.31827 -1.6272,1.39473 -2.72562,2.72486 -4.83364,3.51537 -3.96371,1.48639 0.43498,-0.43844 -3.51536,0.43942 -0.77001,0.17111 -1.44159,0.65218 -2.19711,0.87884 -3.48274,1.04482 -0.91182,-0.13548 -3.95479,0.87884 -2.37189,0.79063 -1.91475,1.07032 -4.39421,1.31827 -0.72873,0.0729 -1.46922,-0.0809 -2.19711,0 -0.60023,0.0667 -1.15675,0.37932 -1.75768,0.43942 -0.87448,0.0875 -1.76072,-0.073 -2.63653,0 -0.88788,0.074 -1.74922,0.35875 -2.63652,0.43942 -0.72936,0.0663 -1.46922,-0.0809 -2.19711,0 -0.60023,0.0667 -1.15624,0.38474 -1.75768,0.43942 -1.02111,0.0928 -2.05418,-0.0851 -3.07595,0 -0.74429,0.062 -1.4548,0.35694 -2.19711,0.43942 -1.84316,0.2048 -3.85402,0 -5.71247,0 -0.43942,0 -0.87884,0 -1.31826,0 -0.14648,0 -0.43942,0.14647 -0.43942,0 0,-0.14647 0.29294,0 0.43942,0 0.43942,0 0.87884,0 1.31826,0 0.87884,0 1.75768,0 2.63653,0 6.40727,0 -1.14987,0.14448 5.27305,-0.43942 1.45872,-0.13261 2.92947,0 4.39421,0 2.12077,0 4.49957,0.23241 6.59132,0 0.7423,-0.0825 1.45394,-0.36511 2.1971,-0.43942 0.72874,-0.0729 1.46922,0.0809 2.19711,0 1.34216,-0.14913 2.61479,-0.71135 3.95479,-0.87884 0.43602,-0.0545 0.88482,0.0722 1.31826,0 0.91378,-0.1523 1.72814,-0.69717 2.63653,-0.87885 0.28726,-0.0575 0.59464,0.0711 0.87884,0 0.31775,-0.0794 0.58589,-0.29294 0.87884,-0.43942 0.43942,-0.14647 0.86407,-0.34858 1.31826,-0.43942 0.28726,-0.0575 0.59465,0.071 0.87885,0 0.31774,-0.0794 0.57474,-0.31778 0.87884,-0.43942 0.43006,-0.17202 0.8882,-0.2674 1.31826,-0.43942 0.29295,-0.14648 0.5859,-0.29295 0.87884,-0.43942 0.14648,-0.14648 0.25415,-0.34679 0.43943,-0.43942 0.41429,-0.20715 0.94771,-0.16151 1.31826,-0.43942 0.26202,-0.19652 0.20782,-0.64725 0.43942,-0.87885 0.23159,-0.23159 0.64725,-0.20782 0.87884,-0.43942 0.64405,-0.64404 0.76946,-1.90478 1.31827,-2.63652 1.08905,-1.45208 0.71047,-0.23821 1.31826,-1.75769 0.17202,-0.43006 0.25696,-0.89252 0.43942,-1.31826 0.25804,-0.60209 0.69889,-1.12784 0.87884,-1.75769 0.14648,-0.51265 -0.0977,-1.61121 0,-2.1971 0.0993,-0.59571 0.35401,-1.15983 0.43942,-1.75769 0.10907,-0.76348 0.11369,-4.15148 0,-4.83363 -0.0761,-0.45689 -0.31217,-0.87289 -0.43942,-1.31826 -0.29295,-1.02532 -0.62021,-2.04144 -0.87884,-3.07595 -0.14647,-0.73237 -0.29295,-1.46474 -0.43942,-2.1971 0,-0.29295 0.0482,-0.58989 0,-0.87885 -0.19857,-1.19142 -0.49689,-2.3695 -0.87884,-3.51537 -0.87788,-2.63363 0.11242,1.1037 -1.31827,-1.75768 -0.27008,-0.54017 -0.21513,-1.19695 -0.43942,-1.75768 -0.29569,-0.73924 -1.6533,-1.34984 -2.1971,-1.75769 -0.33144,-0.24857 -0.50829,-0.69356 -0.87885,-0.87884 -0.26202,-0.13101 -0.60092,0.0926 -0.87884,0 -1.30848,-0.0375 -1.95564,-1.38425 -3.07595,-1.75769 -0.41687,-0.13895 -0.88482,0.0722 -1.31826,0 -0.45689,-0.0762 -0.85973,-0.37391 -1.31826,-0.43942 -0.58001,-0.0829 -1.17768,0.0829 -1.75769,0 -0.45853,-0.0655 -0.86137,-0.36327 -1.31826,-0.43942 -0.43344,-0.0722 -0.88482,0.0722 -1.31826,0 -0.91378,-0.15229 -1.72275,-0.72654 -2.63653,-0.87884 -1.99521,-0.33253 -4.15669,0.33254 -6.15189,0 -0.32307,-0.0538 -0.55578,-0.38558 -0.87885,-0.43942 -1.23317,-0.20553 -3.14322,0 -4.39421,0 -1.12004,0 -2.41668,-0.18311 -3.51537,0 -0.45688,0.0761 -0.86137,0.36327 -1.31826,0.43942 -0.43344,0.0722 -0.88738,-0.0862 -1.31826,0 -0.73942,0.14788 -2.30994,1.12676 -3.07595,1.31826 -0.5684,0.1421 -1.17179,0 -1.75768,0 -1.17179,0 -2.34358,0 -3.51537,0 -0.73237,0 -1.46474,0 -2.19711,0 -0.14647,0 -0.33585,0.10358 -0.43942,0 -0.10357,-0.10357 0,-0.29294 0,-0.43942 0,-0.29294 0,-0.58589 0,-0.87884 0,-1.95822 -0.10853,-3.79463 0.43942,-5.71247 0.09,-0.31493 0.3104,-0.5778 0.43942,-0.87885 0.31072,-0.725 0.62941,-1.44879 0.87884,-2.1971 0.52353,-1.57059 0.86322,-3.24096 1.31827,-4.83363 0.12725,-0.44537 0.37391,-0.85973 0.43942,-1.31827 0.18643,-1.30501 -0.11935,-2.64194 0,-3.95479 0.0807,-0.8873 0.30394,-1.75592 0.43942,-2.63652 0.45854,-2.98054 0.29867,-2.6623 0.87884,-5.27306 0.26202,-1.17909 0.72903,-2.31684 0.87884,-3.51536 0.0727,-0.58137 -0.0963,-1.17977 0,-1.75769 0.0539,-0.32307 0.33585,-0.56812 0.43943,-0.87884 0.19097,-0.57294 0.29294,-1.17179 0.43942,-1.75769 0.39096,-1.56383 1.15357,-3.18523 0.87884,-4.83363 -0.12279,-0.73671 -1.02263,-1.73054 -0.43942,-2.1971 0.69572,-0.55658 1.75101,0.34103 2.63652,0.43942 1.73625,0.19291 3.53681,-0.19292 5.27306,0 0.88551,0.0984 1.76286,0.26469 2.63652,0.43942 0.5922,0.11844 1.15745,0.37273 1.75769,0.43942 0.72789,0.0809 1.47655,-0.13101 2.1971,0 0.91144,0.16572 1.74279,0.6351 2.63653,0.87884 1.44111,0.39303 2.93604,0.55481 4.39421,0.87884 1.17909,0.26202 2.3149,0.74546 3.51537,0.87885 1.3102,0.14557 2.63653,0 3.95479,0 2.1971,0 4.39421,0 6.59132,0 0.43942,0 0.88482,-0.0722 1.31826,0 0.91378,0.15229 1.72813,0.69716 2.63653,0.87884 0.28725,0.0575 0.59464,-0.0711 0.87884,0 0.31774,0.0794 0.56109,0.35998 0.87884,0.43942 0.91038,0.2276 2.66944,0 3.51537,0 0.58589,0 1.17179,0 1.75768,0 0.43942,0 1.62898,0.31072 1.31827,0 -0.32753,-0.32752 -0.87885,-0.29295 -1.31827,-0.43942 -0.43942,-0.14647 -0.87884,-0.29295 -1.31826,-0.43942 -3.16074,-1.05358 0.78638,0.22468 -3.07595,-0.87884 -0.44537,-0.12725 -0.85973,-0.37392 -1.31826,-0.43943 -0.58001,-0.0829 -1.17632,0.0727 -1.75769,0 -0.59926,-0.0749 -1.15982,-0.35401 -1.75768,-0.43942 -1.11521,-0.15931 -2.42367,0.27293 -3.51537,0 -0.31775,-0.0794 -0.58589,-0.29294 -0.87884,-0.43942 -0.43942,0 -0.88482,0.0722 -1.31826,0 -0.45689,-0.0761 -0.86407,-0.34858 -1.31827,-0.43942 -0.28726,-0.0575 -0.59158,0.0574 -0.87884,0 -0.90839,-0.18168 -1.72275,-0.72654 -2.63653,-0.87884 -0.86688,-0.14448 -1.75768,0 -2.63652,0 -1.75769,0 -3.51537,0 -5.27306,0 -5.41952,0 -10.83905,0 -16.25858,0"
       id="path3025"
       inkscape:connector-curvature="0"
       inkscape:export-filename="/Users/christian/Documents/Informatik/Autorennen/autorennen/img/numbers.png"
       inkscape:export-xdpi="8.9988985"
       inkscape:export-ydpi="8.9988985" />
    <path
       style="fill:none;stroke:#000000;stroke-width:3.75;stroke-linecap:butt;stroke-linejoin:miter;stroke-opacity:1;stroke-miterlimit:4;stroke-dasharray:none"
       d="m 677.87484,319.60491 c -4.67625,-0.25542 -9.16259,1.76204 -13.18263,3.95479 -1.3909,0.75867 -2.62772,1.77105 -3.95479,2.63653 -2.04193,1.33169 -4.19147,2.50578 -6.15189,3.95479 -1.41839,1.04837 -2.55914,2.43691 -3.95479,3.51537 -1.83258,1.41608 -3.99881,2.39691 -5.71248,3.95479 -1.54039,1.40035 -2.59998,3.25302 -3.95479,4.83363 -1.28245,1.49619 -2.59754,2.96552 -3.95479,4.39421 -3.18686,3.35459 -5.39457,4.91918 -7.90958,8.78842 -0.89248,1.37306 -1.46473,2.92947 -2.1971,4.39421 -0.43942,0.87884 -1.00755,1.70438 -1.31827,2.63653 -1.17298,3.51894 -0.87884,6.91585 -0.87884,10.5461 0,1.17179 0,2.34358 0,3.51537 0,1.31827 -0.15402,2.64556 0,3.95479 0.32271,2.74304 1.16653,4.11793 2.19711,6.59132 0.30338,0.72811 0.4265,1.55091 0.87884,2.1971 0.59395,0.8485 1.50424,1.42726 2.19711,2.19711 0.62741,0.69713 1.09449,1.53392 1.75768,2.19711 0.51786,0.51786 1.17179,0.87884 1.75768,1.31826 3.25777,2.44332 7.24897,4.89342 11.42495,5.27305 1.6046,0.14587 3.22242,0 4.83363,0 0.73237,0 1.46474,0 2.19711,0 0.5859,0 1.18574,0.1271 1.75768,0 1.15145,-0.25588 3.51159,-1.491 4.39422,-2.1971 0.80876,-0.64702 1.42299,-1.50901 2.1971,-2.19711 0.54738,-0.48656 1.23982,-0.8004 1.75769,-1.31826 0.51786,-0.51787 0.87884,-1.17179 1.31826,-1.75769 0.43942,-0.58589 0.96259,-1.11748 1.31826,-1.75768 0.38307,-0.68952 0.52609,-1.4916 0.87884,-2.19711 0.23619,-0.47236 0.75076,-0.80591 0.87885,-1.31826 0.0471,-0.18832 -0.0377,-3.54048 0,-3.95479 0.10892,-1.19818 0.8377,-5.70314 0.43942,-7.03074 -0.24542,-0.81806 -0.87884,-1.46473 -1.31827,-2.1971 -0.43942,-0.73237 -0.85972,-1.47655 -1.31826,-2.19711 -0.56707,-0.8911 -1.17179,-1.75768 -1.75768,-2.63652 -0.29295,-0.43943 -0.45635,-1.0014 -0.87885,-1.31827 -0.78606,-0.58954 -1.79397,-0.81273 -2.63652,-1.31826 -0.628,-0.3768 -1.14832,-0.91202 -1.75769,-1.31826 -0.71064,-0.47376 -1.48646,-0.84451 -2.1971,-1.31827 -0.60937,-0.40624 -1.13664,-0.93011 -1.75769,-1.31826 -0.55548,-0.34718 -1.18894,-0.55385 -1.75768,-0.87884 -0.45854,-0.26202 -0.90587,-0.54893 -1.31826,-0.87885 -0.32351,-0.2588 -0.50829,-0.69356 -0.87885,-0.87884 -0.54016,-0.27008 -1.17699,-0.27351 -1.75768,-0.43942 -0.44537,-0.12725 -0.86138,-0.36327 -1.31826,-0.43942 -0.43345,-0.0722 -0.88326,0.0621 -1.31827,0 -0.59785,-0.0854 -1.15982,-0.35401 -1.75768,-0.43942 -0.57783,-0.0825 -5.11077,-0.15043 -5.71248,0 -0.31774,0.0794 -0.56109,0.35998 -0.87884,0.43942 -0.2842,0.0711 -0.59464,-0.071 -0.87884,0 -0.31775,0.0794 -0.55768,0.37519 -0.87884,0.43942 -4.70798,0 0.49273,-0.31072 -1.75769,0.43942 -0.55583,0.18528 -1.20185,-0.18527 -1.75768,0 -0.19652,0.0655 -0.24291,0.37392 -0.43942,0.43942 -0.27792,0.0926 -0.59464,-0.071 -0.87884,0 -0.31775,0.0794 -0.56813,0.33585 -0.87885,0.43942 -0.13895,0.0463 -0.30841,-0.0655 -0.43942,0 -0.37055,0.18528 -0.50829,0.69357 -0.87884,0.87885 -0.13101,0.0655 -0.33585,-0.10358 -0.43942,0 -0.10357,0.10357 0.0655,0.30841 0,0.43942 -0.0926,0.18527 -0.34678,0.25414 -0.43942,0.43942 -0.0655,0.13101 0.0655,0.30841 0,0.43942 -0.0926,0.18528 -0.25415,0.34678 -0.43942,0.43942 -0.13101,0.0655 -0.5859,0 -0.43942,0 1.82112,0 2.29095,-0.81911 3.95479,-1.31826 2.77057,-0.83118 5.93462,-0.43942 8.78842,-0.43942 1.95563,0 4.76981,-0.37014 6.59131,0.43942 1.91502,0.85111 2.29424,1.52949 3.95479,2.63652 0.71064,0.47376 1.51384,0.80582 2.19711,1.31827 0.49715,0.37286 0.79129,0.9889 1.31826,1.31826 0.66889,0.41806 1.51225,0.4875 2.19711,0.87884 0.3597,0.20555 0.54741,0.63027 0.87884,0.87885 0.52404,0.39303 1.29449,0.41565 1.75768,0.87884 0.2316,0.23159 0.24291,0.61682 0.43943,0.87884 0.24857,0.33143 0.62003,0.55534 0.87884,0.87884 0.71179,0.88974 1.93021,2.88722 2.1971,3.95479 0.1421,0.5684 -0.1271,1.18574 0,1.75769 0.17111,0.77 0.72415,1.42363 0.87885,2.1971 0.14362,0.71815 0,1.46474 0,2.19711 0,1.31826 0,2.63652 0,3.95479 0,0.78789 0.20632,4.31782 0,4.83363 -0.19614,0.49034 -0.61683,0.85973 -0.87885,1.31826 -0.32499,0.56875 -0.58589,1.17179 -0.87884,1.75769 -1.1271,2.2542 -2.43517,4.07994 -4.39421,5.71247 -0.51376,0.79744 -1.51384,0.80582 -2.19711,1.31826 -0.33143,0.24858 -0.53413,0.64904 -0.87884,0.87885 -1.20056,0.80037 -3.82707,1.61308 -5.27305,1.75768 -0.87448,0.0874 -1.75768,0 -2.63653,0 -1.31826,0 -2.64977,0.18643 -3.95479,0 -1.35835,-0.19405 -4.78718,-2.59007 -5.71247,-3.51537 -1.17818,-1.17817 -1.56882,-2.9282 -2.19711,-4.39421 -0.25803,-0.60209 -0.67169,-1.13625 -0.87884,-1.75768 -0.23618,-0.70855 -0.2774,-1.46802 -0.43942,-2.19711 -0.51891,-2.33509 -0.84923,-4.68555 -1.31826,-7.03074 -0.11844,-0.59219 -0.38475,-1.15623 -0.43942,-1.75768 -0.21734,-2.39072 0,-5.06175 0,-7.47016 0,-2.34358 0,-4.68716 0,-7.03074 0,-3.31894 -0.0326,-5.30958 1.31826,-8.349 1.27685,-2.87292 2.57997,-5.75722 4.39421,-8.349 0.53784,-0.76835 1.20604,-1.4386 1.75768,-2.1971 4.44542,-6.11245 -0.70794,0.78117 3.07595,-5.27306 0.21958,-0.35131 0.5859,-0.58589 0.87884,-0.87884 0.73237,-0.73237 1.37956,-1.56123 2.19711,-2.1971 0.51706,-0.40217 1.18507,-0.56073 1.75768,-0.87885 0.74661,-0.41477 1.41664,-0.97138 2.19711,-1.31826 0.55187,-0.24528 1.20581,-0.19414 1.75768,-0.43942 3.02057,-1.34247 1.23244,-1.17622 3.95479,-2.19711 0.56548,-0.21205 1.19221,-0.22736 1.75769,-0.43942 1.93148,-0.7243 1.45336,-0.83049 3.07595,-1.75768 1.9817,-1.1324 4.21746,-1.86693 6.15189,-3.07595 3.41866,-2.13666 0.48772,-0.47806 2.63653,-2.1971 0.9839,-0.78713 2.02755,-1.49818 3.07594,-2.19711 0.42878,-0.28585 2.85993,-1.65091 3.51537,-2.19711 0.61389,-0.51157 1.88317,-2.25984 2.63653,-2.63652 0.26202,-0.13101 0.58589,0 0.87884,0"
       id="path3027"
       inkscape:connector-curvature="0"
       inkscape:export-filename="/Users/christian/Documents/Informatik/Autorennen/autorennen/img/numbers.png"
       inkscape:export-xdpi="8.9988985"
       inkscape:export-ydpi="8.9988985" />
    <path
       style="fill:none;stroke:#000000;stroke-width:3.75;stroke-linecap:butt;stroke-linejoin:miter;stroke-opacity:1;stroke-miterlimit:4;stroke-dasharray:none"
       d="m 719.2419,318.92317 c 12.59674,0 25.19348,0 37.79022,0 2.1971,0 4.39979,-0.15653 6.59131,0 7.28278,0.5202 -0.38666,0.15527 3.95479,0.87885 0.43344,0.0722 0.88326,-0.0621 1.31826,0 0.59786,0.0854 1.15983,0.35401 1.75769,0.43942 0.435,0.0621 0.87884,0 1.31826,0 0.29295,0 0.61682,-0.13101 0.87884,0 0.89842,0.44921 1.75525,2.04901 2.63653,2.63652 0.84663,0.56442 1.58493,0.83942 2.19711,1.75769 0.0813,0.12187 -0.0655,0.30841 0,0.43942 0.91438,1.82877 -0.0303,-0.46976 0.87884,0.43942 0.10357,0.10357 -0.0655,0.30841 0,0.43942 0.0926,0.18528 0.34678,0.25415 0.43942,0.43942 0.0655,0.13101 0,0.29295 0,0.43942 0,1.83557 -1.07317,2.23088 -2.19711,3.51537 -0.6176,0.70584 -1.12679,1.50313 -1.75768,2.19711 -0.83605,0.91965 -1.8337,1.68773 -2.63653,2.63653 -2.20317,2.60374 -3.46252,5.42429 -5.27305,8.349 -0.83393,1.34712 -1.75768,2.63652 -2.63653,3.95479 -0.87884,1.46473 -1.75768,2.92947 -2.63652,4.39421 -0.87884,1.46473 -1.75769,2.92947 -2.63653,4.39421 -0.73237,0.73237 -1.5951,1.3543 -2.1971,2.1971 -3.40895,4.77252 -1.1663,2.77202 -3.51537,7.47016 -0.47237,0.94473 -1.22548,1.72417 -1.75769,2.63653 -0.49509,0.84873 -0.85242,1.7714 -1.31826,2.63652 -1.49199,2.77085 -3.08913,5.47783 -4.39421,8.34901 -0.4616,1.01552 -0.85666,2.06042 -1.31827,3.07594 -0.27106,0.59634 -0.63556,1.14949 -0.87884,1.75769 -0.34405,0.86012 -0.56226,1.76592 -0.87884,2.63652 -0.26956,0.7413 -0.65219,1.44159 -0.87884,2.19711 -0.21461,0.71537 -0.18418,1.4952 -0.43942,2.1971 -2.92948,8.05606 0,-1.46473 -2.19711,4.39422 -0.21205,0.56547 -0.20152,1.20258 -0.43942,1.75768 -0.75211,1.75491 -0.83393,0.74411 -1.31826,2.19711 -0.44814,1.3444 1.46345,-1.09663 -0.43942,1.75768 -0.0812,0.12187 -0.33585,-0.10357 -0.43942,0 -0.17122,0.17121 0,1.48953 0,1.75768 0,0.14648 0,0.5859 0,0.43942 0,-0.73236 -0.12041,-1.4747 0,-2.1971 0.29741,-1.78449 1.7264,-2.93802 2.63652,-4.39421 1.18164,-1.89062 2.08367,-4.16733 3.07595,-6.1519 4.1471,-8.2942 -0.7708,2.11969 1.75768,-4.83363 0.33579,-0.92342 0.91167,-1.74202 1.31827,-2.63653 0.3264,-0.71808 0.52608,-1.49159 0.87884,-2.1971 0.91562,-1.83125 2.47381,-3.53713 3.51537,-5.27305 1.09855,-1.83092 0.91546,-2.3802 2.1971,-4.39421 2.36676,-3.7192 1.08025,-0.79188 2.63653,-3.51537 0.325,-0.56875 0.55385,-1.18894 0.87884,-1.75769 0.26202,-0.45853 0.62237,-0.8566 0.87884,-1.31826 0.79531,-1.43154 1.53201,-2.89773 2.19711,-4.39421 0.32036,-0.7208 0.55244,-1.47902 0.87884,-2.19711 0.40659,-0.8945 0.94035,-1.72953 1.31827,-2.63652 1.12142,-2.69144 1.41494,-5.70224 2.63652,-8.349 0.49487,-1.07222 1.17179,-2.05064 1.75769,-3.07595 1.65228,-2.8915 3.0324,-5.98651 4.83363,-8.78842 1.60958,-2.50379 2.50532,-3.22767 3.95479,-5.71248 0.87268,-1.49603 1.13966,-2.68586 2.1971,-3.95479 0.39784,-0.4774 0.97356,-0.8012 1.31827,-1.31826 0.25693,-0.3854 0.23227,-0.90397 0.43942,-1.31826 0.47236,-0.94473 1.09786,-1.81175 1.75768,-2.63653 0.38821,-0.48526 1.04035,-0.76244 1.31827,-1.31826 0.0655,-0.13101 -0.10358,-0.33585 0,-0.43943 0.10357,-0.10357 0.43942,-0.14647 0.43942,0 0,0.14648 -0.29295,0 -0.43942,0 -0.73237,0 -1.47471,-0.1204 -2.19711,0 -0.45689,0.0761 -0.87289,0.31218 -1.31826,0.43943 -1.91099,0.54599 -1.3524,0.43942 -3.07595,0.43942 -1.90416,0 -3.80832,0 -5.71248,0 -1.02531,0 -2.05854,0.12717 -3.07594,0 -0.74111,-0.0926 -1.4548,-0.35695 -2.19711,-0.43942 -0.58231,-0.0647 -1.17419,0.053 -1.75768,0 -1.03147,-0.0938 -2.04448,-0.34565 -3.07595,-0.43943 -2.73068,-0.24824 -5.60626,0 -8.349,0 -1.8669,0 -3.85714,0.16867 -5.71248,0 -7.42216,-0.67474 2.62105,-0.2378 -5.71247,-0.87884 -2.95011,-0.22693 -6.23465,0 -9.22784,0 -1.75769,0 -3.51537,0 -5.27306,0 -0.87884,0 -1.77861,-0.19064 -2.63652,0 -0.90432,0.20096 -1.75769,0.5859 -2.63653,0.87884 z"
       id="path3029"
       inkscape:connector-curvature="0"
       inkscape:export-filename="/Users/christian/Documents/Informatik/Autorennen/autorennen/img/numbers.png"
       inkscape:export-xdpi="8.9988985"
       inkscape:export-ydpi="8.9988985" />
    <path
       style="fill:none;stroke:#000000;stroke-width:3.75;stroke-linecap:butt;stroke-linejoin:miter;stroke-opacity:1;stroke-miterlimit:4;stroke-dasharray:none"
       d="m 740.33411,361.98644 c 3.3689,0 6.73779,0 10.10669,0 4.24774,0 8.49547,0 12.74321,0 2.63653,0 5.27305,0 7.90958,0 1.02532,0 2.05063,0 3.07595,0 0.29295,0 1.17179,0 0.87884,0 -4.68716,0 -9.37432,0 -14.06147,0 -2.05064,0 -4.11145,-0.20404 -6.1519,0 -0.60093,0.0601 -1.15842,0.36451 -1.75768,0.43942 -0.58137,0.0727 -1.17179,0 -1.75769,0 -2.05063,0 -4.10126,0 -6.15189,0 -0.5859,0 -1.17768,-0.0829 -1.75769,0 -2.51442,0.35921 -0.0912,1.05296 -3.07595,-0.43942 z"
       id="path3031"
       inkscape:connector-curvature="0"
       inkscape:export-filename="/Users/christian/Documents/Informatik/Autorennen/autorennen/img/numbers.png"
       inkscape:export-xdpi="8.9988985"
       inkscape:export-ydpi="8.9988985" />
    <path
       style="fill:none;stroke:#000000;stroke-width:3.75;stroke-linecap:butt;stroke-linejoin:miter;stroke-opacity:1;stroke-miterlimit:4;stroke-dasharray:none"
       d="m 868.20256,318.91871 c -3.81767,0 -7.63536,0 -11.45303,0 -2.37653,0 -5.03359,-0.10854 -7.36266,0.40904 -3.0067,0.66815 -5.96891,2.56152 -8.58977,4.09036 -0.68673,0.4006 -1.44688,0.70359 -2.04519,1.22711 -0.51305,0.44893 -0.74506,1.15409 -1.22711,1.63615 -0.48206,0.48206 -1.18723,0.71406 -1.63615,1.22711 -1.10855,1.26691 -2.54362,4.49605 -3.2723,6.13556 -1.40461,3.16038 -1.2271,4.82958 -1.2271,8.18073 0,1.24845 -0.19842,2.87548 0.40903,4.09037 0.69877,1.39755 3.13931,2.08329 4.4994,2.45422 2.02015,0.55095 3.2549,1.06845 5.31749,1.22711 0.9516,0.0732 1.91126,-0.068 2.86326,0 7.19102,1.02729 -1.44981,-0.0693 5.72651,0.40904 0.31211,0.0208 5.6194,0.69896 6.13555,0.81807 1.68048,0.3878 3.24456,1.18236 4.90844,1.63615 0.67074,0.18292 1.39968,0.15084 2.04519,0.40904 0.73816,0.29526 1.35021,0.84101 2.04518,1.2271 0.53303,0.29613 1.11907,0.49491 1.63615,0.81808 4.66878,2.91799 6.83589,9.04855 7.36267,14.31629 0.2262,2.26207 0,5.04261 0,7.36266 0,2.74675 0.50955,6.97386 -0.81808,9.40785 -0.41806,0.76643 -1.12265,1.33913 -1.63615,2.04518 -0.57829,0.79515 -1.09076,1.63615 -1.63615,2.45423 -0.81807,0.95441 -1.67758,1.87481 -2.45421,2.86326 -0.72465,0.92226 -1.25264,1.99865 -2.04519,2.86325 -1.89851,2.07109 -5.58757,4.34504 -8.18074,5.31748 -3.59627,1.3486 -8.8713,1.63614 -12.68014,1.63614 -1.77249,0 -3.54499,0 -5.31748,0 -0.68173,0 -1.3922,0.1959 -2.04518,0 -0.76149,-0.22845 -1.36346,-0.81807 -2.04519,-1.2271 -0.68173,-0.40904 -1.44686,-0.70359 -2.04518,-1.22712 -1.14283,-0.99998 -1.77156,-2.86158 -2.45422,-4.09037 -0.23875,-0.42973 -0.66262,-0.76073 -0.81807,-1.22711 -0.64063,-1.92188 -0.40904,-4.14943 -0.40904,-6.13555 0,-1.77249 -0.13595,-3.5502 0,-5.31748 0.18199,-2.36595 0.53023,-2.6436 1.22711,-4.90844 0.58774,-1.91014 1.24065,-4.43655 2.45422,-6.13555 0.67245,-0.94143 1.76006,-1.52868 2.45422,-2.45423 0.77177,-1.02902 1.13565,-2.36274 2.04519,-3.27228 0.61733,-0.61733 1.42785,-1.01882 2.04518,-1.63615 2.07225,-2.07225 1.35244,-2.15292 3.27229,-4.49941 0.61051,-0.74618 1.39665,-1.3318 2.04519,-2.04519 1.30353,-1.43387 2.31108,-3.12915 3.68133,-4.4994 0.753,-0.75299 1.66627,-1.32886 2.45422,-2.04518 0.71338,-0.64853 1.31962,-1.41032 2.04518,-2.04519 0.36997,-0.32372 0.81808,-0.54537 1.22711,-0.81807 0.68173,-0.54539 1.39626,-1.05211 2.04519,-1.63615 3.34153,-3.00738 0.94373,-0.88859 3.2723,-4.09037 0.62633,-0.86121 1.4345,-1.58182 2.04518,-2.45421 0.34967,-0.49954 0.46365,-1.13997 0.81807,-1.63616 0.56038,-0.78452 1.51039,-1.24299 2.04519,-2.04517 0.76027,-1.14042 1.13675,-2.43286 1.63614,-3.68134 0.22646,-0.56614 0.67019,-1.04459 0.81808,-1.63615 0.0661,-0.26455 -0.12195,-0.57417 0,-0.81807 0.17246,-0.34493 0.6456,-0.47314 0.81807,-0.81807 0.2744,-0.54879 -0.23487,-4.37798 0,-5.31749 0.0739,-0.29577 0.34925,-0.51911 0.40904,-0.81807 0.0802,-0.40109 -0.0802,-0.82601 0,-1.22711 0.0598,-0.29896 0.33509,-0.5223 0.40903,-0.81807 0.22491,-0.89959 -0.18451,-3.3193 -0.81807,-3.68133 -0.60363,-0.34494 -1.35694,0.31071 -2.04519,0.40904 -0.53989,0.0772 -1.10135,0.10695 -1.63614,0 -0.83224,0.14206 -1.3252,-0.67408 -2.04519,-0.81807 -0.93588,-0.18718 -1.90884,0 -2.86325,0 -1.00956,0 -2.27357,-0.14269 -3.2723,0 -0.55652,0.0795 -1.07963,0.32953 -1.63615,0.40903 -0.40492,0.0578 -0.82364,-0.0672 -1.22711,0 -1.70231,0.28372 -0.70996,0.373 -2.04518,0.81807 -0.53332,0.17778 -1.08163,0.31662 -1.63615,0.40904 -0.26898,0.0449 -0.55937,-0.0862 -0.81807,0 -0.57847,0.19283 -1.06521,0.60397 -1.63615,0.81807 -0.52637,0.1974 -1.10977,0.21165 -1.63614,0.40904 -0.57093,0.2141 -1.07895,0.57042 -1.63616,0.81808 -0.67096,0.2982 -1.38845,0.4897 -2.04518,0.81807 -1.52334,0.76167 -1.09728,0.9144 -2.45422,2.04518 -0.37766,0.31472 -0.81807,0.54539 -1.22711,0.81808 -0.54538,0.40903 -1.11854,0.78344 -1.63614,1.22711 -1.85496,1.58995 -0.66809,0.73285 -2.04519,2.45422 -0.60227,0.75284 -1.36346,1.36345 -2.04519,2.04518 -1.06468,1.06469 -4.08011,3.65056 -4.4994,4.90844 -0.11847,0.35542 -0.0699,2.1746 0,2.45422 0.28003,1.12012 0.71788,0.87093 1.63615,1.63615 0.44439,0.37033 0.81807,0.81808 1.22711,1.22711 2.67979,2.67979 -0.36705,-0.10836 2.86326,2.04518 0.32087,0.21392 0.47314,0.64561 0.81807,0.81808 0.50282,0.25141 1.09561,0.2546 1.63614,0.40904 1.36854,0.391 2.72095,0.83584 4.09038,1.22711 0.41457,0.11845 0.80181,0.33815 1.22711,0.40903 0.40347,0.0672 0.82218,-0.0578 1.22711,0 0.55652,0.0795 1.07963,0.32953 1.63615,0.40904 0.94482,0.13497 1.90884,0 2.86325,0 1.36346,0 2.72692,0 4.09037,0 0.81808,0 1.64437,-0.11569 2.45422,0 0.55652,0.0795 1.07963,0.32954 1.63615,0.40903 0.40492,0.0578 0.82601,-0.0802 1.22711,0 0.71999,0.14401 1.3252,0.67408 2.04518,0.81808 0.2674,0.0535 0.57418,-0.12195 0.81808,0 0.34493,0.17246 0.47314,0.64561 0.81807,0.81808 0.2439,0.12195 0.59992,-0.16362 0.81807,0 0.39329,0.29496 0.4342,0.92001 0.81808,1.2271 0.33668,0.26935 0.85739,0.18721 1.22711,0.40904 0.33069,0.19841 0.48739,0.61966 0.81807,0.81807 0.36972,0.22183 0.88218,0.15034 1.22711,0.40905 0.2439,0.18292 0.19346,0.60248 0.40904,0.81807 0.21558,0.21557 0.5644,0.23992 0.81807,0.40903 0.62555,0.41704 0.32134,0.5648 0.81808,1.22711 0.23138,0.30851 0.61966,0.48739 0.81807,0.81807 0.22183,0.36973 0.24891,0.8268 0.40904,1.22712 0.42629,1.06573 0.99878,2.13067 1.2271,3.27229 0.0535,0.26739 -0.0862,0.55937 0,0.81808 0.49671,1.49011 0.98885,1.43363 1.22712,2.86326 0.15691,0.94142 -0.11838,1.91621 0,2.86325 0.0697,0.55783 0.34696,1.07742 0.40904,1.63615 0.17218,1.54968 0,3.34031 0,4.90844 0,2.86326 0,5.72652 0,8.58977 0,0.81808 0.10146,1.64246 0,2.45422 -0.27721,2.21763 -0.32339,1.54089 -0.81807,3.2723 -0.15445,0.54054 -0.31663,1.08162 -0.40905,1.63614 -0.0449,0.26898 0.12195,0.57418 0,0.81808 -0.30487,0.60976 -0.88887,1.04424 -1.22711,1.63615 -0.21392,0.37435 -0.23919,0.8308 -0.40903,1.2271 -0.59473,1.38768 -2.25833,4.71255 -3.2723,5.72652 -0.34761,0.34761 -0.8795,0.47046 -1.22711,0.81808 -0.69522,0.69522 -0.86839,1.84001 -1.63615,2.45422 -0.97524,0.78019 -4.21851,0.40904 -5.31747,0.40904 -1.90884,0 -3.81768,0 -5.72652,0 -0.68172,0 -1.37273,-0.11208 -2.04518,0 -0.4253,0.0708 -0.80433,0.32447 -1.22711,0.40903 -0.53479,0.10696 -1.09819,-0.0896 -1.63615,0 -0.54538,0.13634 -1.09077,0.2727 -1.63615,0.40904 -0.27269,0.13634 -0.5223,0.3351 -0.81808,0.40903 -0.77765,0.19442 -2.08716,0 -2.86325,0 -1.90883,0 -3.81768,0 -5.72652,0 -0.68173,0 -1.36345,0 -2.04518,0 -0.27269,0 -0.54538,0 -0.81808,0 -0.13634,0 -0.31262,0.0964 -0.40903,0 -0.34761,-0.34761 -0.52312,-0.83383 -0.81807,-1.2271 -0.58727,-0.78303 -1.42653,-1.4061 -1.63615,-2.45423 -0.1337,-0.66848 0.25318,-1.41222 0,-2.04518 -0.18258,-0.45644 -0.66262,-0.76074 -0.81808,-1.22711 -0.1645,-0.49351 0,-2.59109 0,-3.2723 0,-1.48785 -0.20336,-3.89387 0,-5.31747 0.19053,-1.33368 1.14778,-2.46041 1.63615,-3.68134 0.32026,-0.80064 0.67632,-1.60363 0.81808,-2.45422 0.40082,-2.40495 -0.55186,-0.0519 0.40903,-2.45422 0.52797,-1.31992 1.52201,-2.37339 2.04519,-3.68133 0.84288,-0.55344 0.18919,-1.38563 0.40904,-2.04519 0.40903,-1.2271 0.81807,-1.43162 1.2271,-2.45421 0.16014,-0.40033 0.18721,-0.8574 0.40904,-1.22712 0.39682,-0.66137 1.23933,-0.97477 1.63615,-1.63614 0.22183,-0.36972 0.1872,-0.85739 0.40904,-1.22712 0.19841,-0.33068 0.57119,-0.52181 0.81807,-0.81807 0.43643,-0.52372 0.81807,-1.09076 1.22711,-1.63614 0.70373,-0.93831 1.31248,-1.94739 2.04518,-2.86326 0.24091,-0.30114 0.57119,-0.52182 0.81808,-0.81807 0.87927,-0.81121 1.31248,-1.94739 2.04518,-2.86326 1.61912,-2.0239 -0.0808,0.48985 2.04518,-1.63615 0.34762,-0.34761 0.47047,-0.8795 0.81807,-1.22711 0.34762,-0.34761 0.81809,-0.54538 1.22712,-0.81808 1.46993,-0.97995 3.91707,-2.19428 4.90844,-3.68133 0.33824,-0.50734 0.47985,-1.1288 0.81807,-1.63614 0.42784,-0.64175 1.23933,-0.97478 1.63615,-1.63615 0.22184,-0.36972 0.18721,-0.85739 0.40904,-1.22711 0.51183,-0.85305 2.22005,-2.05925 2.86326,-2.86326 0.19045,-0.23807 0.2261,-0.57417 0.40904,-0.81807 0.23138,-0.30851 0.58669,-0.50956 0.81807,-0.81807 0.18292,-0.24391 0.23992,-0.56441 0.40903,-0.81808 0.37136,-0.55704 0.85576,-1.07911 1.22711,-1.63615 0.49847,-0.7477 0.68845,-1.736 1.22712,-2.45422 0.34708,-0.46277 0.90623,-0.74579 1.22711,-1.22711 0.16911,-0.25368 0.23991,-0.56439 0.40903,-0.81807 0.21392,-0.32088 0.60416,-0.4972 0.81807,-0.81807 0.33824,-0.50735 0.67019,-1.04461 0.81808,-1.63615 0.19842,-0.38461 -0.0992,-0.83029 0,-1.22711 1.03319,-4.13275 -0.1477,0.2954 0.81808,-1.63615 0.18292,-0.36586 -0.0992,-0.83029 0,-1.22711 0.0739,-0.29577 0.33508,-0.52229 0.40903,-0.81807 0.16041,-0.64163 -0.1604,-1.40356 0,-2.04519 0.10457,-0.41829 0.30446,-0.80882 0.40904,-1.22711 0.15223,-0.60892 0,-1.40548 0,-2.04519 0,-0.73581 0.0534,-2.53288 -0.40904,-2.86325 -0.34985,-2.56097 -2.0096,0.42683 -2.86326,0 -0.23816,-0.11908 -1.39798,-1.10803 -1.63614,-1.22712 -0.12195,-0.061 -0.31263,0.0964 -0.40904,0 -0.54539,-0.54537 0.68172,-0.40903 -0.40904,-0.40903"
       id="path3035"
       inkscape:connector-curvature="0"
       inkscape:export-filename="/Users/christian/Documents/Informatik/Autorennen/autorennen/img/numbers.png"
       inkscape:export-xdpi="8.9988985"
       inkscape:export-ydpi="8.9988985" />
    <path
       style="fill:none;stroke:#000000;stroke-width:3.75;stroke-linecap:butt;stroke-linejoin:miter;stroke-opacity:1;stroke-miterlimit:4;stroke-dasharray:none"
       d="m 968.34372,320.15284 c -3.59851,0 -7.19701,0 -10.79552,0 -2.35527,0 -3.21318,-0.12214 -5.61367,0.43182 -0.88704,0.2047 -1.71896,0.60205 -2.59092,0.86364 -1.70133,0.5104 -2.19235,0.35433 -3.88639,1.29547 -2.07171,1.15094 -1.20779,1.00649 -2.59093,2.1591 -0.55289,0.46074 -1.21838,0.78656 -1.72728,1.29546 -0.36698,0.36698 -0.5314,0.89677 -0.86365,1.29547 -3.78471,3.78471 0.84688,-1.01625 -2.1591,2.59092 -0.39095,0.46914 -0.89803,0.8318 -1.29546,1.29547 -0.98741,1.15197 -1.50942,2.15518 -2.15911,3.45456 -0.14393,0.28788 -0.37891,0.54616 -0.43182,0.86364 -0.14198,0.85189 0,1.72729 0,2.59093 0,1.00758 -0.24438,2.04525 0,3.02275 0.49351,1.97404 2.36676,3.55013 3.45457,5.18185 0.82231,1.23346 1.51512,2.81058 2.59092,3.88639 0.36698,0.36697 0.89678,0.53139 1.29547,0.86364 0.46914,0.39095 0.79853,0.9405 1.29546,1.29546 2.09861,1.49901 4.91153,1.98357 7.34096,2.59092 0.44158,0.1104 0.8438,0.37537 1.29546,0.43183 1.70452,0.21306 4.2865,0 6.04549,0 1.15153,0 2.30305,0 3.45457,0 0.86364,0 1.74406,0.16937 2.59092,0 1.05897,-0.2118 2.08643,-0.82731 3.02275,-1.29547 1.14228,-0.57114 1.14374,-0.45807 2.15911,-1.72728 0.20106,-0.25133 0.26622,-0.58765 0.43182,-0.86364 0.26701,-0.44503 0.63154,-0.83127 0.86364,-1.29546 0.46298,-0.92597 0.66655,-2.56766 0.86364,-3.45457 0.25749,-1.1587 0.6685,-2.28376 0.86364,-3.45457 0.0474,-0.28396 -0.0565,-0.58135 0,-0.86364 0.0892,-0.44634 0.35699,-0.84648 0.43182,-1.29546 0.23342,-1.4005 -0.23341,-2.91771 0,-4.31821 0.56837,-3.41025 0.43183,0.77734 0.43183,-2.59093 0,-2.8788 0,-5.75761 0,-8.63642 0,-0.27079 0.0534,-1.67394 0,-1.72728 -0.10179,-0.10178 -0.36746,0.12874 -0.43183,0 -0.12875,-0.25749 0.091,-0.59053 0,-0.86364 -0.0644,-0.19312 -0.34079,-0.24975 -0.43182,-0.43182 -0.0644,-0.12875 0,-0.57576 0,-0.43182 0,3.74244 0,7.48489 0,11.22734 0,2.1885 0.21692,4.73994 0,6.90913 -0.073,0.73032 -0.35077,1.42964 -0.43182,2.15911 -0.0636,0.57224 0.0636,1.15504 0,1.72728 -0.0811,0.72947 -0.35077,1.42964 -0.43182,2.15911 -0.12716,1.14448 0.11458,2.30876 0,3.45456 -0.52747,5.27472 -0.28108,0.0895 -0.86364,4.75003 -0.0536,0.42849 0.0536,0.86698 0,1.29547 -0.091,0.72828 -0.3588,1.42879 -0.43182,2.1591 -0.0716,0.71613 0.0652,1.44236 0,2.15911 -0.0793,0.87196 -0.35256,1.71896 -0.43182,2.59092 -0.0652,0.71675 0.0598,1.44189 0,2.15911 -0.0845,1.01429 -0.29731,2.01386 -0.43182,3.02274 -0.40428,3.03201 -0.79252,6.05057 -1.29547,9.06824 -0.60134,3.60804 -1.07988,7.28808 -2.1591,10.79552 -0.57889,1.88138 -1.31842,2.92854 -2.15911,4.75003 -1.34156,2.90672 -1.03089,3.12386 -3.02275,5.61368 -0.89014,1.11268 -2.19451,1.86322 -3.02274,3.02274 -0.37415,0.52382 -0.40847,1.27211 -0.86365,1.72729 -0.32185,0.32186 -0.87283,0.26277 -1.29546,0.43182 -2.09329,0.83731 0.72689,0.17057 -3.02274,1.29546 -1.89328,0.56798 -3.66924,0.43182 -5.61367,0.43182 -0.92327,0 -5.35742,0.19659 -6.0455,0 -0.49901,-0.14258 -0.81359,-0.6709 -1.29546,-0.86364 -0.26728,-0.10692 -0.60615,0.12874 -0.86364,0 -0.36414,-0.18207 -0.53794,-0.61937 -0.86364,-0.86364 -0.25749,-0.19312 -0.63605,-0.20424 -0.86365,-0.43182 -0.22758,-0.22759 -0.25328,-0.59584 -0.43182,-0.86365 -0.43555,-0.65333 -1.26014,-1.10443 -1.72728,-1.72728 -0.19312,-0.25749 -0.20423,-0.63605 -0.43182,-0.86364 -1.57166,-1.57167 -0.30341,0.45909 -1.29547,-0.86364 -0.31139,-0.41519 -0.55225,-0.88028 -0.86364,-1.29547 -0.24427,-0.3257 -0.6378,-0.52489 -0.86364,-0.86364 -0.17853,-0.2678 -0.25328,-0.59584 -0.43182,-0.86364 -0.11291,-0.16937 -0.3189,-0.26245 -0.43182,-0.43182 -0.53913,-0.80869 -0.32451,-1.35041 -0.86363,-2.15911 -0.11293,-0.16937 -0.3408,-0.24974 -0.43183,-0.43182 -0.12875,-0.25749 0.12874,-0.60615 0,-0.86364 -0.091,-0.18207 -0.36745,-0.2387 -0.43182,-0.43182 -0.13823,-0.41469 0.20722,-1.31284 0,-1.72728 -0.091,-0.18207 -0.34079,-0.24975 -0.43182,-0.43182 -0.0728,-0.1456 0.24207,-3.50689 -0.43182,-2.15911 -0.12875,0.25749 0,0.57576 0,0.86364 0,1.68559 0.27252,1.97677 0.86364,3.45457 0.49764,1.2441 0.90518,2.79026 1.72728,3.88639 0.48856,0.6514 1.15153,1.15152 1.72728,1.72728 0.28789,0.28788 0.53795,0.61937 0.86364,0.86364 0.25749,0.19312 0.59585,0.25329 0.86365,0.43183 0.94018,0.62678 1.19348,1.94717 2.1591,2.59092 0.26781,0.17854 0.59585,0.25329 0.86364,0.43182 0.16938,0.11292 0.24976,0.34079 0.43183,0.43182 0.40713,0.20356 0.88834,0.22826 1.29546,0.43182 0.18207,0.091 0.24975,0.34079 0.43182,0.43182 0.12875,0.0644 0.31206,-0.0798 0.43182,0 0.33875,0.22584 0.4995,0.68157 0.86364,0.86365 0.25749,0.12874 0.58436,-0.0698 0.86364,0 0.31225,0.0781 0.54803,0.3687 0.86365,0.43182 1.09449,0.2189 4.03215,0 5.18185,0 2.8788,0 5.75761,0 8.63641,0 1.3538,0 2.97043,0.19254 4.31821,0 0.94889,-0.13556 2.09995,-0.55605 3.02275,-0.86364 0.25296,-0.0843 1.84141,-0.54595 2.15911,-0.86365 1.61998,-1.61998 0.2732,-0.79609 1.29546,-2.1591 0.24427,-0.3257 0.65418,-0.51454 0.86364,-0.86364 0.23419,-0.39032 0.25251,-0.87709 0.43182,-1.29547 0.25358,-0.59167 0.70752,-1.10278 0.86364,-1.72728 0.13964,-0.55857 -0.0636,-1.15504 0,-1.72728 0.0811,-0.72947 0.35077,-1.42964 0.43183,-2.15911 0.0636,-0.57224 -0.0815,-1.15731 0,-1.72728 -0.14998,-0.8786 0.71161,-1.39902 0.86364,-2.15911 0.0847,-0.42343 -0.071,-0.86951 0,-1.29546 0.0748,-0.44898 0.35698,-0.84648 0.43182,-1.29546 0.071,-0.42595 -0.0536,-0.86698 0,-1.29546 0.091,-0.72829 0.34078,-1.43082 0.43182,-2.15911 0.0536,-0.42848 -0.0536,-0.86697 0,-1.29546 0.41402,-3.31218 0.22992,-1.04494 1.29546,-3.88639 0.33247,-0.88658 0.65845,-3.0656 0.86365,-3.88639 0.36447,-1.45791 0.96945,-2.85121 1.29546,-4.31821 0.18993,-0.8547 0.26011,-1.73237 0.43182,-2.59092 0.11639,-0.58196 0.36628,-1.13743 0.43182,-1.72729 0.0795,-0.71529 -0.0652,-1.44235 0,-2.1591 0.19097,-2.10079 1.00149,-3.98772 1.29546,-6.04549 0.21968,-1.53775 0,-4.02083 0,-5.61367 0,-2.73487 0,-5.46974 0,-8.2046 0,-1.30875 0.21229,-3.90813 0,-5.18185 -0.0748,-0.44899 -0.34256,-0.84912 -0.43182,-1.29546 -0.0565,-0.2823 0.0699,-0.58436 0,-0.86365 -0.078,-0.31225 -0.35376,-0.55139 -0.43182,-0.86364 -0.0699,-0.27928 0.0565,-0.58135 0,-0.86364 -0.0792,-0.39585 -0.54959,-1.74037 -0.86364,-2.1591 -0.24427,-0.3257 -0.61937,-0.53795 -0.86364,-0.86365 -0.19312,-0.25748 -0.23871,-0.60615 -0.43182,-0.86364 -0.24428,-0.3257 -0.61937,-0.53794 -0.86365,-0.86364 -0.19311,-0.25749 -0.2387,-0.60615 -0.43182,-0.86364 -0.96728,-1.28971 -2.48729,-2.16486 -3.45457,-3.45457 -0.19311,-0.25749 -0.20423,-0.63605 -0.43182,-0.86364 -0.22759,-0.22759 -0.59583,-0.25329 -0.86364,-0.43182 -0.33875,-0.22583 -0.4995,-0.68157 -0.86364,-0.86364 -0.40713,-0.20357 -0.88834,-0.22826 -1.29546,-0.43182 -0.18208,-0.091 -0.26245,-0.31891 -0.43183,-0.43183 -0.2678,-0.17853 -0.59583,-0.25328 -0.86364,-0.43182 -0.16937,-0.11291 -0.26244,-0.3189 -0.43182,-0.43182 -0.4935,-0.329 -1.65751,-0.76332 -2.1591,-0.86364 -0.70573,-0.14114 -1.4394,0 -2.15911,0 -1.57621,0 -3.2515,-0.2104 -4.75003,0.43182 -1.31885,0.56523 -1.17586,0.90792 -2.1591,1.72729 -0.8564,0.92824 -2.05586,1.38559 -3.02274,2.1591 -0.31792,0.25433 -0.54574,0.60931 -0.86365,0.86364 -0.40526,0.32421 -0.8902,0.53944 -1.29546,0.86364 -0.31792,0.25433 -0.53794,0.61937 -0.86364,0.86365 -0.25749,0.19311 -0.60615,0.2387 -0.86364,0.43182 -1.4526,1.08944 -2.31208,2.94721 -3.45457,4.31821 -1.00412,1.20493 -0.92655,0.55763 -1.72729,2.1591 -0.20356,0.40712 -0.26276,0.87284 -0.43182,1.29546 -0.11954,0.29884 -0.35375,0.55139 -0.43182,0.86364 -0.22014,0.88058 0,3.64891 0,4.75003 0,1.18342 -0.24637,3.76453 0,4.75003 0.23062,0.92248 1.97327,2.6825 2.59093,3.45457 0.3242,0.40526 0.49666,0.92849 0.86364,1.29546 0.30894,0.30894 2.45064,1.83219 3.02275,2.15911 0.5589,0.31937 1.20346,0.48949 1.72728,0.86364 0.49693,0.35495 0.82631,0.90451 1.29546,1.29546 1.11188,0.92656 2.158,1.20866 3.45457,1.72729 0.29884,0.11953 0.54616,0.3789 0.86365,0.43182 0.99386,0.16564 2.01516,0 3.02273,0 1.33266,0 3.03028,0.21465 4.31821,0 0.89798,-0.14966 1.69825,-0.68511 2.59093,-0.86364 0.28229,-0.0565 0.57968,0.0473 0.86364,0 1.61993,-0.26999 1.58528,-0.45294 3.02275,-0.86365 3.79553,-1.08443 -0.0833,0.17172 3.02275,-0.86364 0.86364,-0.28788 1.69824,-0.6851 2.59092,-0.86364 0.99482,-0.19896 1.00693,0.28853 1.72729,-0.43182"
       id="path3037"
       inkscape:connector-curvature="0"
       inkscape:export-filename="/Users/christian/Documents/Informatik/Autorennen/autorennen/img/numbers.png"
       inkscape:export-xdpi="8.9988985"
       inkscape:export-ydpi="8.9988985" />
    <rect
       style="opacity:0.12916667;fill:none;stroke:none"
       id="rect3039"
       width="1000.1224"
       height="104.1428"
       x="-2.2140156e-09"
       y="0.1545794"
       transform="translate(0,308.2677)"
       inkscape:export-xdpi="8.9988985"
       inkscape:export-ydpi="8.9988985"
       inkscape:export-filename="/Users/christian/Documents/Informatik/Autorennen/autorennen/img/numbers.png" />
  </g>
</svg>
