<?xml version="1.0" encoding="UTF-8" standalone="no"?>
<!-- Created with Inkscape (http://www.inkscape.org/) -->

<svg
   xmlns:dc="http://purl.org/dc/elements/1.1/"
   xmlns:cc="http://creativecommons.org/ns#"
   xmlns:rdf="http://www.w3.org/1999/02/22-rdf-syntax-ns#"
   xmlns:svg="http://www.w3.org/2000/svg"
   xmlns="http://www.w3.org/2000/svg"
   xmlns:sodipodi="http://sodipodi.sourceforge.net/DTD/sodipodi-0.dtd"
   xmlns:inkscape="http://www.inkscape.org/namespaces/inkscape"
   width="1000"
   height="600"
   id="svg2"
   version="1.1"
   inkscape:version="0.48.5 r10040"
   sodipodi:docname="instruction_building_2.svg">
  <defs
     id="defs4" />
  <sodipodi:namedview
     id="base"
     pagecolor="#ffffff"
     bordercolor="#666666"
     borderopacity="1.0"
     inkscape:pageopacity="0.0"
     inkscape:pageshadow="2"
     inkscape:zoom="1.2085977"
     inkscape:cx="497.47737"
     inkscape:cy="319.93"
     inkscape:document-units="px"
     inkscape:current-layer="layer1"
     showgrid="false"
     width="1052.36px"
     inkscape:window-width="1903"
     inkscape:window-height="982"
     inkscape:window-x="10"
     inkscape:window-y="1"
     inkscape:window-maximized="0" />
  <metadata
     id="metadata7">
    <rdf:RDF>
      <cc:Work
         rdf:about="">
        <dc:format>image/svg+xml</dc:format>
        <dc:type
           rdf:resource="http://purl.org/dc/dcmitype/StillImage" />
        <dc:title></dc:title>
      </cc:Work>
    </rdf:RDF>
  </metadata>
  <g
     inkscape:label="Layer 1"
     inkscape:groupmode="layer"
     id="layer1"
     transform="translate(0,-452.36218)">
    <path
       style="fill:none;stroke:#000000;stroke-width:2;stroke-linecap:butt;stroke-linejoin:miter;stroke-miterlimit:4;stroke-opacity:1;stroke-dasharray:none"
       d="m 76.212553,788.94557 c 0.985007,-0.44594 1.752127,-1.18697 2.713432,-1.6959 0.492052,-0.26049 1.054178,-0.38327 1.526305,-0.67835 0.441959,-0.27623 0.791418,-0.67836 1.187126,-1.01754 0.395709,-0.33918 0.791418,-0.67836 1.187127,-1.01754 4.146593,-3.55422 -1.653816,1.35697 2.374252,-1.86548 1.62673,-1.30138 1.150682,-1.2331 3.052611,-2.37425 1.08391,-0.65035 2.28209,-1.09061 3.391789,-1.6959 1.960753,-1.0695 2.188824,-1.38677 4.239737,-2.37425 0.775796,-0.37353 1.598458,-0.64401 2.374253,-1.01754 1.504047,-0.72417 2.950095,-1.56356 4.409325,-2.37425 0.79681,-0.44267 1.59264,-0.88775 2.37426,-1.35672 0.9146,-0.54876 1.75943,-1.21889 2.71343,-1.69589 0.97651,-0.48826 2.0587,-0.73535 3.05261,-1.18713 0.87487,-0.39767 1.67878,-0.93814 2.54384,-1.35671 0.88869,-0.43001 1.81256,-0.78329 2.71343,-1.18713 0.73857,-0.33108 1.4479,-0.73049 2.20467,-1.01754 0.88601,-0.33607 1.80941,-0.56382 2.71343,-0.84794 4.37853,-1.37611 2.05951,-0.785 6.61399,-1.6959 1.13059,-0.22612 2.24514,-0.55766 3.39179,-0.67836 1.01194,-0.10652 2.03546,0.0283 3.05261,0 1.737,-0.0482 4.17894,-0.33428 5.93563,-0.16959 0.86096,0.0807 1.68886,0.37923 2.54384,0.50877 1.96895,0.29833 3.95868,0.43873 5.93563,0.67836 0.9049,0.10968 1.80325,0.28998 2.71344,0.33918 2.25789,0.12205 4.52238,0 6.78357,0 5.37034,0 10.74067,0 16.111,0 4.3528,0 8.7056,0 13.05839,0 1.58284,0 3.17242,0.14593 4.74851,0 1.49033,-0.13799 2.94168,-0.55442 4.40933,-0.84795 6.18671,-1.23734 2.07678,-0.423 8.64906,-2.03507 5.24977,-1.28768 3.53041,-0.66907 8.64906,-2.20467 1.42126,-0.42637 2.87275,-0.77954 4.23974,-1.35671 1.1887,-0.5019 2.24879,-1.26677 3.39179,-1.86549 11.51419,-6.03124 -4.5727,2.76963 7.63153,-4.40932 4.74782,-2.79284 4.60719,-2.16841 9.15783,-5.08769 1.57088,-1.00774 3.0792,-2.1113 4.57891,-3.2222 8.05865,-5.96936 1.18852,-1.11448 8.64907,-6.95316 3.09528,-2.4224 6.53011,-4.49505 9.32742,-7.29235 0.68071,-0.68071 1.20449,-1.50479 1.86548,-2.20467 1.38169,-1.46296 0.74363,-0.30013 1.18713,-1.18712"
       id="path3005"
       inkscape:connector-curvature="0"
       inkscape:export-filename="/Users/christian/Documents/Informatik/Autorennen/autorennen/img/instruction_building_2.png"
       inkscape:export-xdpi="89.938164"
       inkscape:export-ydpi="89.938164" />
    <path
       style="fill:none;stroke:#000000;stroke-width:1.10000002;stroke-linecap:butt;stroke-linejoin:miter;stroke-miterlimit:4;stroke-opacity:1;stroke-dasharray:none"
       d="m 85.879153,782.50117 c -0.754603,-0.078 -1.387651,0.13881 -2.035073,0.50877 -1.125578,0.64319 -1.017537,1.24253 -1.017537,2.37425 0,0.44777 -0.119452,0.97133 0.169589,1.35672 0.09593,0.12791 0.239296,0.21432 0.339179,0.33918 0.127326,0.15915 0.182599,0.37828 0.339179,0.50876 0.194213,0.16185 0.447338,0.23651 0.678358,0.33918 0.556369,0.24728 1.105228,0.53069 1.695895,0.67836 0.902204,0.22555 1.457253,0.16959 2.374252,0.16959 0.742335,0 2.917824,0.15219 3.561379,-0.16959 0.143011,-0.0715 0.206142,-0.25049 0.339179,-0.33918 0.21035,-0.14023 0.484145,-0.17733 0.678358,-0.33918 0.15658,-0.13048 0.22612,-0.33918 0.339179,-0.50877 0.11306,-0.16959 0.238055,-0.3318 0.339179,-0.50876 0.125429,-0.2195 0.269727,-0.43528 0.339179,-0.67836 0.04397,-0.15391 0.02875,-1.72176 0,-1.86549 -0.02479,-0.12395 -0.104555,-0.23078 -0.169589,-0.33918 -0.595802,-0.993 -1.074953,-1.03711 -1.865485,-1.69589 -0.184247,-0.15354 -0.300532,-0.38978 -0.508768,-0.50877 -0.47848,-0.27342 -1.172281,-0.16959 -1.695895,-0.16959 -0.961007,0 -1.922014,0 -2.883021,0 -0.169589,0 -0.339179,0 -0.508768,0 -0.16959,0 -0.421516,-0.14542 -0.508769,0 -0.145422,0.24237 0,0.5653 0,0.84795 z"
       id="path3007"
       inkscape:connector-curvature="0"
       inkscape:export-filename="/Users/christian/Documents/Informatik/Autorennen/autorennen/img/instruction_building_2.png"
       inkscape:export-xdpi="89.938164"
       inkscape:export-ydpi="89.938164" />
    <path
       style="fill:none;stroke:#000000;stroke-width:1.10000002;stroke-linecap:butt;stroke-linejoin:miter;stroke-miterlimit:4;stroke-opacity:1;stroke-dasharray:none"
       d="m 97.920006,767.23812 c -1.024989,-0.0248 -2.075336,-0.0273 -3.052611,0.33918 -1.275111,0.47816 -0.957487,1.14005 -1.356715,2.20466 -0.08877,0.23671 -0.277864,0.4331 -0.339179,0.67836 -0.177146,0.70858 0.151197,2.35586 0.678358,2.88302 0.820153,0.82015 0.410981,0.29028 1.187126,0.67836 1.130856,0.56542 0.618388,0.61183 2.035074,0.84794 0.613367,0.10223 1.243656,0 1.865484,0 0.395709,0 0.806643,0.10871 1.187127,0 0.19598,-0.056 0.32143,-0.25889 0.50877,-0.33918 0.52334,-0.22428 0.7929,-0.0357 1.18712,-0.50876 0.52355,-0.62826 0.5945,-1.60268 0.50877,-2.37426 -0.0318,-0.28648 -0.13384,-0.56192 -0.16959,-0.84794 -0.021,-0.16828 0.0187,-0.34022 0,-0.50877 -0.038,-0.34176 -0.13846,-0.67509 -0.16959,-1.01754 -0.10449,-1.1494 0.3584,-1.25751 -0.67835,-2.03507 -0.22521,-0.16891 -1.898848,-0.65359 -2.035078,-0.67836 -0.27809,-0.0506 -0.567027,0.0312 -0.847948,0 -0.231652,-0.0257 -0.445279,-0.16959 -0.678357,-0.16959 -0.836843,0 -1.072759,0.67836 -2.035074,0.67836"
       id="path3009"
       inkscape:connector-curvature="0"
       inkscape:export-filename="/Users/christian/Documents/Informatik/Autorennen/autorennen/img/instruction_building_2.png"
       inkscape:export-xdpi="89.938164"
       inkscape:export-ydpi="89.938164" />
    <path
       style="fill:none;stroke:#000000;stroke-width:1.10000002;stroke-linecap:butt;stroke-linejoin:miter;stroke-miterlimit:4;stroke-opacity:1;stroke-dasharray:none"
       d="m 111.82635,768.08606 c -0.71393,0.43351 -1.51902,0.83824 -2.03508,1.52631 -0.31138,0.41517 -0.37266,1.04995 -0.50877,1.5263 -0.16178,0.56626 -0.31921,0.54869 0,1.18713 0.36692,0.73384 0.51851,0.68323 1.18713,1.01754 1.34217,0.67108 0.84187,0.52376 2.54384,0.84794 3.53474,0.67329 0.54598,0.12952 3.90056,0.33918 0.92092,0.0576 0.77497,0.39468 1.6959,0 0.14696,-0.063 0.22612,-0.22612 0.33917,-0.33918 0.62417,-0.62416 0.49856,-0.96647 0.67836,-1.86548 0.22751,-1.13755 0.45659,-2.21773 0.33918,-3.39179 -0.0232,-0.23192 -0.0403,-0.48442 -0.16959,-0.67836 -0.14141,-0.21212 -1.94489,-0.98042 -2.20466,-1.01753 -0.22385,-0.032 -0.45451,0.032 -0.67836,0 -0.35393,-0.0506 -0.6636,-0.28862 -1.01754,-0.33918 -0.22384,-0.032 -0.45223,0 -0.67835,0 -0.79142,0 -1.58284,0 -2.37426,0 -0.3957,0 -0.79141,0 -1.18712,0 -0.22612,0 -0.45663,-0.0444 -0.67836,0 -0.29106,0.0582 -0.16959,0.83594 -0.16959,1.01753"
       id="path3011"
       inkscape:connector-curvature="0"
       inkscape:export-filename="/Users/christian/Documents/Informatik/Autorennen/autorennen/img/instruction_building_2.png"
       inkscape:export-xdpi="89.938164"
       inkscape:export-ydpi="89.938164" />
    <path
       style="fill:none;stroke:#000000;stroke-width:1.10000002;stroke-linecap:butt;stroke-linejoin:miter;stroke-miterlimit:4;stroke-opacity:1;stroke-dasharray:none"
       d="m 126.91981,758.75864 c -0.67018,0.47726 -1.49691,0.44352 -2.20466,0.84795 -0.13883,0.0793 -0.20614,0.25049 -0.33918,0.33918 -0.21035,0.14023 -0.4996,0.16041 -0.67836,0.33918 -0.1264,0.1264 -0.0704,0.36003 -0.16959,0.50877 -0.13304,0.19955 -0.38978,0.30053 -0.50877,0.50876 -0.29395,0.51442 -0.10214,0.81715 -0.16959,1.35672 -0.0718,0.5747 -0.40541,1.29791 0,1.86548 0.16429,0.23001 0.46376,0.32483 0.67836,0.50877 1.09188,0.9359 -0.22942,0.23406 1.6959,0.67836 2.01202,0.46431 -0.0252,0.33918 2.20466,0.33918 0.62183,0 1.2499,0.0879 1.86548,0 0.17697,-0.0253 0.33348,-0.13453 0.50877,-0.16959 0.11087,-0.0222 0.24873,0.0678 0.33918,0 0.16306,-0.12229 0.2087,-0.35219 0.33918,-0.50877 0.15354,-0.18424 0.36937,-0.3136 0.50877,-0.50877 0.63974,-0.89563 0.50877,-2.02169 0.50877,-3.05261 0,-0.28265 0,-0.56529 0,-0.84794 0,-0.28265 0.0613,-0.57203 0,-0.84795 -0.0549,-0.24679 -0.2396,-0.44599 -0.33918,-0.67836 -0.0704,-0.16431 -0.0579,-0.36918 -0.16959,-0.50877 -0.12733,-0.15916 -0.36465,-0.19505 -0.50877,-0.33918 -0.0894,-0.0894 -0.0685,-0.26333 -0.16959,-0.33918 -0.36942,-0.27706 -0.77761,-0.12408 -1.18713,-0.16959 -0.28648,-0.0318 -0.56113,-0.1409 -0.84794,-0.16958 -0.28125,-0.0281 -0.57079,0.0554 -0.84795,0 -0.5305,-0.1061 -0.97143,-0.50877 -1.52631,-0.50877"
       id="path3013"
       inkscape:connector-curvature="0"
       inkscape:export-filename="/Users/christian/Documents/Informatik/Autorennen/autorennen/img/instruction_building_2.png"
       inkscape:export-xdpi="89.938164"
       inkscape:export-ydpi="89.938164" />
    <path
       style="fill:none;stroke:#000000;stroke-width:1.10000002;stroke-linecap:butt;stroke-linejoin:miter;stroke-miterlimit:4;stroke-opacity:1;stroke-dasharray:none"
       d="m 145.06588,756.04521 c -0.28264,0.0565 -0.583,0.056 -0.84794,0.16959 -0.0911,0.039 -0.95697,0.91659 -1.01754,1.01754 -0.092,0.15329 -0.0704,0.36003 -0.16959,0.50877 -0.13304,0.19955 -0.37573,0.30921 -0.50877,0.50876 -0.25793,0.38691 -0.24022,1.27212 -0.16959,1.6959 0.0432,0.25933 0.50286,1.06177 0.67836,1.18713 0.52097,0.37212 1.11245,0.34964 1.6959,0.50876 0.34492,0.0941 0.66695,0.26907 1.01753,0.33918 0.22173,0.0444 0.45362,-0.025 0.67836,0 0.28648,0.0318 0.56193,0.13384 0.84795,0.16959 0.63233,0.079 1.85782,0.005 2.37425,-0.33918 0.19956,-0.13303 0.35523,-0.32452 0.50877,-0.50877 0.63728,-0.76474 0.43609,-1.42948 0.50877,-2.37425 0.0264,-0.34284 0.16959,-0.67368 0.16959,-1.01753 0,-0.28825 -0.0937,-0.56986 -0.16959,-0.84795 -0.25888,-0.9492 -0.61566,-1.74934 -1.52631,-2.20467 -0.11306,-0.0565 -0.21523,-0.14479 -0.33918,-0.16958 -0.33259,-0.0665 -0.67836,0 -1.01753,0 -0.51497,0 -1.86549,0.15147 -1.86549,0.84794"
       id="path3015"
       inkscape:connector-curvature="0"
       inkscape:export-filename="/Users/christian/Documents/Informatik/Autorennen/autorennen/img/instruction_building_2.png"
       inkscape:export-xdpi="89.938164"
       inkscape:export-ydpi="89.938164" />
    <path
       style="fill:none;stroke:#000000;stroke-width:1.10000002;stroke-linecap:butt;stroke-linejoin:miter;stroke-miterlimit:4;stroke-opacity:1;stroke-dasharray:none"
       d="m 155.24125,763.16797 c -0.33918,0.11306 -0.70711,0.1618 -1.01753,0.33918 -0.39603,0.2263 -0.33918,1.61628 -0.33918,2.03507 0,0.22612 -0.0621,0.46094 0,0.67836 0.056,0.19598 0.22071,0.34291 0.33918,0.50877 0.72798,1.01917 1.25577,1.22986 2.37425,1.69589 0.3974,0.16559 0.76616,0.41857 1.18712,0.50877 0.38693,0.0829 0.79279,-0.0329 1.18713,0 0.28725,0.0239 0.56146,0.13776 0.84795,0.16959 0.22473,0.025 0.45224,0 0.67836,0 0.28265,0 0.5798,0.0894 0.84794,0 0.68783,-0.22928 0.98416,-0.9174 1.18713,-1.5263 0.0565,-0.16959 0.0992,-0.34446 0.16959,-0.50877 0.0996,-0.23237 0.26973,-0.43528 0.33918,-0.67836 0.0466,-0.16307 0,-0.33918 0,-0.50877 0,-0.22612 0.0621,-0.46094 0,-0.67836 -0.08,-0.27991 -0.94523,-1.21157 -1.18713,-1.35671 -0.7603,-0.45618 -0.24401,0.0514 -1.01753,-0.16959 -0.86494,-0.24713 -0.41966,-0.38086 -1.18713,-0.50877 -0.16728,-0.0279 -0.34088,0.024 -0.50877,0 -0.23074,-0.033 -0.44762,-0.13663 -0.67836,-0.16959 -0.37548,-0.0536 -0.80311,0 -1.18712,0"
       id="path3017"
       inkscape:connector-curvature="0"
       inkscape:export-filename="/Users/christian/Documents/Informatik/Autorennen/autorennen/img/instruction_building_2.png"
       inkscape:export-xdpi="89.938164"
       inkscape:export-ydpi="89.938164" />
    <path
       style="fill:none;stroke:#000000;stroke-width:1.10000002;stroke-linecap:butt;stroke-linejoin:miter;stroke-miterlimit:4;stroke-opacity:1;stroke-dasharray:none"
       d="m 171.86102,755.70603 c -1.06249,-0.0909 -1.05791,0.19785 -1.5263,1.01754 -0.10113,0.17697 -0.29497,0.3098 -0.33918,0.50877 -0.0736,0.3311 0.0282,0.67953 0,1.01753 -0.24394,2.92725 -0.16959,-1.25126 -0.16959,2.37426 0,0.33918 -0.0975,0.69266 0,1.01753 0.0812,0.27073 0.35896,0.43868 0.50877,0.67836 0.13398,0.21438 0.16041,0.4996 0.33918,0.67836 0.17876,0.17876 0.44733,0.2365 0.67835,0.33918 1.16266,0.51673 1.76388,0.50877 3.05261,0.50877 1.01754,0 2.03508,0 3.05261,0 0.28265,0 0.57203,0.0613 0.84795,0 0.83023,-0.1845 0.7486,-0.55961 1.01754,-1.18713 0.0996,-0.23237 0.26653,-0.43621 0.33918,-0.67836 0.14214,-0.47381 0.29754,-2.41384 0.16959,-2.88302 -0.0867,-0.31801 -0.34869,-0.5598 -0.50877,-0.84795 -0.12278,-0.22099 -0.1875,-0.47611 -0.33918,-0.67835 -0.66904,-0.89205 -0.54103,-0.50774 -1.35672,-1.01754 -0.23968,-0.1498 -0.43295,-0.36854 -0.67835,-0.50877 -0.15521,-0.0887 -0.34888,-0.0896 -0.50877,-0.16959 -0.45221,-0.2261 -0.73493,-0.62184 -1.18713,-0.84795 -0.20847,-0.10423 -0.44762,-0.13662 -0.67836,-0.16959 -0.19283,-0.0275 -2.02547,-0.008 -2.03507,0 -0.27807,0.23173 -0.45224,0.5653 -0.67836,0.84795 z"
       id="path3019"
       inkscape:connector-curvature="0"
       inkscape:export-filename="/Users/christian/Documents/Informatik/Autorennen/autorennen/img/instruction_building_2.png"
       inkscape:export-xdpi="89.938164"
       inkscape:export-ydpi="89.938164" />
    <path
       style="fill:none;stroke:#000000;stroke-width:1.10000002;stroke-linecap:butt;stroke-linejoin:miter;stroke-miterlimit:4;stroke-opacity:1;stroke-dasharray:none"
       d="m 195.77314,761.64166 c -0.36656,0.18328 -1.25252,0.60458 -1.52631,0.84795 -0.27054,0.24048 -0.42241,0.592 -0.67836,0.84795 -0.25595,0.25595 -0.59199,0.42241 -0.84794,0.67836 -0.51454,0.51454 -1.03521,1.69062 -1.18713,2.37425 -0.0368,0.16555 0.024,0.34088 0,0.50877 -0.033,0.23073 -0.16959,0.44528 -0.16959,0.67836 0,0.19685 0.44254,1.12917 0.50877,1.18712 0.64451,0.56395 1.8007,0.67101 2.54384,0.84795 2.184,0.52 1.74664,0.57066 3.90056,0.67836 0.50813,0.0254 1.01754,0 1.5263,0 0.22166,0 0.83897,0.0536 1.01754,-0.16959 0.1456,-0.18201 0.11306,-0.45224 0.16959,-0.67836 0.0565,-0.22612 0.1279,-0.44904 0.16959,-0.67836 0.1991,-1.09502 0.16959,-2.115 0.16959,-3.2222 0,-0.39571 0.0829,-0.8002 0,-1.18712 -0.0714,-0.33328 -0.88959,-2.17193 -1.18713,-2.54385 -0.29182,-0.36478 -0.96281,-0.2604 -1.35671,-0.33918 -0.17529,-0.035 -0.3318,-0.1443 -0.50877,-0.16959 -0.22385,-0.032 -0.45224,0 -0.67836,0 -0.16959,0 -0.34247,-0.0332 -0.50877,0 -0.89736,0.17948 0.29479,0.33918 -1.35671,0.33918 z"
       id="path3021"
       inkscape:connector-curvature="0"
       inkscape:export-filename="/Users/christian/Documents/Informatik/Autorennen/autorennen/img/instruction_building_2.png"
       inkscape:export-xdpi="89.938164"
       inkscape:export-ydpi="89.938164" />
    <path
       style="fill:none;stroke:#000000;stroke-width:1.10000002;stroke-linecap:butt;stroke-linejoin:miter;stroke-miterlimit:4;stroke-opacity:1;stroke-dasharray:none"
       d="m 210.18824,749.93999 c -0.78511,1.36075 -1.01753,2.18422 -1.01753,3.73097 0,0.62134 -0.0554,1.09584 0.16959,1.69589 0.12395,0.33055 0.60485,0.80917 0.84794,1.01754 0.21461,0.18395 0.42555,0.38236 0.67836,0.50877 0.74012,0.37006 2.09829,0.33918 2.88302,0.33918 0.16959,0 0.34424,0.0411 0.50877,0 0.32389,-0.081 1.07223,-0.39388 1.35672,-0.67836 0.5282,-0.5282 1.11516,-1.82419 1.18712,-2.54384 0.0731,-0.73124 0,-1.46978 0,-2.20467 0,-0.63789 0.056,-1.75398 -0.16959,-2.37425 -0.0966,-0.26563 -0.32782,-0.46122 -0.50877,-0.67836 -0.96928,-1.16314 -2.53986,-1.01753 -3.90055,-1.01753 -0.91966,0 -1.19844,-0.15828 -1.86549,0.50877 -0.0565,0.0565 -0.14431,0.0937 -0.16959,0.16958 -0.0863,0.25898 0.10074,0.64139 0.16959,0.84795"
       id="path3023"
       inkscape:connector-curvature="0"
       inkscape:export-filename="/Users/christian/Documents/Informatik/Autorennen/autorennen/img/instruction_building_2.png"
       inkscape:export-xdpi="89.938164"
       inkscape:export-ydpi="89.938164" />
    <path
       style="fill:none;stroke:#000000;stroke-width:1.10000002;stroke-linecap:butt;stroke-linejoin:miter;stroke-miterlimit:4;stroke-opacity:1;stroke-dasharray:none"
       d="m 226.80801,751.4663 c -0.22612,0 -0.45899,-0.0549 -0.67836,0 -0.2266,0.0566 -1.43499,0.76968 -1.5263,0.84794 -0.15475,0.13265 -0.22612,0.33918 -0.33918,0.50877 -0.11306,0.16959 -0.28975,0.31103 -0.33918,0.50877 -0.10479,0.41915 0.0514,1.30203 0.16959,1.69589 0.1181,0.39368 0.89987,1.94933 1.18713,2.20467 0.28342,0.25193 0.68462,0.32718 1.01753,0.50877 0.28938,0.15784 0.5653,0.33917 0.84795,0.50876 0.48423,0.29054 1.1189,0.73255 1.6959,0.84795 0.27716,0.0554 0.56529,0 0.84794,0 1.02319,0 2.16516,-0.18002 2.88302,-1.01754 0.50706,-0.59156 0.24517,-0.82337 0.50877,-1.5263 0.0716,-0.19084 0.28975,-0.31103 0.33918,-0.50877 0.0686,-0.27421 -0.0351,-0.56748 0,-0.84795 0.0222,-0.17738 0.11306,-0.33918 0.16959,-0.50876 0.0565,-0.22612 0.14385,-0.44671 0.16959,-0.67836 0.0312,-0.28092 0,-0.5653 0,-0.84795 0,-0.28265 0.0686,-0.57374 0,-0.84795 -0.0494,-0.19773 -0.20653,-0.35401 -0.33918,-0.50877 -0.20811,-0.24279 -0.40718,-0.50887 -0.67836,-0.67835 -0.19765,-0.12354 -0.45224,-0.11306 -0.67835,-0.16959 -0.85777,-0.21445 -1.48186,-0.16959 -2.37426,-0.16959 -0.33918,0 -0.67836,0 -1.01753,0 -0.33918,0 -0.69878,-0.11591 -1.01754,0 -0.34018,0.1237 -0.5653,0.45224 -0.84795,0.67836 z"
       id="path3025"
       inkscape:connector-curvature="0"
       inkscape:export-filename="/Users/christian/Documents/Informatik/Autorennen/autorennen/img/instruction_building_2.png"
       inkscape:export-xdpi="89.938164"
       inkscape:export-ydpi="89.938164" />
    <path
       style="fill:none;stroke:#000000;stroke-width:1.10000002;stroke-linecap:butt;stroke-linejoin:miter;stroke-miterlimit:4;stroke-opacity:1;stroke-dasharray:none"
       d="m 240.54476,738.23832 c -0.39571,0.0565 -0.79284,0.10387 -1.18713,0.16959 -0.683,0.11383 -1.64803,0.32052 -2.20466,0.67835 -0.40349,0.25939 -0.66507,0.69219 -1.01754,1.01754 -0.38296,0.35351 -0.83654,0.6319 -1.18712,1.01754 -0.89682,0.98649 -0.88443,2.48912 -0.16959,3.56138 0.20078,0.30117 0.38182,0.64037 0.67835,0.84794 0.2929,0.20503 0.67069,0.25247 1.01754,0.33918 0.82388,0.20597 2.79675,0.34756 3.56138,0 0.29112,-0.13232 0.43935,-0.4659 0.67836,-0.67836 0.27054,-0.24047 0.60747,-0.40782 0.84795,-0.67835 0.45608,-0.5131 0.57965,-1.09224 0.84794,-1.6959 0.51802,-1.16553 0.84795,-1.73238 0.84795,-3.05261 0,-0.60298 0.10112,-0.84303 -0.33918,-1.35671 -0.35245,-0.4112 -1.67273,-1.25033 -2.20466,-1.35672 -0.27716,-0.0554 -0.5653,0 -0.84795,0 -0.87745,0 -1.86548,0.33551 -1.86548,1.35672"
       id="path3027"
       inkscape:connector-curvature="0"
       inkscape:export-filename="/Users/christian/Documents/Informatik/Autorennen/autorennen/img/instruction_building_2.png"
       inkscape:export-xdpi="89.938164"
       inkscape:export-ydpi="89.938164" />
    <path
       style="fill:none;stroke:#000000;stroke-width:1.10000002;stroke-linecap:butt;stroke-linejoin:miter;stroke-miterlimit:4;stroke-opacity:1;stroke-dasharray:none"
       d="m 252.92479,731.28515 c -0.54487,0.58274 -1.40491,0.46985 -2.03507,0.84795 -0.27421,0.16452 -0.45224,0.45223 -0.67836,0.67835 -0.89462,0.89462 -0.97827,1.12109 -1.18713,2.37426 -0.0565,0.33917 -0.14321,0.67469 -0.16959,1.01753 -0.0303,0.39455 0,0.79142 0,1.18713 0,0.28265 -0.0686,0.57374 0,0.84795 0.0494,0.19773 0.20654,0.35401 0.33918,0.50876 0.20811,0.2428 0.40415,0.51384 0.67836,0.67836 0.30658,0.18395 0.67582,0.23404 1.01754,0.33918 1.45795,0.4486 1.41165,0.43333 3.2222,0.50877 0.63476,0.0265 3.14817,0.0908 3.90055,-0.33918 0.69228,-0.39559 0.67836,-1.01201 0.67836,-1.69589 0,-0.28265 -0.0281,-0.5667 0,-0.84795 0.0287,-0.28682 0.16959,-0.5597 0.16959,-0.84795 0,-0.23308 -0.11903,-0.45083 -0.16959,-0.67836 -0.0625,-0.28138 -0.0407,-0.59013 -0.16959,-0.84794 -0.10725,-0.21452 -0.33918,-0.33918 -0.50877,-0.50877 -0.52591,-0.52592 -0.73392,-0.79789 -1.35671,-1.18713 -0.21438,-0.13399 -0.46801,-0.19894 -0.67836,-0.33918 -0.39911,-0.26607 -0.62721,-0.73873 -1.01754,-1.01753 -0.27964,-0.19975 -1.81596,-0.60533 -2.03507,-0.67836 z"
       id="path3029"
       inkscape:connector-curvature="0"
       inkscape:export-filename="/Users/christian/Documents/Informatik/Autorennen/autorennen/img/instruction_building_2.png"
       inkscape:export-xdpi="89.938164"
       inkscape:export-ydpi="89.938164" />
    <path
       style="fill:#6b6b6b;fill-opacity:1;stroke:#000000;stroke-width:2;stroke-linecap:butt;stroke-linejoin:miter;stroke-miterlimit:4;stroke-opacity:1;stroke-dasharray:none"
       d="m 263.26975,724.67116 c -0.2605,0.58059 0.36136,0.55312 0.50877,0.84795 0.0901,0.18011 -0.0499,0.4788 0,0.67835 0.0434,0.17343 0.13453,0.33348 0.16959,0.50877 0.0326,0.16307 -0.0326,0.3457 0,0.50877 0.0457,0.22855 0.13662,0.44762 0.16959,0.67836 0.048,0.33577 -0.10726,0.69576 0,1.01753 0.0645,0.19337 0.26348,0.31953 0.33918,0.50877 0.11505,0.28765 -0.0755,0.71546 0,1.01754 0.0307,0.12263 0.11305,0.22612 0.16958,0.33918 0,0.16959 -0.0333,0.34247 0,0.50877 -0.10221,0.30694 0.27473,0.3154 0.33918,0.50877 0.11655,0.34964 -0.13262,1.02515 0,1.35671 0.0757,0.18925 0.27473,0.31541 0.33918,0.50877 0.45224,1.35672 -0.15074,0.0754 0,0.67836 0.0434,0.17342 0.13453,0.33348 0.16959,0.50877 0.0652,0.32613 -0.0652,0.6914 0,1.01753 0.0903,0.45171 0.36841,0.76606 0.50877,1.18713 0.0536,0.16089 -0.0411,0.34424 0,0.50877 0.0307,0.12263 0.12962,0.21926 0.16959,0.33918 0.0715,0.21451 -0.0715,0.46384 0,0.67836 0.0179,0.0536 0.12962,-0.04 0.16959,0 0.04,0.04 0,0.11305 0,0.16958 0,0.11306 0,0.22612 0,0.33918 0,0.39625 0.0666,0.26632 0.16959,0.67836 0.0411,0.16453 -0.0758,0.35708 0,0.50877 0.0912,0.1823 0.24803,0.32647 0.33918,0.50877 0.0678,0.13567 -0.0678,0.3731 0,0.50877 0.0358,0.0715 0.1502,0.092 0.16959,0.16959 0.0548,0.21936 -0.10113,0.47611 0,0.67835 0.25858,0.51718 0.13444,-0.31017 0.33918,0.50877 0.0274,0.10969 0,0.22612 0,0.33918 0.0565,0.11306 0.12961,0.21926 0.16959,0.33918 0.0179,0.0536 -0.0253,0.11903 0,0.16959 0.0358,0.0715 0.13383,0.0981 0.16959,0.16959 0.0253,0.0506 -0.0253,0.11903 0,0.16959 0.0358,0.0715 0.1443,0.0937 0.16958,0.16959 0.0751,0.22539 -0.10766,0.63262 0,0.84795 0.0358,0.0715 0.13384,0.0981 0.16959,0.16959 0.0506,0.10112 -0.0506,0.23805 0,0.33917 0.20957,0.41913 0.16959,-0.0585 0.16959,0.33918 0,0.0565 0,0.22612 0,0.16959 0,-0.11306 0,-0.45224 0,-0.33918 0,0.11397 -0.0682,1.05074 0,1.18713 0.0358,0.0715 0.13384,0.0981 0.16959,0.16959 0.0506,0.10112 -0.0506,0.23805 0,0.33918 0.0358,0.0715 0.13384,0.0981 0.16959,0.16959 0.0695,0.13891 -0.0259,0.54881 0,0.67836 0.0351,0.17529 0.13453,0.33347 0.16959,0.50876 0.0222,0.11087 -0.0358,0.23193 0,0.33918 0.0253,0.0759 0.13384,0.0981 0.16959,0.16959 0.0253,0.0506 -0.0253,0.11903 0,0.16959 0.0358,0.0715 0.13384,0.0981 0.16959,0.16959 0.0695,0.13891 -0.0259,0.54882 0,0.67836 0.0351,0.17529 0.13453,0.33348 0.16959,0.50877 0.0444,0.22173 -0.0548,0.45899 0,0.67836 0.0307,0.12263 0.13893,0.21654 0.16959,0.33917 0.0274,0.10969 -0.0358,0.23193 0,0.33918 0.17417,0.5225 0.96801,-0.12576 1.18713,-0.16959 0.16629,-0.0333 0.3513,0.063 0.50876,0 0.14846,-0.0594 0.21127,-0.24324 0.33918,-0.33917 0.10113,-0.0759 0.23401,-0.0995 0.33918,-0.16959 0.23518,-0.15679 0.45765,-0.3322 0.67836,-0.50877 0.12485,-0.0999 0.20614,-0.25049 0.33918,-0.33918 0.047,-0.0314 0.11903,0.0253 0.16959,0 0.0715,-0.0358 0.10307,-0.12525 0.16959,-0.16959 0.21035,-0.14023 0.47611,-0.18749 0.67836,-0.33918 0.12791,-0.0959 0.21126,-0.24324 0.33918,-0.33918 0.53529,-0.40147 0.21173,0.12745 0.84794,-0.50877 0.04,-0.04 -0.0253,-0.11903 0,-0.16959 0.0358,-0.0715 0.13384,-0.0981 0.16959,-0.16959 0.0253,-0.0506 -0.04,-0.12961 0,-0.16959 0.04,-0.04 0.11903,0.0253 0.16959,0 0.14301,-0.0715 0.19617,-0.26767 0.33918,-0.33917 0.0506,-0.0253 0.12962,0.04 0.16959,0 0.04,-0.04 -0.0253,-0.11903 0,-0.16959 0.0358,-0.0715 0.13384,-0.0981 0.16959,-0.16959 0.0253,-0.0506 -0.04,-0.12962 0,-0.16959 0.04,-0.04 0.12962,0.04 0.16959,0 0.04,-0.04 -0.0314,-0.12256 0,-0.16959 0.38472,-0.57708 1.0542,-0.88461 1.5263,-1.35672 0.11306,-0.11306 0.25049,-0.20614 0.33918,-0.33918 0.0701,-0.10517 0.0802,-0.24979 0.16959,-0.33918 0.04,-0.04 0.11903,0.0253 0.16959,0 0.14301,-0.0715 0.19617,-0.26767 0.33918,-0.33918 0.0506,-0.0253 0.11903,0.0253 0.16959,0 0.0715,-0.0358 0.0981,-0.13383 0.16959,-0.16958 0.49907,-0.24954 -0.22328,0.39286 0.33918,-0.16959 0.0565,-0.0565 0.13384,-0.0981 0.16959,-0.16959 0.0253,-0.0506 -0.04,-0.12962 0,-0.16959 0.04,-0.04 0.13823,-0.047 0.16959,0 0.0992,0.14874 0.0896,0.34887 0.16959,0.50877 0.0715,0.14301 0.26767,0.19616 0.33918,0.33917 0.0799,0.15989 0.0776,0.35548 0.16959,0.50877 -0.23298,0.85883 0.3957,0.16959 0.50876,0.33918 0.0565,0.16959 0.11306,0.33918 0.16959,0.50877 0.0565,0 0.12962,-0.04 0.16959,0 0.0799,0.08 -0.0627,0.24511 0,0.33918 0.0887,0.13304 0.22612,0.22612 0.33918,0.33918 0.11306,0.11306 0.20208,0.25691 0.33918,0.33918 0.15329,0.092 0.36576,0.0623 0.50877,0.16959 0.10297,0.20595 0.14495,0.37928 0.33918,0.50876 0.10517,0.0701 0.23805,0.0937 0.33918,0.16959 1.06504,0.79878 -0.53543,-0.15167 0.84794,0.67836 0.1084,0.065 0.23401,0.0995 0.33918,0.16959 0.13304,0.0887 0.19617,0.26768 0.33918,0.33918 0.0506,0.0253 0.11903,-0.0253 0.16959,0 0.0715,0.0357 0.0981,0.13384 0.16959,0.16959 0.0506,0.0253 0.12256,-0.0314 0.16959,0 0.13304,0.0887 0.20614,0.25049 0.33918,0.33918 0.047,0.0314 0.12255,-0.0314 0.16959,0 0.19955,0.13304 0.29425,0.40151 0.50877,0.50877 0.0506,0.0253 0.11903,-0.0253 0.16959,0 0.14301,0.0715 0.19617,0.26767 0.33918,0.33918 0.0506,0.0253 0.12961,-0.04 0.16959,0 0.04,0.04 -0.0506,0.1443 0,0.16959 0.10112,0.0506 0.23192,-0.0358 0.33917,0 0.0759,0.0253 0.10308,0.12524 0.16959,0.16959 0.15492,0.10327 0.41156,0.14475 0.50877,0.33917 0.0253,0.0506 -0.0253,0.11903 0,0.16959 0.12598,0.25195 0.40387,0.40781 0.67836,0.33918 0.12263,-0.0307 0.22182,-0.12264 0.33918,-0.16959 0.16598,-0.0664 0.35548,-0.0776 0.50877,-0.16959 0.1371,-0.0823 0.20614,-0.25048 0.33918,-0.33918 0.0941,-0.0627 0.27646,0.0941 0.33918,0 0.0992,-0.14874 0.0896,-0.34887 0.16959,-0.50876 0.0358,-0.0715 0.13383,-0.0981 0.16958,-0.16959 0.0253,-0.0506 -0.0506,-0.14431 0,-0.16959 0.10113,-0.0506 0.23193,0.0357 0.33918,0 0.36946,0.0634 0.0565,-0.28265 0.16959,-0.33918 0.10113,-0.0506 0.23192,0.0357 0.33918,0 0.0758,-0.0253 0.10307,-0.12525 0.16959,-0.16959 0.10518,-0.0701 0.26906,-0.0644 0.33918,-0.16959 0.0627,-0.0941 -0.0357,-0.23192 0,-0.33918 0.0253,-0.0758 0.12524,-0.10307 0.16959,-0.16959 0.57116,-0.85673 0.001,-0.004 0.16959,-0.50877 0.40947,-1.2284 -0.0489,0.26738 0.33918,-0.50877 0.0678,-0.13567 -0.0678,-0.37309 0,-0.50876 0.0357,-0.0715 0.13384,-0.0981 0.16959,-0.16959 0.0253,-0.0506 -0.04,-0.12962 0,-0.16959 0.04,-0.04 0.12961,0.04 0.16959,0 0.1264,-0.12641 -0.0897,-0.34888 -0.16959,-0.50877 -0.0565,-0.11306 -0.0802,-0.2498 -0.16959,-0.33918 -0.19986,-0.19986 -0.45525,-0.33524 -0.67836,-0.50877 -0.28572,-0.22223 -0.55521,-0.46546 -0.84795,-0.67836 -1.62903,-1.18475 -0.39529,-0.207 -1.86548,-1.18712 -0.23518,-0.15679 -0.43295,-0.36854 -0.67836,-0.50877 -0.15521,-0.0887 -0.34279,-0.1032 -0.50877,-0.16959 -0.11736,-0.0469 -0.21926,-0.12962 -0.33918,-0.16959 -0.0536,-0.0179 -0.11902,0.0253 -0.16959,0 -0.21799,-0.109 -0.46036,-0.39977 -0.67835,-0.50877 -0.0506,-0.0253 -0.12962,0.04 -0.16959,0 -0.0894,-0.0894 -0.0802,-0.2498 -0.16959,-0.33918 -0.04,-0.04 -0.12962,0.04 -0.16959,0 -0.04,-0.04 0,-0.11306 0,-0.16959 -0.11306,-0.11306 -0.20614,-0.25049 -0.33918,-0.33918 -0.047,-0.0314 -0.11903,0.0253 -0.16959,0 -0.0715,-0.0357 -0.10563,-0.12162 -0.16959,-0.16959 -0.96245,-0.72183 -0.20148,0.037 -0.67836,-0.67835 -0.20956,-0.31435 -0.16959,-0.0156 -0.16959,-0.33918 0,-0.16959 -0.0536,-0.34788 0,-0.50877 0.0253,-0.0758 0.13384,-0.0981 0.16959,-0.16959 0.0253,-0.0506 -0.0253,-0.11903 0,-0.16959 0.0715,-0.14301 0.26768,-0.19617 0.33918,-0.33918 0.0253,-0.0506 -0.0253,-0.11903 0,-0.16959 0.0357,-0.0715 0.12524,-0.10307 0.16959,-0.16959 0.0701,-0.10517 0.0995,-0.234 0.16959,-0.33918 0.0887,-0.13303 0.25049,-0.20614 0.33918,-0.33918 0.0701,-0.10517 0.0644,-0.26906 0.16959,-0.33917 0.80602,-0.53735 -0.14257,0.65133 0.67836,-0.16959 0.0894,-0.0894 0.0802,-0.2498 0.16959,-0.33918 0.04,-0.04 0.12961,0.04 0.16959,0 0.20655,-0.20656 0.0794,-0.3789 0.33917,-0.50877 0.0506,-0.0253 0.11306,0 0.16959,0 0.11306,-0.11306 0.20615,-0.25049 0.33918,-0.33918 0.047,-0.0314 0.12962,0.04 0.16959,0 0.04,-0.04 -0.0253,-0.11903 0,-0.16959 0.0358,-0.0715 0.12525,-0.10307 0.16959,-0.16959 0.0701,-0.10517 0.0802,-0.2498 0.16959,-0.33918 0.0894,-0.0894 0.2498,-0.0802 0.33918,-0.16959 0.04,-0.04 -0.0253,-0.11903 0,-0.16959 0.25859,-0.51717 0.13444,0.31017 0.33918,-0.50877 0.0274,-0.10968 -0.0506,-0.23805 0,-0.33917 0.0253,-0.0506 0.11903,0.0253 0.16959,0 0.0715,-0.0358 0.13384,-0.0981 0.16959,-0.16959 0.0253,-0.0506 -0.04,-0.12962 0,-0.16959 0.04,-0.04 0.12961,0.04 0.16959,0 0.04,-0.04 -0.04,-0.12962 0,-0.16959 0.04,-0.04 0.11903,0.0253 0.16959,0 0.70579,-0.3529 -0.1813,0.0117 0.16959,-0.33918 0.04,-0.04 0.11902,0.0253 0.16959,0 0.0715,-0.0358 0.0937,-0.14431 0.16959,-0.16959 0.10725,-0.0358 0.2451,0.0627 0.33917,0 0.10518,-0.0701 0.0802,-0.2498 0.16959,-0.33918 0.0105,-0.47752 0.38237,-0.0432 0.50877,-0.16959 0.0894,-0.0894 0.0995,-0.234 0.16959,-0.33918 0.22298,-0.33446 0.25702,-0.0583 0.67836,-0.33918 0.047,-0.0314 -0.04,-0.12961 0,-0.16959 0.35089,-0.35088 -0.0137,0.5362 0.33918,-0.16959 0.0506,-0.10112 -0.0358,-0.23192 0,-0.33918 0.04,-0.11991 0.12962,-0.21926 0.16959,-0.33917 0.0179,-0.0536 -0.0253,-0.11903 0,-0.16959 0.12987,-0.25974 0.30221,-0.13263 0.50877,-0.33918 0.0799,-0.0799 -0.0358,-0.23192 0,-0.33918 0.04,-0.11992 0.22612,-0.22612 0.16959,-0.33918 -0.0506,-0.10112 -0.22612,0 -0.33918,0 -0.38044,0 -0.2064,0.0137 -0.84795,-0.16959 -0.34377,-0.0982 -0.66488,-0.2804 -1.01754,-0.33918 -0.39032,-0.0651 -0.79384,0.0437 -1.18712,0 -0.28649,-0.0318 -0.56089,-0.14349 -0.84795,-0.16959 -0.73187,-0.0665 -1.46978,0 -2.20466,0 -0.66476,0 -1.87404,0.11164 -2.54385,0 -0.23723,-0.0395 -0.61071,-0.29964 -0.84794,-0.33918 -0.22305,-0.0372 -0.45224,0 -0.67836,0 -0.28265,-0.11306 -0.54944,-0.27947 -0.84795,-0.33918 -0.27716,-0.0554 -0.56814,0.04 -0.84795,0 -0.51594,-0.0737 -1.01524,-0.23696 -1.5263,-0.33918 -0.84706,-0.16941 -1.69721,-0.33944 -2.54384,-0.50876 -0.0554,-0.0111 -0.11596,0.0179 -0.16959,0 -0.11992,-0.04 -0.21655,-0.13894 -0.33918,-0.16959 -0.10969,-0.0274 -0.2295,0.0274 -0.33918,0 -0.12263,-0.0307 -0.21764,-0.13487 -0.33918,-0.16959 -0.27716,-0.0792 -0.56831,-0.0997 -0.84795,-0.16959 -0.17342,-0.0434 -0.3318,-0.14431 -0.50877,-0.16959 -0.22384,-0.032 -0.45531,0.0372 -0.67835,0 -0.12469,-0.0208 -0.21523,-0.1448 -0.33918,-0.16959 -0.1663,-0.0333 -0.34788,0.0536 -0.50877,0 -1.0076,-0.33587 -0.008,-0.3646 -1.01754,-0.50877 -0.22384,-0.032 -0.45451,0.032 -0.67836,0 -0.61756,-0.0882 -0.35674,-0.17544 -0.84794,-0.33918 -0.0536,-0.0179 -0.11475,0.0137 -0.16959,0 -0.17343,-0.0434 -0.33348,-0.13453 -0.50877,-0.16959 -0.22173,-0.0443 -0.46384,0.0715 -0.67836,0 -0.0758,-0.0253 -0.092,-0.1502 -0.16959,-0.16959 -0.27421,-0.0685 -0.58551,0.10498 -0.84795,0 -0.18924,-0.0757 -0.3154,-0.27472 -0.50876,-0.33918 -0.25439,-0.0848 -0.59357,0.0848 -0.84795,0 -0.0758,-0.0253 -0.0981,-0.13383 -0.16959,-0.16959 -0.0506,-0.0253 -0.11596,0.0179 -0.16959,0 -0.11992,-0.04 -0.22182,-0.12264 -0.33918,-0.16959 -0.16598,-0.0664 -0.34888,-0.0896 -0.50877,-0.16959 -0.0715,-0.0357 -0.0937,-0.1443 -0.16959,-0.16959 -0.10726,-0.0357 -0.22949,0.0274 -0.33918,0 -0.24526,-0.0613 -0.43852,-0.25923 -0.67835,-0.33917 -0.0536,-0.0179 -0.12256,0.0314 -0.16959,0 -0.30118,-0.20079 -0.5653,-0.45224 -0.84795,-0.67836 z"
       id="path3031"
       inkscape:connector-curvature="0"
       inkscape:export-filename="/Users/christian/Documents/Informatik/Autorennen/autorennen/img/instruction_building_2.png"
       inkscape:export-xdpi="89.938164"
       inkscape:export-ydpi="89.938164" />
    <path
       style="fill:none;stroke:#000000;stroke-width:2;stroke-linecap:butt;stroke-linejoin:miter;stroke-miterlimit:4;stroke-opacity:1;stroke-dasharray:none"
       d="m 381.44008,746.38606 c -5.85011,-0.97501 -3.04017,-0.76532 -8.41853,-0.76532 -4.08137,0 -8.30898,-0.54672 -12.24513,0.76532 -2.92868,0.97623 -8.43997,4.67771 -9.18385,7.65321 -0.12374,0.49498 0,1.02043 0,1.53064 -0.2551,1.02043 -0.4327,2.06343 -0.76532,3.06128 -0.18039,0.54117 -0.58493,0.98948 -0.76532,1.53064 -0.51367,1.54101 0.0768,3.9802 0.76532,5.35725 0.16135,0.32269 0.54886,0.4767 0.76532,0.76532 0.55188,0.73584 0.8124,1.72137 1.53064,2.29596 1.25989,1.00791 3.10894,0.89508 4.59193,1.53064 1.04863,0.44941 1.97895,1.16987 3.06128,1.53064 1.23404,0.41135 2.53376,0.62167 3.8266,0.76532 1.01419,0.11269 2.07133,-0.24749 3.06129,0 1.1068,0.27671 1.95447,1.25394 3.06128,1.53064 0.98996,0.24749 2.04085,0 3.06128,0 4.33682,0 8.67363,0 13.01045,0"
       id="path3801"
       inkscape:connector-curvature="0"
       inkscape:export-filename="/Users/christian/Documents/Informatik/Autorennen/autorennen/img/instruction_building_2.png"
       inkscape:export-xdpi="89.938164"
       inkscape:export-ydpi="89.938164" />
    <path
       style="fill:none;stroke:#000000;stroke-width:2;stroke-linecap:butt;stroke-linejoin:miter;stroke-miterlimit:4;stroke-opacity:1;stroke-dasharray:none"
       d="m 395.98117,743.32478 c -1.36212,5.03033 -3.38667,10.02723 -3.82661,15.30641 -0.14829,1.77958 0.16168,3.57883 0,5.35725 -0.16961,1.8657 -1.44315,4.85438 -0.76532,6.88788 0.11409,0.34226 0.65124,0.42306 0.76532,0.76532 0.16135,0.48403 -0.16134,1.04661 0,1.53064 0.12998,0.38994 4.03307,2.92157 4.59193,3.06129 1.05435,0.26358 2.70259,0 3.8266,0"
       id="path3803"
       inkscape:connector-curvature="0"
       inkscape:export-filename="/Users/christian/Documents/Informatik/Autorennen/autorennen/img/instruction_building_2.png"
       inkscape:export-xdpi="89.938164"
       inkscape:export-ydpi="89.938164" />
    <path
       style="fill:none;stroke:#000000;stroke-width:2;stroke-linecap:butt;stroke-linejoin:miter;stroke-miterlimit:4;stroke-opacity:1;stroke-dasharray:none"
       d="m 414.34886,758.63119 c 0,17.9405 0.5647,-1.65696 -0.76532,7.65321 -0.20645,1.44518 0,3.76489 0,5.35724"
       id="path3805"
       inkscape:connector-curvature="0"
       inkscape:export-filename="/Users/christian/Documents/Informatik/Autorennen/autorennen/img/instruction_building_2.png"
       inkscape:export-xdpi="89.938164"
       inkscape:export-ydpi="89.938164" />
    <path
       style="fill:none;stroke:#000000;stroke-width:2;stroke-linecap:butt;stroke-linejoin:miter;stroke-miterlimit:4;stroke-opacity:1;stroke-dasharray:none"
       d="m 415.8795,741.79414 c -0.76532,1.02043 -1.6397,1.96752 -2.29596,3.06128 -0.75041,1.25069 2.76729,0.86332 3.06128,0.76532 0.34226,-0.11408 0.44264,-0.60397 0.76532,-0.76532 0.22818,-0.11408 0.87941,0.22818 0.76532,0 -0.57043,-1.14087 -1.53064,-2.04085 -2.29596,-3.06128 z"
       id="path3811"
       inkscape:connector-curvature="0"
       inkscape:export-filename="/Users/christian/Documents/Informatik/Autorennen/autorennen/img/instruction_building_2.png"
       inkscape:export-xdpi="89.938164"
       inkscape:export-ydpi="89.938164" />
    <path
       style="fill:none;stroke:#000000;stroke-width:2;stroke-linecap:butt;stroke-linejoin:miter;stroke-miterlimit:4;stroke-opacity:1;stroke-dasharray:none"
       d="m 440.36976,757.10055 c -9.93856,-2.48464 2.45428,0.35061 -5.35724,-0.76532 -1.04126,-0.14875 -2.01589,-0.64916 -3.06129,-0.76532 -1.77482,-0.1972 -3.57149,0 -5.35724,0 -0.51021,0 -1.02043,0 -1.53064,0 -0.25511,0 -0.58493,-0.18039 -0.76532,0 -0.40336,0.40336 -0.4489,1.05601 -0.76532,1.53064 -1.84308,2.76462 -1.53064,0.39687 -1.53064,4.59193 0,0.2551 -0.11409,0.53714 0,0.76532 0.16134,0.32268 0.67782,0.41531 0.76532,0.76532 0.18561,0.74247 -0.18562,1.55349 0,2.29596 0.0875,0.35 0.60397,0.44263 0.76532,0.76532 0.67739,1.35478 -1.13837,0.26152 0.76532,1.53064 2.33967,1.55978 0.79316,0.15863 3.8266,0.76532 0.55936,0.11187 0.98948,0.58493 1.53064,0.76532 0.24202,0.0807 0.51517,-0.05 0.76532,0 1.03141,0.20628 2.02376,0.5924 3.06129,0.76532 2.63874,0.43979 5.74112,0 8.41852,0"
       id="path3813"
       inkscape:connector-curvature="0"
       inkscape:export-filename="/Users/christian/Documents/Informatik/Autorennen/autorennen/img/instruction_building_2.png"
       inkscape:export-xdpi="89.938164"
       inkscape:export-ydpi="89.938164" />
    <path
       style="fill:none;stroke:#000000;stroke-width:2;stroke-linecap:butt;stroke-linejoin:miter;stroke-miterlimit:4;stroke-opacity:1;stroke-dasharray:none"
       d="m 449.55361,733.37561 c 1.7699,5.68808 0.18188,11.768 0.76532,17.60238 0.10466,1.04661 0.64916,2.01588 0.76532,3.06128 0.14086,1.26773 0,2.55107 0,3.8266 0,0.76532 -0.24202,1.56992 0,2.29596 0.29086,0.8726 1.18903,1.44195 1.53064,2.29597 0.47372,1.1843 -0.30936,2.58915 0,3.8266 0.0875,0.35 0.65123,0.42306 0.76532,0.76532 2.10108,6.30323 -2.57725,-3.62386 0.76532,3.06128"
       id="path3815"
       inkscape:connector-curvature="0"
       inkscape:export-filename="/Users/christian/Documents/Informatik/Autorennen/autorennen/img/instruction_building_2.png"
       inkscape:export-xdpi="89.938164"
       inkscape:export-ydpi="89.938164" />
    <path
       style="fill:none;stroke:#000000;stroke-width:2;stroke-linecap:butt;stroke-linejoin:miter;stroke-miterlimit:4;stroke-opacity:1;stroke-dasharray:none"
       d="m 470.21726,748.68203 c -2.43769,-1.61878 -4.83872,2.54899 -6.88788,3.06128 -0.74247,0.18562 -1.65918,-0.42453 -2.29596,0 -0.60037,0.40024 -0.88527,1.20795 -1.53065,1.53064 -0.91269,0.45635 -2.09322,-0.32269 -3.06128,0 -2.38881,0.79627 0.25511,0.51021 -0.76532,1.53064 -0.18039,0.18039 -0.5233,-0.0807 -0.76532,0 -0.54116,0.18039 -0.98948,0.58493 -1.53064,0.76532 -0.20646,0.0688 -1.82396,-0.29332 -0.76532,0.76532 0.004,0.003 5.35714,0 6.12256,0 1.98009,0 5.90771,-0.43637 7.65321,0 0.35,0.0875 0.44263,0.60398 0.76532,0.76532 0.22818,0.11409 0.58493,-0.18039 0.76532,0 0.18039,0.18039 -0.14151,0.55306 0,0.76532 0.40025,0.60037 1.20795,0.88527 1.53064,1.53064 0.76532,1.53064 -0.38266,1.14798 0,2.29597 0.18039,0.54116 0.58494,0.98947 0.76532,1.53064 0.16135,0.48403 -0.16134,1.04661 0,1.53064 0.87941,2.63822 0.76532,0.56692 0.76532,2.29596"
       id="path3817"
       inkscape:connector-curvature="0"
       inkscape:export-filename="/Users/christian/Documents/Informatik/Autorennen/autorennen/img/instruction_building_2.png"
       inkscape:export-xdpi="89.938164"
       inkscape:export-ydpi="89.938164" />
    <path
       style="fill:none;stroke:#000000;stroke-width:2;stroke-linecap:butt;stroke-linejoin:miter;stroke-miterlimit:4;stroke-opacity:1;stroke-dasharray:none"
       d="m 529.14695,747.91671 c -1.27554,-0.25511 -2.53377,-0.62168 -3.82661,-0.76533 -2.28191,-0.25354 -4.60596,-0.25354 -6.88788,0 -1.0454,0.11616 -2.02376,0.5924 -3.06128,0.76533 -0.50327,0.0839 -1.10612,-0.28302 -1.53064,0 -2.24014,1.49342 -0.15679,1.07889 -0.76532,2.29596 -0.16135,0.32268 -0.60398,0.44263 -0.76533,0.76532 -0.40174,0.80348 0,6.35483 0,7.6532 0,0.51022 0,1.02043 0,1.53064 0,0.51022 0.30613,1.12247 0,1.53065 -1.59297,2.12397 -3.8912,1.53064 -6.12256,1.53064 -1.92257,0 -6.68204,0.43412 -8.41853,0 -1.45263,-0.36316 -0.37865,-1.52263 -0.76532,-2.29597 -0.41134,-0.82269 -1.11929,-1.47326 -1.53064,-2.29596 -1.76173,-3.52345 -0.0496,-1.01352 -0.76532,-4.59192 -0.11187,-0.55936 -0.65345,-0.97128 -0.76532,-1.53064 -0.13443,-0.67214 -0.21127,-6.35971 0,-6.88789 0.26798,-0.66994 1.07989,-0.9672 1.53064,-1.53064 0.5746,-0.71824 0.88025,-1.64556 1.53064,-2.29596 1.62376,-1.62375 8.73361,-5.75595 10.71449,-6.88788 0.77022,-0.44013 4.17546,-1.74069 4.59192,-2.29597 0.48404,-0.64537 0.40455,-1.57441 0.76533,-2.29596 1.47655,-1.47655 0.38995,-0.0292 0.76532,-1.53064 0.41183,-1.64734 1.37567,-4.29152 0.76532,-6.12256 -0.49271,-1.47812 -1.3003,-0.26749 -2.29597,-0.76532 -0.64537,-0.32269 -0.86069,-1.26267 -1.53064,-1.53065 -0.51292,-0.20517 -9.01751,-0.0554 -9.18384,0 -1.16075,0.38692 -3.11354,1.22637 -3.82661,2.29597 -1.09062,1.63593 -1.10833,7.12576 -0.76532,9.18384 0.29781,1.78686 1.18252,3.20012 2.29596,4.59193 0.45075,0.56343 1.1304,0.93027 1.53065,1.53064 2.49516,3.74275 0.45181,2.22588 3.06128,5.35724 6.26887,7.52265 -1.42819,-2.1935 4.59192,3.8266 0.6504,0.6504 0.88025,1.64557 1.53064,2.29597 0.40336,0.40336 1.0743,0.42306 1.53064,0.76532 0.86587,0.64939 1.6956,1.39541 2.29597,2.29596 0.31642,0.47463 0.36196,1.12728 0.76532,1.53064 0.8629,0.8629 3.94321,1.31441 4.59192,1.53064 0.54116,0.18039 0.98948,0.58493 1.53064,0.76532 0.48403,0.16135 1.07429,-0.22817 1.53064,0 0.64538,0.32269 0.93028,1.1304 1.53064,1.53064 0.38541,1.68613 1.57441,0.40455 2.29597,0.76532 0.77976,0.38988 1.67504,1.67504 2.29596,2.29596"
       id="path3819"
       inkscape:connector-curvature="0"
       inkscape:export-filename="/Users/christian/Documents/Informatik/Autorennen/autorennen/img/instruction_building_2.png"
       inkscape:export-xdpi="89.938164"
       inkscape:export-ydpi="89.938164" />
    <path
       style="fill:none;stroke:#000000;stroke-width:2;stroke-linecap:butt;stroke-linejoin:miter;stroke-miterlimit:4;stroke-opacity:1;stroke-dasharray:none"
       d="m 549.8106,734.90626 c 0,1.02042 0,2.04085 0,3.06128 0,4.84703 0,9.69406 0,14.54109 0,1.72853 -0.45855,8.11497 0,9.94917 0.0875,0.35 0.5652,0.46513 0.76532,0.76532 2.22838,3.34257 -0.33919,-0.25227 0.76532,3.06128 0.94571,2.83712 0.76532,-0.93289 0.76532,1.53064 0,0.51021 -0.22817,1.07429 0,1.53064 0.16135,0.32269 0.76533,1.1261 0.76533,0.76532 0,-0.57043 -0.51022,-1.02043 -0.76533,-1.53064"
       id="path3821"
       inkscape:connector-curvature="0"
       inkscape:export-filename="/Users/christian/Documents/Informatik/Autorennen/autorennen/img/instruction_building_2.png"
       inkscape:export-xdpi="89.938164"
       inkscape:export-ydpi="89.938164" />
    <path
       style="fill:none;stroke:#000000;stroke-width:2;stroke-linecap:butt;stroke-linejoin:miter;stroke-miterlimit:4;stroke-opacity:1;stroke-dasharray:none"
       d="m 536.80015,735.67158 c 11.76886,-1.96148 -1.24522,0.67018 7.65321,-2.29597 1.23404,-0.41134 2.58067,-0.39154 3.8266,-0.76532 2.08771,-0.62631 3.95626,-2.05526 6.12257,-2.29596 2.78901,-0.30989 5.61235,0 8.41852,0 1.41105,0 4.85655,-0.24749 6.12257,0.76532 0.62994,0.50396 0.35026,1.60421 0.76532,2.29596 0.37123,0.61873 1.1594,0.91192 1.53064,1.53065 0.41505,0.69175 0.35027,1.6042 0.76532,2.29596 0.37123,0.61872 1.30247,0.84611 1.53064,1.53064 0.32269,0.96806 0,2.04085 0,3.06128 0,1.27553 0,2.55107 0,3.8266 0,2.04086 0.28862,4.10222 0,6.12257 -0.11409,0.79861 -0.65123,1.49735 -0.76532,2.29596 -0.14431,1.01017 0.16776,2.05474 0,3.06128 -0.92301,5.53805 -0.36427,-1.20314 -1.53064,2.29596 -0.16134,0.48403 0.22817,1.0743 0,1.53064 -0.32269,0.64538 -1.1304,0.93028 -1.53064,1.53065 -0.28302,0.42452 0.45635,1.30246 0,1.53064 -0.45635,0.22817 -1.04661,-0.16135 -1.53064,0 -0.34226,0.11408 -0.44264,0.60397 -0.76532,0.76532 -0.72155,0.36077 -1.66602,0.26136 -2.29597,0.76532 -0.71824,0.57459 -0.7948,1.74408 -1.53064,2.29596 -1.53064,1.14798 -1.14798,-0.57399 -2.29596,0 -0.32269,0.16134 -0.44263,0.60398 -0.76532,0.76532 -0.81921,0.4096 -4.98212,0 -5.35724,0 -2.80618,0 -5.61235,0 -8.41853,0"
       id="path3823"
       inkscape:connector-curvature="0"
       inkscape:export-filename="/Users/christian/Documents/Informatik/Autorennen/autorennen/img/instruction_building_2.png"
       inkscape:export-xdpi="89.938164"
       inkscape:export-ydpi="89.938164" />
    <path
       style="fill:none;stroke:#000000;stroke-width:2;stroke-linecap:butt;stroke-linejoin:miter;stroke-miterlimit:4;stroke-opacity:1;stroke-dasharray:none"
       d="m 584.25003,754.03927 c -0.93923,3.3346 -1.09104,5.91072 0,9.18385 0.18039,0.54116 0.62697,0.97723 0.76532,1.53064 0.12374,0.49498 0,1.02042 0,1.53064 0,0.25511 0.0807,1.00733 0,0.76532 -0.66524,-1.99571 -0.792,-4.15284 -1.53064,-6.12257 -0.40059,-1.06823 -1.65663,-1.92738 -1.53064,-3.06128 0.16427,-1.47842 1.30771,-2.71482 2.29596,-3.8266 3.51531,-3.95472 4.78773,-3.06128 9.18385,-3.06128"
       id="path3825"
       inkscape:connector-curvature="0"
       inkscape:export-filename="/Users/christian/Documents/Informatik/Autorennen/autorennen/img/instruction_building_2.png"
       inkscape:export-xdpi="89.938164"
       inkscape:export-ydpi="89.938164" />
    <path
       style="fill:none;stroke:#000000;stroke-width:2;stroke-linecap:butt;stroke-linejoin:miter;stroke-miterlimit:4;stroke-opacity:1;stroke-dasharray:none"
       d="m 610.27093,750.21267 c -1.65141,0.41285 -2.92116,0.17247 -3.8266,1.53064 -0.31643,0.47463 -0.36197,1.12728 -0.76532,1.53064 -0.40336,0.40336 -1.12729,0.36196 -1.53065,0.76532 -0.8629,0.8629 -1.3144,3.94322 -1.53064,4.59192 -0.92133,2.76399 -1.53064,1.98315 -1.53064,5.35725 0,0.2551 -0.11409,0.53714 0,0.76532 2.82085,5.6417 0.10403,0.10403 3.06128,3.06128 0.40336,0.40336 0.29069,1.21422 0.76532,1.53064 0.31853,0.21235 3.43446,0 3.82661,0 2.64145,0 6.6681,0.32967 8.41852,-2.29596 1.2742,-1.91129 0.76532,-4.68296 0.76532,-6.88789 0,-1.27553 0.30937,-2.58915 0,-3.8266 -0.13835,-0.5534 -0.62696,-0.97724 -0.76532,-1.53064 -0.12374,-0.49498 0.36078,-1.16987 0,-1.53064 -0.99863,-0.99864 -0.76532,1.75516 -0.76532,3.06128 0,1.39482 -0.38075,5.93601 0,6.88789 0.40197,1.00491 1.53064,1.53064 2.29597,2.29596 0.97339,0.9734 0.76532,2.26954 0.76532,0.76532"
       id="path3827"
       inkscape:connector-curvature="0"
       inkscape:export-filename="/Users/christian/Documents/Informatik/Autorennen/autorennen/img/instruction_building_2.png"
       inkscape:export-xdpi="89.938164"
       inkscape:export-ydpi="89.938164" />
    <path
       style="fill:none;stroke:#000000;stroke-width:2;stroke-linecap:butt;stroke-linejoin:miter;stroke-miterlimit:4;stroke-opacity:1;stroke-dasharray:none"
       d="m 638.58779,751.74331 c -1.5373,2.10137 -5.14269,1.31608 -6.88788,3.06128 -0.40336,0.40336 -0.4489,1.05601 -0.76533,1.53064 -0.20012,0.30018 -0.60397,0.44263 -0.76532,0.76532 -0.22817,0.45635 0.12375,1.03566 0,1.53064 -0.34887,1.39548 -1.13075,2.36489 -0.76532,3.82661 0.13835,0.5534 0.62697,0.97723 0.76532,1.53064 0.12375,0.49498 -0.36077,1.16986 0,1.53064 0.36078,0.36077 1.02043,0 1.53065,0 1.02042,0 2.04085,0 3.06128,0 0.6798,0 5.74435,0.25214 6.12256,0 0.47463,-0.31642 0.42306,-1.07429 0.76532,-1.53064 0.43293,-0.57724 1.30247,-0.84612 1.53064,-1.53064 0.14276,-0.42828 0.18412,-10.16213 0,-10.71449 -0.11408,-0.34226 -0.40454,-0.76532 -0.76532,-0.76532 -0.2551,0 0,0.51021 0,0.76532 0,1.27553 0,2.55107 0,3.8266 0,1.02043 0,2.04086 0,3.06128 0,1.27554 -0.40336,2.61653 0,3.82661 0.40336,1.21007 1.77792,1.89568 2.29597,3.06128 0.5283,1.18868 0.44983,2.56464 0.76532,3.8266 0.19565,0.78263 0.51021,1.53064 0.76532,2.29596 0.51021,1.02043 1.21722,1.96431 1.53064,3.06128 0.21025,0.73588 0,1.53065 0,2.29597 0,0.51021 0,1.02042 0,1.53064 0,0.51021 0.36077,1.16986 0,1.53064 -0.57044,0.57044 -1.54694,0.46571 -2.29596,0.76532 -0.52964,0.21185 -0.97724,0.62697 -1.53065,0.76532 -5.68734,1.42184 -11.79379,0.76532 -17.60237,0.76532"
       id="path3829"
       inkscape:connector-curvature="0"
       inkscape:export-filename="/Users/christian/Documents/Informatik/Autorennen/autorennen/img/instruction_building_2.png"
       inkscape:export-xdpi="89.938164"
       inkscape:export-ydpi="89.938164" />
    <path
       style="fill:none;stroke:#000000;stroke-width:2;stroke-linecap:butt;stroke-linejoin:miter;stroke-miterlimit:4;stroke-opacity:1;stroke-dasharray:none"
       d="m 684.50703,724.95709 c 0,9.94917 0,19.89833 0,29.8475 0,3.01805 -0.49061,7.00551 0,9.94917 0.13262,0.79574 0.60711,1.50491 0.76532,2.29596 0.10006,0.5003 -0.16135,1.04661 0,1.53064 0.81229,2.43688 10.71448,5.07861 10.71448,1.53064"
       id="path3831"
       inkscape:connector-curvature="0"
       inkscape:export-filename="/Users/christian/Documents/Informatik/Autorennen/autorennen/img/instruction_building_2.png"
       inkscape:export-xdpi="89.938164"
       inkscape:export-ydpi="89.938164" />
    <path
       style="fill:none;stroke:#000000;stroke-width:2;stroke-linecap:butt;stroke-linejoin:miter;stroke-miterlimit:4;stroke-opacity:1;stroke-dasharray:none"
       d="m 680.68042,754.80459 c 5.06656,-3.3777 2.94654,-2.23859 6.12257,-3.8266"
       id="path3833"
       inkscape:connector-curvature="0"
       inkscape:export-filename="/Users/christian/Documents/Informatik/Autorennen/autorennen/img/instruction_building_2.png"
       inkscape:export-xdpi="89.938164"
       inkscape:export-ydpi="89.938164" />
    <path
       style="fill:none;stroke:#000000;stroke-width:2;stroke-linecap:butt;stroke-linejoin:miter;stroke-miterlimit:4;stroke-opacity:1;stroke-dasharray:none"
       d="m 712.05857,752.50863 c -2.15886,1.1137 -4.66048,-0.55685 -6.88789,0 -0.35,0.0875 -0.44263,0.60398 -0.76532,0.76532 -0.72155,0.36077 -1.72553,0.19488 -2.29596,0.76532 -2.81253,2.81253 -1.05941,2.23574 -1.53064,4.59192 -0.3036,1.51797 -1.58997,4.47328 -0.76532,6.12257 0.2551,0.51021 1.12728,0.36196 1.53064,0.76532 0.6504,0.6504 0.88024,1.64556 1.53064,2.29596 0.18039,0.18039 0.5233,-0.0807 0.76532,0 0.54116,0.18039 0.98948,0.58493 1.53064,0.76532 1.40335,0.46778 10.27935,0 11.47981,0 2.27466,0 6.28928,0.65418 8.41853,-0.76532 0.0901,-0.0601 -0.12188,-1.80844 0,-2.29596 1.10758,-4.43033 0.76532,2.01175 0.76532,-3.8266 0,-1.85274 0.44377,-4.34746 0,-6.12257 -0.3332,-1.33277 -2.56389,-0.98948 -3.82661,-1.53064 -0.84543,-0.36233 -1.42336,-1.23977 -2.29596,-1.53064 -0.70997,-0.23666 -7.44599,0 -7.6532,0 z"
       id="path3835"
       inkscape:connector-curvature="0"
       inkscape:export-filename="/Users/christian/Documents/Informatik/Autorennen/autorennen/img/instruction_building_2.png"
       inkscape:export-xdpi="89.938164"
       inkscape:export-ydpi="89.938164" />
    <path
       style="fill:none;stroke:#000000;stroke-width:2;stroke-linecap:butt;stroke-linejoin:miter;stroke-miterlimit:4;stroke-opacity:1;stroke-dasharray:none"
       d="m 761.03908,750.97799 c -1.75335,0.39143 -3.59579,-0.29358 -5.35724,0 -3.60912,0.60152 -6.96718,4.98837 -7.65321,8.41852 -0.20012,1.00061 0,2.04086 0,3.06129 0,0.76532 0,1.53064 0,2.29596 0,0.76532 -0.45919,1.6837 0,2.29596 0.48403,0.64537 1.60421,0.35027 2.29596,0.76532 0.61873,0.37123 0.8607,1.26266 1.53065,1.53064 0.46091,0.18437 5.64986,0.15757 6.12256,0 0.8726,-0.29087 1.70712,-0.82403 2.29596,-1.53064 0.73037,-0.87644 0.86752,-2.13292 1.53064,-3.06128 2.99266,-4.18972 2.22721,-0.21077 4.59193,-6.12257 0.4831,-1.20775 0.48314,-2.55678 0.76532,-3.8266 0.22817,-1.02678 0.66066,-2.01467 0.76532,-3.06128 0.1523,-1.52305 -0.13858,-3.06757 0,-4.59193 0.33022,-3.63248 1.53064,-7.01757 1.53064,-10.71448 0,-0.76532 0,-1.53064 0,-2.29597 0,-0.51021 0.36078,-1.16986 0,-1.53064 -0.14233,-0.14232 -1.20609,1.16002 -1.53064,2.29597 -1.01548,3.55415 -0.76532,4.01943 -0.76532,7.6532 0,1.53064 0.13858,3.06757 0,4.59192 -0.11777,1.29546 -0.63589,2.53227 -0.76532,3.82661 -0.37232,3.72318 0,7.73594 0,11.47981 0,1.96882 -0.38416,4.20176 0,6.12256 0.80358,4.01791 0.22879,1.10851 1.53064,3.06128 1.6387,2.45805 2.17363,3.82661 5.35724,3.82661"
       id="path3837"
       inkscape:connector-curvature="0"
       inkscape:export-filename="/Users/christian/Documents/Informatik/Autorennen/autorennen/img/instruction_building_2.png"
       inkscape:export-xdpi="89.938164"
       inkscape:export-ydpi="89.938164" />
    <path
       style="fill:none;stroke:#000000;stroke-width:2;stroke-linecap:butt;stroke-linejoin:miter;stroke-miterlimit:4;stroke-opacity:1;stroke-dasharray:none"
       d="m 783.9987,756.33523 c 0.53921,4.68501 -0.66422,9.89156 0,14.54109 0.92666,6.48665 0.76532,-0.85505 0.76532,3.8266 0,0.25511 0,-0.51021 0,-0.76532 0,-0.76532 0,-1.53064 0,-2.29596 0,-3.51792 0.31807,-7.21573 0,-10.71449 -0.14049,-1.54538 -1.73469,-3.3802 -0.76532,-4.59192 0.8126,-1.01575 2.53888,0.58136 3.8266,0.76532 1.66237,0.23748 3.69597,0 5.35725,0 1.02042,0 2.04085,0 3.06128,0 0.51021,0 1.53064,-0.51021 1.53064,0 0,0.25511 -0.51021,0 -0.76532,0"
       id="path3839"
       inkscape:connector-curvature="0"
       inkscape:export-filename="/Users/christian/Documents/Informatik/Autorennen/autorennen/img/instruction_building_2.png"
       inkscape:export-xdpi="89.938164"
       inkscape:export-ydpi="89.938164" />
    <path
       style="fill:none;stroke:#000000;stroke-width:2;stroke-linecap:butt;stroke-linejoin:miter;stroke-miterlimit:4;stroke-opacity:1;stroke-dasharray:none"
       d="m 810.0196,753.27395 c -9.26266,1.7009 -9.18385,1.598 -9.18385,9.94917 0,2.38284 -0.54473,5.46978 0.76532,7.6532 0.62295,1.03824 1.92175,1.91612 3.06129,2.29596 0.24201,0.0807 0.5233,-0.0807 0.76532,0 0.54116,0.18039 0.97723,0.62697 1.53064,0.76532 0.49498,0.12375 1.02043,0 1.53064,0 0.25511,0 0.58493,0.18039 0.76532,0 0.40336,-0.40336 0.4823,-1.03536 0.76532,-1.53064 0.73801,-1.29152 1.63072,-2.49613 2.29596,-3.8266 1.48152,-2.96303 1.58812,-6.76387 2.29596,-9.94917 0.95094,-4.27922 0.76532,-1.66349 0.76532,-5.35724 0,-0.25511 0,-1.02043 0,-0.76532 0,2.80617 0,5.61235 0,8.41852 0,1.78575 -0.29357,3.5958 0,5.35725 0.0938,0.56267 0.65345,0.97128 0.76532,1.53064 0.1501,0.75046 -0.24201,1.56991 0,2.29596 0.0807,0.24202 0.58494,-0.18039 0.76533,0 0.18038,0.18039 0,0.51022 0,0.76532 0.2551,0 0.58493,-0.18039 0.76532,0 0.18038,0.18039 -0.18039,0.58493 0,0.76532 0.18038,0.18039 0.51021,0 0.76532,0 0.51021,0 1.02042,0 1.53064,0"
       id="path3841"
       inkscape:connector-curvature="0"
       inkscape:export-filename="/Users/christian/Documents/Informatik/Autorennen/autorennen/img/instruction_building_2.png"
       inkscape:export-xdpi="89.938164"
       inkscape:export-ydpi="89.938164" />
    <path
       style="fill:none;stroke:#000000;stroke-width:2;stroke-linecap:butt;stroke-linejoin:miter;stroke-miterlimit:4;stroke-opacity:1;stroke-dasharray:none"
       d="m 828.38729,750.21267 c -1.80284,3.96319 -1.53064,3.7227 -1.53064,7.6532 0,2.29596 -0.49806,4.6466 0,6.88789 0.24749,1.1137 1.08123,2.01265 1.53064,3.06128 0.31779,0.74149 0.40455,1.57441 0.76532,2.29596 1.30989,2.61976 2.62222,3.06128 5.35725,3.06128 0.51021,0 1.04661,0.16135 1.53064,0 0.34226,-0.11408 0.5797,-0.45595 0.76532,-0.76532 0.58697,-0.97829 1.21722,-1.9643 1.53064,-3.06128 0.44371,-1.55298 0,-5.81281 0,-7.6532 0,-0.25511 0,0.51021 0,0.76532 0,1.80686 -0.20329,2.97757 0.76532,4.59192 0.47324,0.78872 0.88025,1.64556 1.53064,2.29596 0.40336,0.40336 1.05601,0.4489 1.53064,0.76532 0.30019,0.20012 0.42306,0.65123 0.76533,0.76532 0.48403,0.16135 1.02042,0 1.53064,0 1.72024,0 1.72825,0.45635 2.29596,-1.53064 1.29843,-4.54453 1.53064,-9.09065 1.53064,-13.77577 0,-1.27553 0.40336,-2.61652 0,-3.8266 -0.18039,-0.54117 -1.12728,-0.36196 -1.53064,-0.76532 -0.40336,-0.40336 -0.51022,-1.02043 -0.76532,-1.53064"
       id="path3843"
       inkscape:connector-curvature="0"
       inkscape:export-filename="/Users/christian/Documents/Informatik/Autorennen/autorennen/img/instruction_building_2.png"
       inkscape:export-xdpi="89.938164"
       inkscape:export-ydpi="89.938164" />
    <path
       style="fill:none;stroke:#000000;stroke-width:2;stroke-linecap:butt;stroke-linejoin:miter;stroke-miterlimit:4;stroke-opacity:1;stroke-dasharray:none"
       d="m 888.0823,753.27395 c -0.88097,0.80071 -7.18757,-0.73857 -8.41853,0 -0.92808,0.55685 -1.41523,1.66687 -2.29596,2.29596 -0.92837,0.66312 -2.13291,0.86752 -3.06128,1.53064 -0.88073,0.62909 -1.4742,1.59159 -2.29596,2.29596 -0.4062,0.34817 -4.23909,2.94451 -4.59193,3.82661 -0.28423,0.71058 0.1501,1.5455 0,2.29596 -0.11187,0.55936 -0.62697,0.97723 -0.76532,1.53064 -0.24749,0.98996 -0.20012,2.06067 0,3.06128 0.15821,0.79105 0.28129,1.65059 0.76532,2.29596 0.87046,1.16061 7.87993,0.9516 9.18385,0.76532 0.79861,-0.11408 1.53064,-0.51021 2.29596,-0.76532 0.76532,-0.2551 1.66602,-0.26136 2.29596,-0.76532 0.71825,-0.57459 0.97876,-1.56012 1.53065,-2.29596 0.21646,-0.28862 0.65123,-0.42306 0.76532,-0.76532 0.16134,-0.48403 -0.10007,-1.03034 0,-1.53064 0.15821,-0.79105 0.56966,-1.51333 0.76532,-2.29596 0.31549,-1.26196 0.44983,-2.56465 0.76532,-3.82661 0.19565,-0.78263 0.60711,-1.5049 0.76532,-2.29596 0.10006,-0.5003 -0.20099,-1.06168 0,-1.53064 0.58596,-1.36724 2.29596,-5.31412 2.29596,-3.8266 0,2.42016 -1.78887,4.52145 -2.29596,6.88788 -0.26726,1.24722 0,2.55107 0,3.82661 0,1.53064 -0.30019,3.091 0,4.59192 0.22374,1.11872 1.02042,2.04086 1.53064,3.06128 0.51021,1.02043 0.72392,2.25457 1.53064,3.06128 0.36078,0.36078 1.04661,-0.16134 1.53064,0 0.96833,0.32278 1.16329,1.53065 3.06128,1.53065"
       id="path3845"
       inkscape:connector-curvature="0"
       inkscape:export-filename="/Users/christian/Documents/Informatik/Autorennen/autorennen/img/instruction_building_2.png"
       inkscape:export-xdpi="89.938164"
       inkscape:export-ydpi="89.938164" />
    <path
       style="fill:none;stroke:#000000;stroke-width:1px;stroke-linecap:butt;stroke-linejoin:miter;stroke-opacity:1"
       d="m 190.579,812.8058 c -3.55882,-0.79654 -7.77353,-0.74185 -10.30809,1.79271 -0.63333,0.63332 -1.79738,0.90568 -2.24089,1.79271 -0.57083,1.14166 -0.82613,2.41902 -1.34453,3.58542 -3.15111,7.08998 -3.10146,16.32696 0,23.30525 0.51356,1.15552 0.84032,2.63304 1.79271,3.58542 5.39266,5.39267 12.05631,6.65698 19.27164,7.61903 4.30868,0.57449 8.32714,1.17124 12.1008,-1.34454 3.74828,-2.49885 3.54001,-6.35931 4.0336,-10.30809 0.60787,-4.86296 1.93458,-10.02437 -0.44817,-14.78987 -0.67681,-1.35361 -1.61332,-3.40602 -2.68907,-4.48177 -2.84405,-2.84406 -13.19583,-9.47796 -17.03076,-10.75627 -0.99208,-0.3307 -2.09149,0 -3.13724,0 z"
       id="path4009"
       inkscape:connector-curvature="0"
       inkscape:export-filename="/Users/christian/Documents/Informatik/Autorennen/autorennen/img/instruction_building_2.png"
       inkscape:export-xdpi="89.938164"
       inkscape:export-ydpi="89.938164" />
    <path
       style="fill:none;stroke:#000000;stroke-width:1px;stroke-linecap:butt;stroke-linejoin:miter;stroke-opacity:1"
       d="m 175.78913,835.21469 c 1.86,-0.53143 3.64443,-0.92586 5.37813,-1.79271 2.89871,-1.44935 7.24057,-4.30998 9.85992,-6.27449 1.16743,-0.87558 2.90352,-0.49697 4.0336,-1.34453 0.26724,-0.20044 0.21196,-0.66015 0.44817,-0.89636 0.93007,-0.93007 4.03198,-1.34345 5.37814,-2.24089 0.99877,-0.66585 6.27449,-0.38039 6.27449,-1.79271"
       id="path4011"
       inkscape:connector-curvature="0"
       inkscape:export-filename="/Users/christian/Documents/Informatik/Autorennen/autorennen/img/instruction_building_2.png"
       inkscape:export-xdpi="89.938164"
       inkscape:export-ydpi="89.938164" />
    <path
       style="fill:none;stroke:#000000;stroke-width:1px;stroke-linecap:butt;stroke-linejoin:miter;stroke-opacity:1"
       d="m 182.5118,814.15033 c 1.48324,1.20039 1.48498,2.52178 2.24089,4.0336 0.54579,1.09158 1.7114,2.07827 2.24089,3.13725 0.51779,1.03559 0.30913,2.85915 0.89635,4.0336 0.088,0.17595 2.47063,2.47063 1.34454,1.34453"
       id="path4013"
       inkscape:connector-curvature="0"
       inkscape:export-filename="/Users/christian/Documents/Informatik/Autorennen/autorennen/img/instruction_building_2.png"
       inkscape:export-xdpi="89.938164"
       inkscape:export-ydpi="89.938164" />
    <path
       style="fill:none;stroke:#000000;stroke-width:1px;stroke-linecap:butt;stroke-linejoin:miter;stroke-opacity:1"
       d="m 181.16726,816.39122 c -0.44817,0.59757 -1.01048,1.12461 -1.34453,1.79271 -2.22194,4.44388 3.25452,-1.79271 1.34453,-1.79271 -0.50887,0 -2.92775,3.37593 -3.58542,4.0336 -0.33405,0.33405 1.13326,-0.0256 1.34454,-0.44818 0.13362,-0.26724 0.21127,-1.10762 0,-0.89635 -0.39772,0.39771 -1.45029,2.58331 -0.89636,3.13724 0.90872,0.90872 3.13724,-3.52601 3.13724,-2.24089 0,1.18759 -3.76785,3.41089 -4.48177,4.48178 -0.3706,0.5559 -0.89636,2.46082 -0.89636,1.79271 0,-2.10818 2.59942,-2.76589 4.0336,-3.58542 0.55031,-0.31446 1.97835,-1.34453 1.34453,-1.34453 -1.21995,0 -2.87105,1.97469 -3.58542,2.68906 -0.14939,0.1494 -0.64861,0.38137 -0.44818,0.44818 2.75968,0.9199 3.51089,-2.68906 5.82632,-2.68906 1.16679,0 -2.24089,1.52227 -2.24089,2.68906 0,0.78986 4.72339,-0.90804 5.37813,-1.34453 0.1243,-0.0829 -0.30947,-0.0555 -0.44818,0 -0.62032,0.24813 -1.19514,0.59757 -1.79271,0.89635 -0.74696,0.29879 -1.48761,0.61388 -2.24089,0.89636 -0.81563,0.30586 -3.11199,1.34453 -2.24089,1.34453 0.90872,0 1.82698,-0.16081 2.68907,-0.44817 0.63382,-0.21128 2.39028,-1.19515 1.79271,-0.89636 -0.71957,0.35978 -1.52132,0.53657 -2.24089,0.89636 -1.91869,0.95934 -4.4298,2.79461 0,2.24088 2.30305,-0.28788 0.94755,-0.46524 -1.79271,0.44818 -4.21782,1.40594 -7.5888,2.68907 -5.82631,2.68907 0.61888,0 2.65105,-1.7547 3.13724,-2.24089 0.33394,-0.33394 -0.44817,-0.435 -0.44817,-0.89636 0,-0.59757 0.59757,-1.79271 0,-1.79271 -0.25041,0 -1.55254,3.6176 -1.34454,4.0336 0.93269,1.86537 1.8039,-1.31098 2.24089,0 0.10223,0.30668 -0.0705,3.13725 0,3.13725 0.45814,0 3.67663,-3.64623 2.24089,-2.68907 -0.25236,0.16824 -2.24089,2.46378 -2.24089,2.68907 0,1.37733 1.96927,-1.95908 3.13725,-2.68907 1.57259,-0.98287 7.45313,-4.15 8.0672,-5.37813 0.0269,-0.0538 -2.35154,0.78347 -6.27449,3.13724 -0.18117,0.1087 -0.44818,0.65945 -0.44818,0.44818 0,-0.59133 0.91706,-2.2616 1.34453,-2.68907 0.90397,-0.90397 0.69638,-4.58533 0.44818,-5.82631 -0.41691,-2.08457 -0.89635,-0.12152 -0.89635,0.44818 0,1.57706 0.44638,1.93732 -0.44818,-0.44818 -0.23459,-0.62556 -0.68508,-1.15889 -0.89636,-1.79271 -0.24089,-0.72266 0.31358,-2.24089 -0.44818,-2.24089 -1.17279,0 0.44818,5.26808 0.44818,5.82631 0,0.89636 0,-3.58542 0,-2.68906 0,0.39504 -0.0363,5.89887 0.44818,4.92995 0.28993,-0.57986 0.004,-5.38547 -0.44818,-4.48178 -1.20536,2.41072 0.34371,5.24336 -0.44818,7.61903 -0.0438,0.13126 -0.59757,0.74696 -0.89635,0.44817 -0.0456,-0.0457 0.16889,-1.96159 -0.44818,-1.34453 -0.63382,0.63382 0,1.79271 0,2.68907 0,0.25798 0.21601,-4.24961 -0.44818,-3.58542 -1.21521,1.21521 -0.41516,5.47717 -0.44817,5.37813 -0.23072,-0.69214 -0.97767,-5.11339 -1.34454,-4.92996 -0.29878,0.1494 -0.11412,0.89636 -0.44818,0.89636 -0.21127,0 -0.2592,-0.35369 -0.44817,-0.44818 -0.54171,-0.27085 -0.81404,3.09153 -0.89636,3.58542 -0.0737,0.44208 0.44818,1.34454 0,1.34454 -0.59757,0 -0.42255,-1.37017 0,-1.79271 0.40254,-0.40255 0.33181,0.89635 0.89636,0.89635"
       id="path4017"
       inkscape:connector-curvature="0"
       inkscape:export-filename="/Users/christian/Documents/Informatik/Autorennen/autorennen/img/instruction_building_2.png"
       inkscape:export-xdpi="89.938164"
       inkscape:export-ydpi="89.938164" />
    <path
       style="fill:none;stroke:#000000;stroke-width:0.5;stroke-linecap:butt;stroke-linejoin:miter;stroke-miterlimit:4;stroke-opacity:1;stroke-dasharray:none"
       d="m 182.06362,811.90944 c -3.01108,-1.85636 -5.22398,-4.0336 -8.96356,-4.0336 -0.89635,0 -1.79271,0 -2.68906,0 -0.1494,0 -0.44818,0.1494 -0.44818,0 0,-0.22294 1.49097,-0.37496 0.44818,-0.89635 -0.89523,-0.44761 -3.09222,0.13448 -4.0336,0 -2.14007,-0.30573 -3.78401,-1.34454 -5.82631,-1.34454 -1.2748,0 -8.0672,-0.64058 -8.0672,0.44818"
       id="path4019"
       inkscape:connector-curvature="0"
       inkscape:export-filename="/Users/christian/Documents/Informatik/Autorennen/autorennen/img/instruction_building_2.png"
       inkscape:export-xdpi="89.938164"
       inkscape:export-ydpi="89.938164" />
    <path
       style="fill:none;stroke:#000000;stroke-width:1px;stroke-linecap:butt;stroke-linejoin:miter;stroke-opacity:1"
       d="m 79.430898,883.01817 c 2.206414,-0.2758 4.438837,-0.39133 6.619241,-0.82741 1.968876,-0.39377 3.861224,-1.10321 5.791836,-1.65481 10.480095,-2.99431 11.923965,-3.62184 22.339945,-5.79183 3.01874,-0.62891 6.03902,-1.29453 9.10146,-1.65482 15.12548,-1.77946 -0.0726,1.40323 6.61924,-0.8274 1.14546,-0.38182 11.14457,0 11.58367,0 6.06764,0 12.13528,0 18.20291,0 1.93062,0 3.87614,-0.23946 5.79184,0 1.12838,0.14105 2.18389,0.66659 3.30962,0.8274 2.9778,0.4254 7.70332,0 10.75627,0 37.78484,0 75.56967,0 113.35451,0 31.993,0 63.986,0 95.979,0 10.75627,0 21.51253,0 32.2688,0 3.58542,0 7.17423,-0.15574 10.75627,0 6.35487,0.2763 11.09544,1.28602 17.37551,2.48222 2.76296,0.52628 5.48504,1.29103 8.27405,1.65481 3.56581,0.46511 7.16337,0.6777 10.75627,0.82741 3.03119,0.1263 6.06764,0 9.10145,0 9.10146,0 18.20292,0 27.30438,0 21.51253,0 43.02507,0 64.5376,0 19.30612,0 38.61224,0 57.91836,0 6.34344,0 12.68688,0 19.03032,0 2.20642,0 4.41933,-0.16923 6.61924,0 1.40218,0.10786 2.73769,0.68747 4.13703,0.8274 4.28439,0.42844 10.63136,0 14.89329,0 12.41108,0 24.82216,0 37.23324,0 18.47871,0 36.95743,0 55.43614,0 6.06764,0 12.13528,0 18.20292,0 2.48221,0 4.96825,0.13769 7.44664,0 7.6314,-0.42397 7.39356,-0.98227 14.8933,-2.48221 3.02367,-0.60474 6.10175,-0.9406 9.10145,-1.65481 2.80116,-0.66695 5.45052,-1.91751 8.27406,-2.48222 8.88062,-1.77613 6.76708,-0.24696 14.89329,-0.82741 1.67337,-0.11952 3.29368,-0.67551 4.96443,-0.8274 1.37335,-0.12485 2.75802,0 4.13703,0 4.68863,0 9.37726,0 14.06588,0 7.17085,0 14.34169,0 21.51254,0 3.28395,0 8.30643,-0.40966 11.58367,0 1.12838,0.14105 2.18124,0.68636 3.30962,0.8274 3.72006,0.46501 8.81805,-0.59883 12.41108,0 0.8603,0.14339 1.62699,0.65636 2.48222,0.82741 4.13702,0.8274 -1.65481,-1.65481 4.96443,0 8.0925,2.02313 -1.35885,1.48495 6.61924,2.48222 3.59187,0.44898 2.72939,-0.70382 5.79183,0.8274 0.88944,0.44472 1.53883,1.34035 2.48222,1.65481 1.64078,0.54693 4.11312,-0.41968 5.79184,0 1.20584,0.30146 0.98481,1.65481 2.48221,1.65481"
       id="path4115"
       inkscape:connector-curvature="0"
       inkscape:export-filename="/Users/christian/Documents/Informatik/Autorennen/autorennen/img/instruction_building_2.png"
       inkscape:export-xdpi="89.938164"
       inkscape:export-ydpi="89.938164" />
    <path
       style="fill:none;stroke:#000000;stroke-width:2;stroke-linecap:butt;stroke-linejoin:miter;stroke-miterlimit:4;stroke-opacity:1;stroke-dasharray:none"
       d="m 381.29676,912.5307 c -4.41282,0 -8.82565,0 -13.23848,0 -1.65481,0 -3.30962,0 -4.96443,0 -0.82741,0 -1.72171,-0.32593 -2.48222,0 -1.44706,0.62017 -8.08315,6.02103 -9.10145,7.44665 -0.71692,1.00368 -1.10321,2.20641 -1.65481,3.30962 -2.80824,5.61648 -2.48222,7.18131 -2.48222,13.23848 0,1.62636 -0.13378,3.52265 0.82741,4.96444 0.74377,1.11565 7.07981,4.56635 8.27405,4.96443 1.33415,0.44471 2.79002,0.4233 4.13702,0.8274 1.4226,0.42678 2.672,1.41064 4.13703,1.65481 1.90434,0.31739 3.88749,-0.31739 5.79184,0 1.46503,0.24417 2.71442,1.22803 4.13702,1.65481 3.29891,0.98968 3.70116,0.82741 6.61924,0.82741 1.65481,0 3.34176,0.32453 4.96443,0 0.38247,-0.0765 0.50287,-0.61105 0.82741,-0.82741 1.90149,-1.26766 1.65481,-0.069 1.65481,-1.65481"
       id="path4117"
       inkscape:connector-curvature="0"
       inkscape:export-filename="/Users/christian/Documents/Informatik/Autorennen/autorennen/img/instruction_building_2.png"
       inkscape:export-xdpi="89.938164"
       inkscape:export-ydpi="89.938164" />
    <path
       style="fill:none;stroke:#000000;stroke-width:2;stroke-linecap:butt;stroke-linejoin:miter;stroke-miterlimit:4;stroke-opacity:1;stroke-dasharray:none"
       d="m 408.60113,901.77444 c -2.06833,5.62522 -2.2829,11.55746 -3.30962,17.37551 -0.44189,2.50407 -1.15613,4.95325 -1.65481,7.44664 -0.32901,1.64506 -0.42052,3.33689 -0.8274,4.96443 -2.26533,9.0613 -1.65481,0.71286 -1.65481,10.75627 0,0.4032 -0.22081,3.91622 0,4.13703 1.54799,1.54799 9.13448,0.8274 11.58367,0.8274"
       id="path4119"
       inkscape:connector-curvature="0"
       inkscape:export-filename="/Users/christian/Documents/Informatik/Autorennen/autorennen/img/instruction_building_2.png"
       inkscape:export-xdpi="89.938164"
       inkscape:export-ydpi="89.938164" />
    <path
       style="fill:none;stroke:#000000;stroke-width:2;stroke-linecap:butt;stroke-linejoin:miter;stroke-miterlimit:4;stroke-opacity:1;stroke-dasharray:none"
       d="m 430.11367,922.45957 c 0.94521,3.22927 -3.58014,4.66223 -4.13703,7.44664 -0.16226,0.81134 0.13603,1.66607 0,2.48222 -0.14338,0.86029 -0.65636,1.62699 -0.8274,2.48221 -0.64295,3.21476 1.20007,6.1645 3.30962,8.27406 2.59175,2.59175 0.55673,1.05009 4.13702,2.48221 2.15771,0.86309 1.81679,0.82741 4.13703,0.82741"
       id="path4121"
       inkscape:connector-curvature="0"
       inkscape:export-filename="/Users/christian/Documents/Informatik/Autorennen/autorennen/img/instruction_building_2.png"
       inkscape:export-xdpi="89.938164"
       inkscape:export-ydpi="89.938164" />
    <path
       style="fill:none;stroke:#000000;stroke-width:2;stroke-linecap:butt;stroke-linejoin:miter;stroke-miterlimit:4;stroke-opacity:1;stroke-dasharray:none"
       d="m 435.0781,906.73887 c -1.37901,-0.55161 -2.75802,-1.10321 -4.13703,-1.65481 -0.2758,-0.2758 -0.47854,-0.65298 -0.8274,-0.82741 -1.22579,-0.61289 -0.70483,0.33709 -0.82741,0.82741 -0.069,0.27615 -1.43568,4.35615 -0.8274,4.96443 0.19502,0.19502 0.5516,0 0.8274,0 0.27581,0 0.58795,0.13683 0.82741,0 1.72679,-0.98674 4.57439,-1.35941 4.96443,-3.30962 0.2758,-1.37901 -2.74984,-0.59621 -4.13703,-0.82741 -0.27204,-0.0453 -0.63238,-0.19502 -0.8274,0 -0.19502,0.19502 0,0.55161 0,0.82741 0,0.2758 -0.2758,0.8274 0,0.8274 1.67764,0 3.30962,-0.5516 4.96443,-0.8274 z"
       id="path4127"
       inkscape:connector-curvature="0"
       inkscape:export-filename="/Users/christian/Documents/Informatik/Autorennen/autorennen/img/instruction_building_2.png"
       inkscape:export-xdpi="89.938164"
       inkscape:export-ydpi="89.938164" />
    <path
       style="fill:none;stroke:#000000;stroke-width:2;stroke-linecap:butt;stroke-linejoin:miter;stroke-miterlimit:4;stroke-opacity:1;stroke-dasharray:none"
       d="m 464.86469,924.11438 c -3.94023,-0.0814 -7.71227,-0.14045 -11.58368,0.8274 -1.69224,0.42306 -3.28157,1.19585 -4.96443,1.65481 -2.30084,0.6275 -5.55039,0.58596 -7.44664,2.48222 -2.27379,2.27379 -1.65481,5.46669 -1.65481,8.27405 0,2.29936 0.43588,5.41509 1.65481,7.44665 1.06306,1.77176 1.76965,1.55823 3.30962,2.48221 3.57399,2.1444 3.98011,2.48222 8.27405,2.48222 0.5516,0 1.13151,0.17443 1.65481,0 2.34025,-0.78009 4.41283,-2.20642 6.61924,-3.30962 3.65849,-1.82925 2.43746,-0.78265 4.13703,-2.48222"
       id="path4129"
       inkscape:connector-curvature="0"
       inkscape:export-filename="/Users/christian/Documents/Informatik/Autorennen/autorennen/img/instruction_building_2.png"
       inkscape:export-xdpi="89.938164"
       inkscape:export-ydpi="89.938164" />
    <path
       style="fill:none;stroke:#000000;stroke-width:2;stroke-linecap:butt;stroke-linejoin:miter;stroke-miterlimit:4;stroke-opacity:1;stroke-dasharray:none"
       d="m 472.31133,895.9826 c 0,12.68688 0,25.37376 0,38.06064 0,1.37901 0,2.75802 0,4.13702 0,1.10321 -0.26756,2.23936 0,3.30963 0.0669,0.26756 0.55161,0 0.82741,0"
       id="path4131"
       inkscape:connector-curvature="0"
       inkscape:export-filename="/Users/christian/Documents/Informatik/Autorennen/autorennen/img/instruction_building_2.png"
       inkscape:export-xdpi="89.938164"
       inkscape:export-ydpi="89.938164" />
    <path
       style="fill:none;stroke:#000000;stroke-width:2;stroke-linecap:butt;stroke-linejoin:miter;stroke-miterlimit:4;stroke-opacity:1;stroke-dasharray:none"
       d="m 498.7883,915.84032 c -1.10321,0 -2.20641,0 -3.30962,0 -3.03382,0 -6.13498,-0.63567 -9.10146,0 -2.05382,0.44011 -3.86122,1.65482 -5.79183,2.48222 -1.93062,0.82741 -3.87967,1.61305 -5.79184,2.48222 -1.12287,0.51039 -2.36208,0.86519 -3.30962,1.65481 -0.76393,0.63661 -0.95165,1.77905 -1.65481,2.48221 -0.19502,0.19502 -0.63239,-0.19502 -0.82741,0 -0.19502,0.19502 -0.26756,0.76052 0,0.82741 4.68522,1.1713 9.27326,-2.61334 14.06589,-1.65481 1.04295,0.20859 1.6011,3.2201 1.65481,3.30962 0.40135,0.66891 1.30595,0.95708 1.65481,1.65481 0.82741,1.65481 -0.4137,1.24111 0,2.48221 0.19502,0.58507 0.63239,1.06975 0.82741,1.65481 0.17443,0.5233 -0.17444,1.13152 0,1.65481 1.01083,3.0325 1.72573,1.72573 3.30962,3.30962"
       id="path4133"
       inkscape:connector-curvature="0"
       inkscape:export-filename="/Users/christian/Documents/Informatik/Autorennen/autorennen/img/instruction_building_2.png"
       inkscape:export-xdpi="89.938164"
       inkscape:export-ydpi="89.938164" />
    <path
       style="fill:none;stroke:#000000;stroke-width:2;stroke-linecap:butt;stroke-linejoin:miter;stroke-miterlimit:4;stroke-opacity:1;stroke-dasharray:none"
       d="m 525.26527,900.11963 c 0,11.01351 0.2267,-3.5479 -0.82741,9.10145 -0.29775,3.57304 0,7.17085 0,10.75627 0,1.40807 -0.39297,9.18438 0,10.75627 0.0946,0.37839 0.65297,0.47854 0.82741,0.8274 0.39004,0.78009 0.37868,1.73435 0.8274,2.48222 1.22767,2.04612 2.08182,1.66013 4.13703,2.48221 0.5726,0.22905 1.06974,0.63239 1.65481,0.82741 0.78494,0.26165 1.65481,0 2.48221,0 0.2758,0 0.63239,0.19502 0.82741,0 0.43608,-0.43608 0.48531,-1.14168 0.8274,-1.65481 0.21636,-0.32454 0.70407,-0.45738 0.82741,-0.82741 0.26165,-0.78494 0,-1.65481 0,-2.48221"
       id="path4135"
       inkscape:connector-curvature="0"
       inkscape:export-filename="/Users/christian/Documents/Informatik/Autorennen/autorennen/img/instruction_building_2.png"
       inkscape:export-xdpi="89.938164"
       inkscape:export-ydpi="89.938164" />
    <path
       style="fill:none;stroke:#000000;stroke-width:2;stroke-linecap:butt;stroke-linejoin:miter;stroke-miterlimit:4;stroke-opacity:1;stroke-dasharray:none"
       d="m 511.19938,917.49514 c 5.61126,-1.80451 11.60143,-0.34624 17.37551,-0.82741 1.67184,-0.13932 3.33688,-0.42052 4.96443,-0.82741 2.45009,-0.61252 0.86349,-0.8274 3.30962,-0.8274"
       id="path4137"
       inkscape:connector-curvature="0"
       inkscape:export-filename="/Users/christian/Documents/Informatik/Autorennen/autorennen/img/instruction_building_2.png"
       inkscape:export-xdpi="89.938164"
       inkscape:export-ydpi="89.938164" />
    <path
       style="fill:none;stroke:#000000;stroke-width:2;stroke-linecap:butt;stroke-linejoin:miter;stroke-miterlimit:4;stroke-opacity:1;stroke-dasharray:none"
       d="m 561.67109,916.66773 c -1.31361,0.40287 -9.90379,-0.51148 -10.75626,0 -0.85271,0.51162 -0.95166,1.77906 -1.65481,2.48222 -0.70316,0.70315 -1.88557,0.85927 -2.48222,1.65481 -0.33096,0.44128 0,1.1032 0,1.65481 0,1.1032 0,2.20641 0,3.30962 0,0.5516 0,1.1032 0,1.65481 0,0.8274 -0.49644,1.82029 0,2.48221 0.5233,0.69773 1.70213,0.43737 2.48222,0.82741 0.88943,0.44471 1.5682,1.26309 2.48221,1.65481 1.69724,0.72739 9.22493,1.40166 10.75627,0.8274 1.09562,-0.41086 1.65481,-1.65481 2.48221,-2.48221 0.82741,-0.82741 1.73312,-1.5833 2.48222,-2.48222 1.93049,-2.31658 6.04451,-10.50359 3.30962,-13.23848 -0.71877,-0.71877 -4.02767,-1.17869 -4.96443,-0.82741 -1.50579,0.56468 -2.53868,2.30463 -4.13703,2.48222 -3.80299,0.42255 -3.30962,-3.92758 -3.30962,0"
       id="path4139"
       inkscape:connector-curvature="0"
       inkscape:export-filename="/Users/christian/Documents/Informatik/Autorennen/autorennen/img/instruction_building_2.png"
       inkscape:export-xdpi="89.938164"
       inkscape:export-ydpi="89.938164" />
    <rect
       style="opacity:0.12916667;fill:none;stroke:#5b5b5b;stroke-width:2;stroke-linecap:round;stroke-linejoin:round;stroke-miterlimit:4;stroke-opacity:1;stroke-dasharray:none"
       id="rect4181"
       width="998.6781"
       height="600.69617"
       x="1.6548103"
       y="0.13124213"
       transform="translate(0,452.36218)"
       inkscape:export-xdpi="89.938164"
       inkscape:export-ydpi="89.938164"
       inkscape:export-filename="/Users/christian/Documents/Informatik/Autorennen/autorennen/img/instruction_building_2.png" />
    <path
       style="fill:none;stroke:#000000;stroke-width:2;stroke-linecap:butt;stroke-linejoin:miter;stroke-opacity:1;stroke-miterlimit:4;stroke-dasharray:none"
       d="m 613.38654,913.35811 c -0.97664,-0.36419 -7.03668,-1.44609 -8.27405,-0.82741 -0.69773,0.34887 -0.98589,1.25346 -1.65481,1.65481 -0.74787,0.44873 -1.78448,0.30411 -2.48221,0.82741 -0.49337,0.37003 -0.45738,1.16144 -0.82741,1.65481 -0.46805,0.62407 -1.30594,0.95708 -1.65481,1.65481 -0.24668,0.49337 0.17443,1.13151 0,1.65481 -0.12334,0.37003 -0.73281,0.44901 -0.8274,0.82741 -0.20068,0.8027 0,1.65481 0,2.48221 0,0.2758 -0.12335,0.58072 0,0.82741 0.17443,0.34886 0.61104,0.50287 0.8274,0.8274 0.20393,0.30589 0.89597,2.29251 1.65481,2.48222 0.8027,0.20067 1.69727,-0.26165 2.48222,0 11.16812,3.72271 -7.13001,0.0396 5.79183,1.65481 1.12838,0.14104 2.19455,0.60439 3.30962,0.8274 1.64506,0.32901 3.31938,0.4984 4.96443,0.82741 1.11508,0.22301 2.18389,0.66658 3.30963,0.8274 2.51059,0.35866 3.30962,-1.00189 3.30962,2.48222 0,1.23457 0.31613,5.98697 0,6.61924 -0.34887,0.69773 -1.10321,1.10321 -1.65481,1.65481 -0.27581,0.2758 -0.44901,0.73281 -0.82741,0.82741 -1.46713,0.36678 -7.77341,0 -9.10146,0 -2.35897,0 -7.3738,0.90024 -9.10145,-0.82741 -0.19502,-0.19502 0.19502,-0.63238 0,-0.8274 -1.9015,-1.9015 -1.65481,0.21449 -1.65481,-1.65481"
       id="path4229"
       inkscape:connector-curvature="0"
       inkscape:export-filename="/Users/christian/Documents/Informatik/Autorennen/autorennen/img/instruction_building_2.png"
       inkscape:export-xdpi="89.938164"
       inkscape:export-ydpi="89.938164" />
    <path
       style="fill:none;stroke:#000000;stroke-width:2;stroke-linecap:butt;stroke-linejoin:miter;stroke-opacity:1;stroke-miterlimit:4;stroke-dasharray:none"
       d="m 661.09674,894.32779 c 1.1448,6.86878 0.82741,3.28679 0.82741,10.75627 0,8.27405 0,16.5481 0,24.82215 0,2.48222 -0.40808,4.99821 0,7.44665 0.10139,0.60832 0.67783,1.05651 0.8274,1.65481 0.77109,3.08436 -1.39363,0.25021 0.82741,4.13703 0.68418,1.19731 1.79803,2.1123 2.48221,3.30962 0.43272,0.75724 0.34362,1.75653 0.82741,2.48221 0.15299,0.22948 0.55984,-0.0669 0.8274,0 1.10321,0.2758 2.3999,1.5097 3.30963,0.82741 0.9361,-0.70208 1.58329,-1.73312 2.48221,-2.48222 5.28262,-4.40218 0.619,0.72632 3.30962,-3.30962 1.02243,-1.53364 0.82741,-0.0759 0.82741,-1.65481"
       id="path4233"
       inkscape:connector-curvature="0"
       inkscape:export-filename="/Users/christian/Documents/Informatik/Autorennen/autorennen/img/instruction_building_2.png"
       inkscape:export-xdpi="89.938164"
       inkscape:export-ydpi="89.938164" />
    <path
       style="fill:none;stroke:#000000;stroke-width:2;stroke-linecap:butt;stroke-linejoin:miter;stroke-opacity:1;stroke-miterlimit:4;stroke-dasharray:none"
       d="m 655.30491,915.84032 c 1.37901,0 2.75801,0 4.13702,0 5.24024,0 10.48047,0 15.7207,0 0.5516,0 1.10321,0 1.65481,0 0.2758,0 0.82741,-0.2758 0.82741,0 0,0.27581 -0.55161,0 -0.82741,0"
       id="path4235"
       inkscape:connector-curvature="0"
       inkscape:export-filename="/Users/christian/Documents/Informatik/Autorennen/autorennen/img/instruction_building_2.png"
       inkscape:export-xdpi="89.938164"
       inkscape:export-ydpi="89.938164" />
    <path
       style="fill:none;stroke:#000000;stroke-width:2;stroke-linecap:butt;stroke-linejoin:miter;stroke-opacity:1;stroke-miterlimit:4;stroke-dasharray:none"
       d="m 736.39061,900.11963 c -5.27683,-1.48002 -9.66726,-0.91461 -14.89329,0.8274 -1.99265,0.66422 -4.04416,1.3171 -5.79183,2.48222 -0.97502,0.65001 -2.98061,4.47579 -3.30963,5.79183 -0.40688,1.62755 -0.49839,3.31938 -0.8274,4.96443 -0.22302,1.11508 -0.70183,2.17942 -0.82741,3.30963 -0.15228,1.37057 0,2.75801 0,4.13702 0,3.95358 -0.16972,5.45239 1.65481,9.10146 0.27581,0.5516 0.39133,1.21873 0.82741,1.65481 0.70316,0.70316 1.70571,1.0336 2.48222,1.65481 1.99779,1.59824 2.14818,3.01052 4.96443,4.13702 4.06668,1.62668 9.8145,0.82741 14.06588,0.82741 2.48222,0 4.98938,0.35104 7.44665,0 0.8634,-0.12334 1.62192,-0.68402 2.48222,-0.82741 3.44671,-0.57445 1.62635,0.85587 3.30962,-0.8274"
       id="path4243"
       inkscape:connector-curvature="0"
       inkscape:export-filename="/Users/christian/Documents/Informatik/Autorennen/autorennen/img/instruction_building_2.png"
       inkscape:export-xdpi="89.938164"
       inkscape:export-ydpi="89.938164" />
    <path
       style="fill:none;stroke:#000000;stroke-width:2;stroke-linecap:butt;stroke-linejoin:miter;stroke-opacity:1;stroke-miterlimit:4;stroke-dasharray:none"
       d="m 765.3498,919.97735 c -3.24769,-0.54128 -5.92131,-1.59007 -9.10146,0 -1.04659,0.5233 -1.65481,1.65481 -2.48222,2.48222 -2.19794,2.19794 -4.18025,3.48252 -4.96443,6.61924 -0.26756,1.07027 0,2.20641 0,3.30962 0,1.10321 -0.21635,2.22784 0,3.30962 0.0765,0.38247 0.61105,0.50287 0.82741,0.8274 0.34209,0.51314 0.29858,1.33752 0.8274,1.65481 0.97511,0.58507 2.23082,0.46781 3.30962,0.82741 2.27709,0.75903 1.19612,1.41559 4.13703,0.82741 2.32595,-0.46519 5.36843,-5.32964 5.79184,-7.44665 0,-6.99564 -0.40135,-2.74465 0.8274,-8.27405 0.30507,-1.37283 -0.57891,-4.13703 0.82741,-4.13703 1.40631,0 0.33361,2.82025 0.8274,4.13703 0.34916,0.9311 1.26309,1.5682 1.65481,2.48221 2.07451,4.84053 -0.37199,2.11022 1.65481,4.13703"
       id="path4245"
       inkscape:connector-curvature="0"
       inkscape:export-filename="/Users/christian/Documents/Informatik/Autorennen/autorennen/img/instruction_building_2.png"
       inkscape:export-xdpi="89.938164"
       inkscape:export-ydpi="89.938164" />
    <path
       style="fill:none;stroke:#000000;stroke-width:2;stroke-linecap:butt;stroke-linejoin:miter;stroke-opacity:1;stroke-miterlimit:4;stroke-dasharray:none"
       d="m 765.3498,923.28697 c 0.20676,3.68832 2.02853,7.12684 2.48221,10.75627 0.13684,1.09469 -0.18136,2.22142 0,3.30962 1.07409,6.44454 0.82741,-2.80468 0.82741,3.30962"
       id="path4247"
       inkscape:connector-curvature="0"
       inkscape:export-filename="/Users/christian/Documents/Informatik/Autorennen/autorennen/img/instruction_building_2.png"
       inkscape:export-xdpi="89.938164"
       inkscape:export-ydpi="89.938164" />
    <path
       style="fill:none;stroke:#000000;stroke-width:2;stroke-linecap:butt;stroke-linejoin:miter;stroke-opacity:1;stroke-miterlimit:4;stroke-dasharray:none"
       d="m 776.10606,919.14995 c 1.4593,5.06856 0.82741,10.49139 0.82741,15.72069 0,1.10321 0,2.20642 0,3.30962 0,1.10321 1.10321,3.30963 0,3.30963 -1.10321,0 0,-2.20642 0,-3.30963 0,-1.39107 -0.32717,-9.77474 0,-10.75626 1.03228,-3.09685 5.43082,-5.80689 8.27405,-6.61924 1.42553,-0.4073 4.94346,0 6.61924,0"
       id="path4249"
       inkscape:connector-curvature="0"
       inkscape:export-filename="/Users/christian/Documents/Informatik/Autorennen/autorennen/img/instruction_building_2.png"
       inkscape:export-xdpi="89.938164"
       inkscape:export-ydpi="89.938164" />
    <path
       style="fill:none;stroke:#000000;stroke-width:2;stroke-linecap:butt;stroke-linejoin:miter;stroke-opacity:1;stroke-miterlimit:4;stroke-dasharray:none"
       d="m 818.30373,916.66773 c -10.87917,0 -0.93987,-0.61051 -10.75627,1.65481 -1.90027,0.43852 -3.87949,0.44494 -5.79184,0.82741 -0.10387,0.0208 -3.79757,1.14563 -4.13702,1.65481 -0.54524,0.81785 0.0976,4.4171 0.8274,4.96443 0.61793,0.46344 5.47342,1.55928 5.79184,1.65481 19.3538,6.45127 -7.27147,-2.19577 9.10146,2.48221 0.59298,0.16943 1.06974,0.63239 1.65481,0.82741 1.52839,0.50946 0.39227,-1.26254 2.48221,0.8274 1.1369,1.1369 0.82741,2.73335 0.82741,4.13703 0,0.5516 0,1.10321 0,1.65481 0,0.2758 0.15299,0.59792 0,0.8274 -2.55645,3.83468 -9.19055,2.48222 -13.23848,2.48222 -2.75802,0 -5.51604,0 -8.27406,0"
       id="path4251"
       inkscape:connector-curvature="0"
       inkscape:export-filename="/Users/christian/Documents/Informatik/Autorennen/autorennen/img/instruction_building_2.png"
       inkscape:export-xdpi="89.938164"
       inkscape:export-ydpi="89.938164" />
    <path
       style="fill:none;stroke:#000000;stroke-width:2;stroke-linecap:butt;stroke-linejoin:miter;stroke-opacity:1;stroke-miterlimit:4;stroke-dasharray:none"
       d="m 627.17313,925.76919 c 4.11951,-0.61113 9.21228,0.80524 13.23848,0 1.20947,-0.2419 2.17593,-1.16894 3.30962,-1.65481 0.80165,-0.34356 1.627,-0.65636 2.48222,-0.82741 0.54089,-0.10818 1.19585,0.30598 1.65481,0 0.51314,-0.34209 0.48532,-1.14167 0.82741,-1.65481 0.43271,-0.64907 1.40812,-0.91476 1.65481,-1.65481 0.4334,-1.30021 0.0678,-6.25308 -0.82741,-7.44665 -0.37003,-0.49337 -1.08221,-0.59836 -1.65481,-0.8274 -2.76818,-1.10727 -6.34109,-1.38018 -9.10146,0 -1.04659,0.5233 -1.5685,1.75124 -2.48221,2.48221 -0.77651,0.62121 -1.77906,0.95166 -2.48222,1.65481 -1.5626,1.56261 -0.39046,1.56186 -0.8274,3.30963 -0.14958,0.59829 -0.67783,1.05651 -0.82741,1.65481 -0.40211,1.60843 0,5.43624 0,7.44664 0,0.79642 -0.21427,2.45252 0,3.30962 0.21153,0.84612 0.65636,1.62699 0.82741,2.48222 0.10818,0.54089 -0.33097,1.21353 0,1.65481 0.59665,0.79553 1.7057,1.0336 2.48221,1.65481 0.60915,0.48731 0.95708,1.30595 1.65481,1.65481 1.01711,0.50855 2.23082,0.4678 3.30962,0.82741 0.58507,0.19502 1.04649,0.72601 1.65481,0.8274 1.35257,0.22543 3.42638,0 4.96444,0"
       id="path4257"
       inkscape:connector-curvature="0"
       inkscape:export-filename="/Users/christian/Documents/Informatik/Autorennen/autorennen/img/instruction_building_2.png"
       inkscape:export-xdpi="89.938164"
       inkscape:export-ydpi="89.938164" />
    <path
       style="fill:none;stroke:#000000;stroke-width:2;stroke-linecap:butt;stroke-linejoin:miter;stroke-opacity:1;stroke-miterlimit:4;stroke-dasharray:none"
       d="m 375.64195,342.67699 c -2.48346,0.88771 -5.71137,-0.64067 -8.27405,0 -2.88053,0.72013 -8.69967,4.06467 -10.75627,4.96443 -12.45063,5.44715 -2.60137,-0.45231 -9.10145,4.96443 -0.76394,0.63661 -1.9706,0.8021 -2.48222,1.65481 -0.0988,0.16469 0,7.43264 0,7.44665 0,2.48221 -0.30788,4.9836 0,7.44664 0.10818,0.86543 0.70406,1.61882 0.82741,2.48222 0.25283,1.76983 0.25045,9.83049 0,11.58367 -0.16082,1.12573 -0.60439,2.19455 -0.82741,3.30962 -0.10818,0.54089 0.17443,1.13152 0,1.65481 -0.19502,0.58507 -0.63238,1.06975 -0.8274,1.65481 -0.0872,0.26165 0.19502,0.63239 0,0.82741 -0.19503,0.19502 -0.70407,-0.24669 -0.82741,0 -0.24668,0.49337 0.17443,1.13151 0,1.65481 -0.12334,0.37003 -0.65297,0.47854 -0.8274,0.8274 -0.39005,0.78009 -0.30411,1.78449 -0.82741,2.48222 -0.37003,0.49337 -1.21873,0.39132 -1.65481,0.8274 -0.19502,0.19503 0.19502,0.63239 0,0.82741 -0.19502,0.19502 -0.5516,0 -0.8274,0 -0.27581,0 -0.63239,0.19502 -0.82741,0 -0.19502,-0.19502 0,-0.5516 0,-0.82741"
       id="path4259"
       inkscape:connector-curvature="0"
       transform="translate(0,452.36218)" />
    <path
       style="fill:none;stroke:#000000;stroke-width:2;stroke-linecap:butt;stroke-linejoin:miter;stroke-opacity:1;stroke-miterlimit:4;stroke-dasharray:none"
       d="m 335.9265,370.80876 c 5.66862,1.33147 11.58256,0.82741 17.37551,0.82741"
       id="path4261"
       inkscape:connector-curvature="0"
       transform="translate(0,452.36218)" />
    <path
       style="fill:none;stroke:#000000;stroke-width:2;stroke-linecap:butt;stroke-linejoin:miter;stroke-opacity:1;stroke-miterlimit:4;stroke-dasharray:none"
       d="m 370.67752,365.84433 c 0.87994,-4.84305 1.45986,-3.72672 5.79184,-4.96443 0.8386,-0.2396 1.61882,-0.70406 2.48221,-0.8274 1.36515,-0.19502 2.75802,0 4.13703,0 0.5516,0 1.32385,-0.44129 1.65481,0 0.74005,0.98674 1.35566,2.11302 1.65481,3.30962 0.26757,1.07027 0,2.20641 0,3.30962 0,1.10321 0.34887,2.26303 0,3.30962 -3.70279,11.10838 0.32196,-3.28713 -3.30962,5.79184 -0.20486,0.51215 0.30597,1.19584 0,1.65481 -1.9015,2.85224 -1.65481,-0.63968 -1.65481,1.65481 0,0.2758 -0.12334,0.58072 0,0.8274 0.5782,1.15641 5.46724,1.94281 6.61924,1.65481 0.5983,-0.14957 1.05651,-0.67783 1.65481,-0.8274 0.53514,-0.13379 1.26477,0.39004 1.65481,0 0.39004,-0.39005 -0.17443,-1.13152 0,-1.65481 1.02243,-3.06728 0.82741,1.00856 0.82741,-1.65481"
       id="path4263"
       inkscape:connector-curvature="0"
       transform="translate(0,452.36218)" />
    <path
       style="fill:none;stroke:#000000;stroke-width:2;stroke-linecap:butt;stroke-linejoin:miter;stroke-opacity:1;stroke-miterlimit:4;stroke-dasharray:none"
       d="m 388.05303,345.1592 c -0.5516,1.10321 -1.19673,2.16442 -1.65481,3.30962 -0.768,1.92001 1.65481,0.22913 1.65481,0.82741 0,0.61671 -1.10321,1.10321 -0.8274,1.65481 0.48131,0.96263 4.60413,-1.29451 4.96443,-1.65481 0.43608,-0.43608 0.8274,-1.0381 0.8274,-1.65481 0,-0.2758 -0.58072,0.12334 -0.8274,0 -1.43841,-0.7192 -2.61137,-2.99077 -4.13703,-2.48222 -11.05003,3.68335 -2.00528,6.49278 -0.8274,4.13703 0.62892,-1.25785 0.5516,-2.75802 0.8274,-4.13703 z"
       id="path4267"
       inkscape:connector-curvature="0"
       transform="translate(0,452.36218)" />
    <path
       style="fill:none;stroke:#000000;stroke-width:2;stroke-linecap:butt;stroke-linejoin:miter;stroke-opacity:1;stroke-miterlimit:4;stroke-dasharray:none"
       d="m 407.08335,355.08807 c 0,1.1032 -0.13684,2.21493 0,3.30962 0.85056,6.8045 0.99756,-0.44031 1.65481,7.44664 0.40732,4.88781 0,9.97508 0,14.8933 0,0.2758 -0.0541,-0.55696 0,-0.82741 0.22302,-1.11508 0.58072,-2.19954 0.82741,-3.30962 2.0316,-9.1422 -0.20769,1.24947 0.8274,-9.10146 0.11619,-1.16184 1.52595,-7.55685 2.48222,-8.27405 0.69773,-0.5233 1.73434,-0.37868 2.48221,-0.8274 0.66892,-0.40135 0.95708,-1.30595 1.65481,-1.65481 4.00163,-2.00082 2.25301,-0.11964 5.79184,-0.82741 0.60473,-0.12095 1.06975,-0.63238 1.65481,-0.8274 0.26165,-0.0872 0.56576,-0.0872 0.8274,0 3.24605,1.08201 0.99631,2.33042 1.65481,4.96443 0.36023,1.44089 1.38913,2.67574 1.65481,4.13702 0.48164,2.64899 0,6.28309 0,9.10146 0,0.94659 -0.38819,9.15248 0,9.92886 1.8078,3.6156 1.65482,1.2371 1.65482,3.30962"
       id="path4269"
       inkscape:connector-curvature="0"
       transform="translate(0,452.36218)" />
    <path
       style="fill:none;stroke:#000000;stroke-width:2;stroke-linecap:butt;stroke-linejoin:miter;stroke-opacity:1;stroke-miterlimit:4;stroke-dasharray:none"
       d="m 441.83437,358.39769 c 2.60268,-2.08215 3.55576,-3.62645 6.61924,-4.13703 0.81615,-0.13602 1.67951,0.20068 2.48221,0 0.3784,-0.0946 0.45738,-0.70406 0.82741,-0.8274 0.5233,-0.17444 1.10321,0 1.65481,0 0.2758,0 0.63238,-0.19503 0.82741,0 0.19502,0.19502 -0.0872,0.56575 0,0.8274 1.44411,4.33235 0.8274,-2.19104 0.8274,5.79184 0,3.64473 0.40972,3.83371 -1.65481,7.44664 -0.38703,0.67731 -1.18676,1.03075 -1.65481,1.65481 -0.83161,1.10881 -1.17805,2.94512 -1.65481,4.13703 -0.2758,0.5516 -0.5516,1.10321 -0.82741,1.65481 -0.2758,0.2758 -0.65297,0.47854 -0.8274,0.82741 -0.12334,0.24668 0,0.5516 0,0.8274 0,0.5516 -0.39004,1.26477 0,1.65481 0.0665,0.0665 3.65923,-0.0796 4.13703,0 1.49749,0.24958 4.11728,1.66468 5.79183,0.82741 0.5516,-0.27581 0.48532,-1.14168 0.82741,-1.65481 1.35482,-2.03224 1.65481,0.65044 1.65481,-2.48222"
       id="path4271"
       inkscape:connector-curvature="0"
       transform="translate(0,452.36218)" />
    <path
       style="fill:none;stroke:#000000;stroke-width:2;stroke-linecap:butt;stroke-linejoin:miter;stroke-opacity:1;stroke-miterlimit:4;stroke-dasharray:none"
       d="m 454.24545,339.36737 c -3.69991,-0.20227 -4.08831,-0.19489 -4.96444,3.30962 -0.0669,0.26756 -0.26164,0.74019 0,0.8274 0.78495,0.26165 1.66313,-0.11701 2.48222,0 1.12573,0.16082 2.72456,1.80251 3.30962,0.82741 0.86314,-1.43856 -2.01367,-3.77816 -0.8274,-4.96443 1.05022,-1.05022 2.75801,2.20641 4.13702,1.65481 1.0243,-0.40972 0,-2.20642 0,-3.30962 0,-0.2758 0.25608,-0.92984 0,-0.82741 -1.49316,0.59727 -2.75802,1.65481 -4.13702,2.48222 z"
       id="path4273"
       inkscape:connector-curvature="0"
       transform="translate(0,452.36218)" />
    <path
       style="fill:none;stroke:#000000;stroke-width:2;stroke-linecap:butt;stroke-linejoin:miter;stroke-opacity:1;stroke-miterlimit:4;stroke-dasharray:none"
       d="m 480.72241,354.26066 c -1.93061,-0.2758 -3.84658,-0.96635 -5.79183,-0.8274 -2.00277,0.14305 -3.93843,0.88255 -5.79184,1.65481 -0.23885,0.0995 -5.21523,2.69551 -5.79184,4.13702 -0.30729,0.76823 0,1.65481 0,2.48222 0,0.5516 -0.24668,1.16144 0,1.65481 0.34887,0.69773 1.10321,1.1032 1.65481,1.65481 0.82741,0.8274 1.50861,1.83314 2.48222,2.48221 0.72568,0.48379 1.68057,0.48385 2.48221,0.82741 1.70055,0.7288 3.16954,2.03349 4.96444,2.48221 1.23024,0.30756 4.80902,-0.31081 4.96443,0 0.0234,0.0467 0.0234,8.22731 0,8.27406 -0.12335,0.24668 -0.59793,-0.15299 -0.82741,0 -0.64907,0.43271 -0.95708,1.30594 -1.65481,1.65481 -0.49337,0.24668 -1.10321,0 -1.65481,0 -1.10321,0 -2.20641,0 -3.30962,0 -0.82741,0 -1.67951,0.20067 -2.48222,0 -0.37839,-0.0946 -0.5516,-0.55161 -0.8274,-0.82741 -1.79633,-1.79633 -1.65481,-1.32946 -1.65481,-3.30962"
       id="path4275"
       inkscape:connector-curvature="0"
       transform="translate(0,452.36218)" />
    <path
       style="fill:none;stroke:#000000;stroke-width:2;stroke-linecap:butt;stroke-linejoin:miter;stroke-opacity:1;stroke-miterlimit:4;stroke-dasharray:none"
       d="m 484.03203,327.78369 c 0.21955,2.19547 -0.21954,4.42378 0,6.61925 0.16693,1.66931 0.68809,3.29259 0.82741,4.96443 0.27485,3.29819 0,6.61924 0,9.92886 0,6.06764 0,12.13528 0,18.20291 0,2.29173 -0.37794,7.66127 0,9.92887 0.10138,0.60832 0.21069,1.65481 0.8274,1.65481 0.55161,0 -0.13378,-1.11968 0,-1.65481 0.42306,-1.69225 1.28933,-3.25883 1.65481,-4.96444 0.46591,-2.17422 0.25447,-4.47073 0.82741,-6.61924 0.72943,-2.73538 4.13121,-10.54505 6.61924,-12.41107 2.22453,-1.6684 4.8279,-1.65481 7.44665,-1.65481 1.65481,0 3.30962,0 4.96443,0 0.5516,0 1.19585,-0.30598 1.65481,0 2.14032,1.42687 0.25964,13.07578 0,14.89329 -0.2758,1.93061 -0.55161,3.86122 -0.82741,5.79183 0,1.37901 0.17105,2.76867 0,4.13703 -0.10818,0.86543 -0.61587,1.63609 -0.8274,2.48222 -0.72309,2.89236 0.8274,3.70362 0.8274,5.79183"
       id="path4277"
       inkscape:connector-curvature="0"
       transform="translate(0,452.36218)" />
    <path
       style="fill:none;stroke:#000000;stroke-width:2;stroke-linecap:butt;stroke-linejoin:miter;stroke-opacity:1;stroke-miterlimit:4;stroke-dasharray:none"
       d="m 541.9504,333.57553 c 1.34124,8.04748 1.07016,2.80186 -0.82741,13.23848 -0.60021,3.30116 -0.80092,6.68407 -1.65481,9.92887 -0.53455,2.03128 -1.97278,3.7541 -2.48222,5.79183 -0.53513,2.14054 0,4.41283 0,6.61924 0,0.40134 -0.0532,4.91122 0,4.96443 0.61672,0.61672 1.67244,0.5035 2.48222,0.82741 3.09606,1.23843 0.25189,0.53965 4.13703,2.48222 0.48469,0.24234 3.82394,0.12523 4.13702,0 0.92329,-0.36932 1.59278,-1.2101 2.48222,-1.65481 2.74386,-1.37194 2.48221,0.18937 2.48221,-1.65482"
       id="path4279"
       inkscape:connector-curvature="0"
       transform="translate(0,452.36218)" />
    <path
       style="fill:none;stroke:#000000;stroke-width:2;stroke-linecap:butt;stroke-linejoin:miter;stroke-opacity:1;stroke-miterlimit:4;stroke-dasharray:none"
       d="m 552.70666,355.08807 c 0.99711,-3.98843 -0.21932,-3.07835 3.30962,-4.13703 1.92319,-0.57696 3.81636,-1.29563 5.79184,-1.65481 0.67558,-0.12283 5.92428,-0.56251 6.61924,0.8274 0.37003,0.74006 0,1.65482 0,2.48222 0,1.37901 0.29915,2.79086 0,4.13703 -0.0779,0.35071 -4.63421,8.60613 -4.96443,9.10145 -0.43271,0.64907 -1.30595,0.95708 -1.65481,1.65481 -0.0947,0.18936 -0.0772,4.65573 0,4.96443 0.14957,0.5983 0.39132,1.21873 0.8274,1.65481 0.19503,0.19503 0.57133,-0.10243 0.82741,0 1.1452,0.45809 2.11302,1.35567 3.30962,1.65482 1.07027,0.26756 2.20641,0 3.30962,0 2.41798,0 4.09177,0.61194 5.79184,-1.65482 0.49644,-0.66192 0,-1.65481 0,-2.48221"
       id="path4281"
       inkscape:connector-curvature="0"
       transform="translate(0,452.36218)" />
    <path
       style="fill:none;stroke:#000000;stroke-width:2;stroke-linecap:butt;stroke-linejoin:miter;stroke-opacity:1;stroke-miterlimit:4;stroke-dasharray:none"
       d="m 568.42736,339.36737 c 4.34102,10.71755 4.1467,-2.48609 4.13703,-2.48222 -1.49317,0.59727 -2.57686,2.09217 -4.13703,2.48222 -4.52756,1.13189 -6.13541,-1.96686 -9.10146,2.48221 -2.63581,3.95372 5.8094,5.18077 7.44665,3.30962 1.32219,-1.51107 1.10321,-3.86122 1.65481,-5.79183 z"
       id="path4283"
       inkscape:connector-curvature="0"
       transform="translate(0,452.36218)" />
    <path
       style="fill:none;stroke:#000000;stroke-width:2;stroke-linecap:butt;stroke-linejoin:miter;stroke-opacity:1;stroke-miterlimit:4;stroke-dasharray:none"
       d="m 589.11249,353.43326 c 0,3.58542 0,7.17084 0,10.75626 0,3.58543 0,7.17085 0,10.75627 0,0.5516 0,1.10321 0,1.65481 0,0.2758 0,1.10321 0,0.82741 0,-2.48222 -0.24699,-4.97675 0,-7.44665 0.28652,-2.86515 1.43489,-9.33399 3.30962,-11.58367 0.63661,-0.76394 1.59278,-1.2101 2.48222,-1.65481 9.78283,-4.89142 2.02709,-0.35285 14.89329,-4.13703 9.27826,-2.7289 1.97526,-2.48222 6.61924,-2.48222 0.2758,0 0.76051,-0.26756 0.82741,0 0.31774,1.27097 0.0977,10.60625 0,11.58368 -0.22631,2.26303 -1.28092,4.37586 -1.65481,6.61924 -0.0884,0.53018 -0.28712,4.53376 0,4.96443 0.34209,0.51313 1.14167,0.48532 1.65481,0.8274 0.32453,0.21636 0.5516,0.55161 0.8274,0.82741"
       id="path4285"
       inkscape:connector-curvature="0"
       transform="translate(0,452.36218)" />
    <path
       style="fill:none;stroke:#000000;stroke-width:2;stroke-linecap:butt;stroke-linejoin:miter;stroke-opacity:1;stroke-miterlimit:4;stroke-dasharray:none"
       d="m 623.86351,369.98136 c 7.17932,0 5.64437,0.27205 14.89329,-1.65481 3.52183,-0.73371 12.73931,-2.88691 16.54811,-4.96443 2.81742,-1.53678 4.60105,-6.27634 2.48221,-9.10146 -0.62495,-0.83327 -4.83093,-1.60475 -4.96443,-1.65481 -1.15489,-0.43308 -2.10557,-1.38724 -3.30962,-1.65481 -1.34617,-0.29915 -2.75802,0 -4.13703,0 -2.75801,0 -5.51603,0 -8.27405,0 -0.8274,0 -1.65481,0 -2.48221,0 -0.27581,0 -0.67442,-0.22948 -0.82741,0 -1.36753,2.05129 -1.65481,5.9697 -1.65481,8.27405 0,5.45819 1.32189,7.11373 4.96443,10.75627 0.5516,0.5516 0.95708,1.30594 1.65481,1.65481 2.03421,1.01711 4.52881,0.75891 6.61924,1.65481 0.91402,0.39172 1.52606,1.38162 2.48222,1.65481 1.06076,0.30307 2.20641,0 3.30962,0 0.8274,0 1.66313,0.11701 2.48221,0 7.1974,-1.0282 -0.10202,-0.47604 5.79184,-1.65481 0.54089,-0.10818 1.26477,0.39004 1.65481,0 0.39004,-0.39004 0,-1.10321 0,-1.65481"
       id="path4287"
       inkscape:connector-curvature="0"
       transform="translate(0,452.36218)" />
  </g>
</svg>
