<?xml version="1.0" encoding="UTF-8" standalone="no"?>
<!-- Created with Inkscape (http://www.inkscape.org/) -->

<svg
   xmlns:dc="http://purl.org/dc/elements/1.1/"
   xmlns:cc="http://creativecommons.org/ns#"
   xmlns:rdf="http://www.w3.org/1999/02/22-rdf-syntax-ns#"
   xmlns:svg="http://www.w3.org/2000/svg"
   xmlns="http://www.w3.org/2000/svg"
   xmlns:sodipodi="http://sodipodi.sourceforge.net/DTD/sodipodi-0.dtd"
   xmlns:inkscape="http://www.inkscape.org/namespaces/inkscape"
   width="1000"
   height="600"
   id="svg2"
   version="1.1"
   inkscape:version="0.48.5 r10040"
   sodipodi:docname="instruction_building_2.svg">
  <defs
     id="defs4" />
  <sodipodi:namedview
     id="base"
     pagecolor="#ffffff"
     bordercolor="#666666"
     borderopacity="1.0"
     inkscape:pageopacity="0.0"
     inkscape:pageshadow="2"
     inkscape:zoom="1.2085977"
     inkscape:cx="497.47737"
     inkscape:cy="319.93"
     inkscape:document-units="px"
     inkscape:current-layer="layer1"
     showgrid="false"
     width="1052.36px"
     inkscape:window-width="1903"
     inkscape:window-height="982"
     inkscape:window-x="10"
     inkscape:window-y="1"
     inkscape:window-maximized="0" />
  <metadata
     id="metadata7">
    <rdf:RDF>
      <cc:Work
         rdf:about="">
        <dc:format>image/svg+xml</dc:format>
        <dc:type
           rdf:resource="http://purl.org/dc/dcmitype/StillImage" />
        <dc:title></dc:title>
      </cc:Work>
    </rdf:RDF>
  </metadata>
  <g
     inkscape:label="Layer 1"
     inkscape:groupmode="layer"
     id="layer1"
     transform="translate(0,-452.36218)">
    <path
       style="fill:none;stroke:#000000;stroke-width:2.02099991;stroke-linecap:butt;stroke-linejoin:miter;stroke-miterlimit:4;stroke-opacity:1;stroke-dasharray:none"
       d="m 127.31988,696.51712 c -1.3477,1.44136 -3.47494,1.16214 -5.03359,2.09734 -0.67824,0.40693 -1.11859,1.11856 -1.67788,1.67785 -2.21277,2.21277 -2.41967,2.77293 -2.93627,5.87255 -0.13975,0.83891 -0.35422,1.6688 -0.41947,2.51678 -0.075,0.97589 0,1.95752 0,2.93628 0,0.69912 -0.16968,1.4191 0,2.09734 0.12218,0.48907 0.51086,0.87562 0.83893,1.25838 0.51475,0.60055 0.99964,1.27095 1.67788,1.67788 0.7583,0.45498 1.67159,0.57888 2.51681,0.83893 3.60613,1.10958 3.49161,1.07181 7.96987,1.25841 1.57003,0.0655 7.78676,0.22458 9.64771,-0.83894 1.71231,-0.97846 1.67788,-2.50313 1.67788,-4.19466 0,-0.69911 -0.0695,-1.40169 0,-2.09734 0.071,-0.70943 0.41947,-1.38437 0.41947,-2.09734 0,-0.5765 -0.29442,-1.11509 -0.41947,-1.67787 -0.15459,-0.69597 -0.10067,-1.45964 -0.41947,-2.09732 -0.26528,-0.5306 -0.83894,-0.83893 -1.25841,-1.2584 -1.30079,-1.30083 -1.81529,-1.97352 -3.35572,-2.93628 -0.53025,-0.33141 -1.15758,-0.49206 -1.67787,-0.83894 -0.98717,-0.6581 -1.55136,-1.82719 -2.51681,-2.51678 -0.69167,-0.49407 -4.49164,-1.49724 -5.03359,-1.67787 z"
       id="path3029"
       inkscape:connector-curvature="0"
       inkscape:export-filename="/Users/christian/Documents/Informatik/Autorennen/autorennen/img/instruction_building_2.png"
       inkscape:export-xdpi="89.938164"
       inkscape:export-ydpi="89.938164" />
    <path
       style="fill:#6b6b6b;fill-opacity:1;stroke:#000000;stroke-width:2;stroke-linecap:butt;stroke-linejoin:miter;stroke-miterlimit:4;stroke-opacity:1;stroke-dasharray:none"
       d="m 134.87967,710.60528 c -0.2605,0.58059 0.36136,0.55312 0.50877,0.84795 0.0901,0.18011 -0.0499,0.4788 0,0.67835 0.0434,0.17343 0.13453,0.33348 0.16959,0.50877 0.0326,0.16307 -0.0326,0.3457 0,0.50877 0.0457,0.22855 0.13662,0.44762 0.16959,0.67836 0.048,0.33577 -0.10726,0.69576 0,1.01753 0.0645,0.19337 0.26348,0.31953 0.33918,0.50877 0.11505,0.28765 -0.0755,0.71546 0,1.01754 0.0307,0.12263 0.11305,0.22612 0.16958,0.33918 0,0.16959 -0.0333,0.34247 0,0.50877 -0.10221,0.30694 0.27473,0.3154 0.33918,0.50877 0.11655,0.34964 -0.13262,1.02515 0,1.35671 0.0757,0.18925 0.27473,0.31541 0.33918,0.50877 0.45224,1.35672 -0.15074,0.0754 0,0.67836 0.0434,0.17342 0.13453,0.33348 0.16959,0.50877 0.0652,0.32613 -0.0652,0.6914 0,1.01753 0.0903,0.45171 0.36841,0.76606 0.50877,1.18713 0.0536,0.16089 -0.0411,0.34424 0,0.50877 0.0307,0.12263 0.12962,0.21926 0.16959,0.33918 0.0715,0.21451 -0.0715,0.46384 0,0.67836 0.0179,0.0536 0.12962,-0.04 0.16959,0 0.04,0.04 0,0.11305 0,0.16958 0,0.11306 0,0.22612 0,0.33918 0,0.39625 0.0666,0.26632 0.16959,0.67836 0.0411,0.16453 -0.0758,0.35708 0,0.50877 0.0912,0.1823 0.24803,0.32647 0.33918,0.50877 0.0678,0.13567 -0.0678,0.3731 0,0.50877 0.0358,0.0715 0.1502,0.092 0.16959,0.16959 0.0548,0.21936 -0.10113,0.47611 0,0.67835 0.25858,0.51718 0.13444,-0.31017 0.33918,0.50877 0.0274,0.10969 0,0.22612 0,0.33918 0.0565,0.11306 0.12961,0.21926 0.16959,0.33918 0.0179,0.0536 -0.0253,0.11903 0,0.16959 0.0358,0.0715 0.13383,0.0981 0.16959,0.16959 0.0253,0.0506 -0.0253,0.11903 0,0.16959 0.0358,0.0715 0.1443,0.0937 0.16958,0.16959 0.0751,0.22539 -0.10766,0.63262 0,0.84795 0.0358,0.0715 0.13384,0.0981 0.16959,0.16959 0.0506,0.10112 -0.0506,0.23805 0,0.33917 0.20957,0.41913 0.16959,-0.0585 0.16959,0.33918 0,0.0565 0,0.22612 0,0.16959 0,-0.11306 0,-0.45224 0,-0.33918 0,0.11397 -0.0682,1.05074 0,1.18713 0.0358,0.0715 0.13384,0.0981 0.16959,0.16959 0.0506,0.10112 -0.0506,0.23805 0,0.33918 0.0358,0.0715 0.13384,0.0981 0.16959,0.16959 0.0695,0.13891 -0.0259,0.54881 0,0.67836 0.0351,0.17529 0.13453,0.33347 0.16959,0.50876 0.0222,0.11087 -0.0358,0.23193 0,0.33918 0.0253,0.0759 0.13384,0.0981 0.16959,0.16959 0.0253,0.0506 -0.0253,0.11903 0,0.16959 0.0358,0.0715 0.13384,0.0981 0.16959,0.16959 0.0695,0.13891 -0.0259,0.54882 0,0.67836 0.0351,0.17529 0.13453,0.33348 0.16959,0.50877 0.0444,0.22173 -0.0548,0.45899 0,0.67836 0.0307,0.12263 0.13893,0.21654 0.16959,0.33917 0.0274,0.10969 -0.0358,0.23193 0,0.33918 0.17417,0.5225 0.96801,-0.12576 1.18713,-0.16959 0.16629,-0.0333 0.3513,0.063 0.50876,0 0.14846,-0.0594 0.21127,-0.24324 0.33918,-0.33917 0.10113,-0.0759 0.23401,-0.0995 0.33918,-0.16959 0.23518,-0.15679 0.45765,-0.3322 0.67836,-0.50877 0.12485,-0.0999 0.20614,-0.25049 0.33918,-0.33918 0.047,-0.0314 0.11903,0.0253 0.16959,0 0.0715,-0.0358 0.10307,-0.12525 0.16959,-0.16959 0.21035,-0.14023 0.47611,-0.18749 0.67836,-0.33918 0.12791,-0.0959 0.21126,-0.24324 0.33918,-0.33918 0.53529,-0.40147 0.21173,0.12745 0.84794,-0.50877 0.04,-0.04 -0.0253,-0.11903 0,-0.16959 0.0358,-0.0715 0.13384,-0.0981 0.16959,-0.16959 0.0253,-0.0506 -0.04,-0.12961 0,-0.16959 0.04,-0.04 0.11903,0.0253 0.16959,0 0.14301,-0.0715 0.19617,-0.26767 0.33918,-0.33917 0.0506,-0.0253 0.12962,0.04 0.16959,0 0.04,-0.04 -0.0253,-0.11903 0,-0.16959 0.0358,-0.0715 0.13384,-0.0981 0.16959,-0.16959 0.0253,-0.0506 -0.04,-0.12962 0,-0.16959 0.04,-0.04 0.12962,0.04 0.16959,0 0.04,-0.04 -0.0314,-0.12256 0,-0.16959 0.38472,-0.57708 1.0542,-0.88461 1.5263,-1.35672 0.11306,-0.11306 0.25049,-0.20614 0.33918,-0.33918 0.0701,-0.10517 0.0802,-0.24979 0.16959,-0.33918 0.04,-0.04 0.11903,0.0253 0.16959,0 0.14301,-0.0715 0.19617,-0.26767 0.33918,-0.33918 0.0506,-0.0253 0.11903,0.0253 0.16959,0 0.0715,-0.0358 0.0981,-0.13383 0.16959,-0.16958 0.49907,-0.24954 -0.22328,0.39286 0.33918,-0.16959 0.0565,-0.0565 0.13384,-0.0981 0.16959,-0.16959 0.0253,-0.0506 -0.04,-0.12962 0,-0.16959 0.04,-0.04 0.13823,-0.047 0.16959,0 0.0992,0.14874 0.0896,0.34887 0.16959,0.50877 0.0715,0.14301 0.26767,0.19616 0.33918,0.33917 0.0799,0.15989 0.0776,0.35548 0.16959,0.50877 -0.23298,0.85883 0.3957,0.16959 0.50876,0.33918 0.0565,0.16959 0.11306,0.33918 0.16959,0.50877 0.0565,0 0.12962,-0.04 0.16959,0 0.0799,0.08 -0.0627,0.24511 0,0.33918 0.0887,0.13304 0.22612,0.22612 0.33918,0.33918 0.11306,0.11306 0.20208,0.25691 0.33918,0.33918 0.15329,0.092 0.36576,0.0623 0.50877,0.16959 0.10297,0.20595 0.14495,0.37928 0.33918,0.50876 0.10517,0.0701 0.23805,0.0937 0.33918,0.16959 1.06504,0.79878 -0.53543,-0.15167 0.84794,0.67836 0.1084,0.065 0.23401,0.0995 0.33918,0.16959 0.13304,0.0887 0.19617,0.26768 0.33918,0.33918 0.0506,0.0253 0.11903,-0.0253 0.16959,0 0.0715,0.0357 0.0981,0.13384 0.16959,0.16959 0.0506,0.0253 0.12256,-0.0314 0.16959,0 0.13304,0.0887 0.20614,0.25049 0.33918,0.33918 0.047,0.0314 0.12255,-0.0314 0.16959,0 0.19955,0.13304 0.29425,0.40151 0.50877,0.50877 0.0506,0.0253 0.11903,-0.0253 0.16959,0 0.14301,0.0715 0.19617,0.26767 0.33918,0.33918 0.0506,0.0253 0.12961,-0.04 0.16959,0 0.04,0.04 -0.0506,0.1443 0,0.16959 0.10112,0.0506 0.23192,-0.0358 0.33917,0 0.0759,0.0253 0.10308,0.12524 0.16959,0.16959 0.15492,0.10327 0.41156,0.14475 0.50877,0.33917 0.0253,0.0506 -0.0253,0.11903 0,0.16959 0.12598,0.25195 0.40387,0.40781 0.67836,0.33918 0.12263,-0.0307 0.22182,-0.12264 0.33918,-0.16959 0.16598,-0.0664 0.35548,-0.0776 0.50877,-0.16959 0.1371,-0.0823 0.20614,-0.25048 0.33918,-0.33918 0.0941,-0.0627 0.27646,0.0941 0.33918,0 0.0992,-0.14874 0.0896,-0.34887 0.16959,-0.50876 0.0358,-0.0715 0.13383,-0.0981 0.16958,-0.16959 0.0253,-0.0506 -0.0506,-0.14431 0,-0.16959 0.10113,-0.0506 0.23193,0.0357 0.33918,0 0.36946,0.0634 0.0565,-0.28265 0.16959,-0.33918 0.10113,-0.0506 0.23192,0.0357 0.33918,0 0.0758,-0.0253 0.10307,-0.12525 0.16959,-0.16959 0.10518,-0.0701 0.26906,-0.0644 0.33918,-0.16959 0.0627,-0.0941 -0.0357,-0.23192 0,-0.33918 0.0253,-0.0758 0.12524,-0.10307 0.16959,-0.16959 0.57116,-0.85673 0.001,-0.004 0.16959,-0.50877 0.40947,-1.2284 -0.0489,0.26738 0.33918,-0.50877 0.0678,-0.13567 -0.0678,-0.37309 0,-0.50876 0.0357,-0.0715 0.13384,-0.0981 0.16959,-0.16959 0.0253,-0.0506 -0.04,-0.12962 0,-0.16959 0.04,-0.04 0.12961,0.04 0.16959,0 0.1264,-0.12641 -0.0897,-0.34888 -0.16959,-0.50877 -0.0565,-0.11306 -0.0802,-0.2498 -0.16959,-0.33918 -0.19986,-0.19986 -0.45525,-0.33524 -0.67836,-0.50877 -0.28572,-0.22223 -0.55521,-0.46546 -0.84795,-0.67836 -1.62903,-1.18475 -0.39529,-0.207 -1.86548,-1.18712 -0.23518,-0.15679 -0.43295,-0.36854 -0.67836,-0.50877 -0.15521,-0.0887 -0.34279,-0.1032 -0.50877,-0.16959 -0.11736,-0.0469 -0.21926,-0.12962 -0.33918,-0.16959 -0.0536,-0.0179 -0.11902,0.0253 -0.16959,0 -0.21799,-0.109 -0.46036,-0.39977 -0.67835,-0.50877 -0.0506,-0.0253 -0.12962,0.04 -0.16959,0 -0.0894,-0.0894 -0.0802,-0.2498 -0.16959,-0.33918 -0.04,-0.04 -0.12962,0.04 -0.16959,0 -0.04,-0.04 0,-0.11306 0,-0.16959 -0.11306,-0.11306 -0.20614,-0.25049 -0.33918,-0.33918 -0.047,-0.0314 -0.11903,0.0253 -0.16959,0 -0.0715,-0.0357 -0.10563,-0.12162 -0.16959,-0.16959 -0.96245,-0.72183 -0.20148,0.037 -0.67836,-0.67835 -0.20956,-0.31435 -0.16959,-0.0156 -0.16959,-0.33918 0,-0.16959 -0.0536,-0.34788 0,-0.50877 0.0253,-0.0758 0.13384,-0.0981 0.16959,-0.16959 0.0253,-0.0506 -0.0253,-0.11903 0,-0.16959 0.0715,-0.14301 0.26768,-0.19617 0.33918,-0.33918 0.0253,-0.0506 -0.0253,-0.11903 0,-0.16959 0.0357,-0.0715 0.12524,-0.10307 0.16959,-0.16959 0.0701,-0.10517 0.0995,-0.234 0.16959,-0.33918 0.0887,-0.13303 0.25049,-0.20614 0.33918,-0.33918 0.0701,-0.10517 0.0644,-0.26906 0.16959,-0.33917 0.80602,-0.53735 -0.14257,0.65133 0.67836,-0.16959 0.0894,-0.0894 0.0802,-0.2498 0.16959,-0.33918 0.04,-0.04 0.12961,0.04 0.16959,0 0.20655,-0.20656 0.0794,-0.3789 0.33917,-0.50877 0.0506,-0.0253 0.11306,0 0.16959,0 0.11306,-0.11306 0.20615,-0.25049 0.33918,-0.33918 0.047,-0.0314 0.12962,0.04 0.16959,0 0.04,-0.04 -0.0253,-0.11903 0,-0.16959 0.0358,-0.0715 0.12525,-0.10307 0.16959,-0.16959 0.0701,-0.10517 0.0802,-0.2498 0.16959,-0.33918 0.0894,-0.0894 0.2498,-0.0802 0.33918,-0.16959 0.04,-0.04 -0.0253,-0.11903 0,-0.16959 0.25859,-0.51717 0.13444,0.31017 0.33918,-0.50877 0.0274,-0.10968 -0.0506,-0.23805 0,-0.33917 0.0253,-0.0506 0.11903,0.0253 0.16959,0 0.0715,-0.0358 0.13384,-0.0981 0.16959,-0.16959 0.0253,-0.0506 -0.04,-0.12962 0,-0.16959 0.04,-0.04 0.12961,0.04 0.16959,0 0.04,-0.04 -0.04,-0.12962 0,-0.16959 0.04,-0.04 0.11903,0.0253 0.16959,0 0.70579,-0.3529 -0.1813,0.0117 0.16959,-0.33918 0.04,-0.04 0.11902,0.0253 0.16959,0 0.0715,-0.0358 0.0937,-0.14431 0.16959,-0.16959 0.10725,-0.0358 0.2451,0.0627 0.33917,0 0.10518,-0.0701 0.0802,-0.2498 0.16959,-0.33918 0.0105,-0.47752 0.38237,-0.0432 0.50877,-0.16959 0.0894,-0.0894 0.0995,-0.234 0.16959,-0.33918 0.22298,-0.33446 0.25702,-0.0583 0.67836,-0.33918 0.047,-0.0314 -0.04,-0.12961 0,-0.16959 0.35089,-0.35088 -0.0137,0.5362 0.33918,-0.16959 0.0506,-0.10112 -0.0358,-0.23192 0,-0.33918 0.04,-0.11991 0.12962,-0.21926 0.16959,-0.33917 0.0179,-0.0536 -0.0253,-0.11903 0,-0.16959 0.12987,-0.25974 0.30221,-0.13263 0.50877,-0.33918 0.0799,-0.0799 -0.0358,-0.23192 0,-0.33918 0.04,-0.11992 0.22612,-0.22612 0.16959,-0.33918 -0.0506,-0.10112 -0.22612,0 -0.33918,0 -0.38044,0 -0.2064,0.0137 -0.84795,-0.16959 -0.34377,-0.0982 -0.66488,-0.2804 -1.01754,-0.33918 -0.39032,-0.0651 -0.79384,0.0437 -1.18712,0 -0.28649,-0.0318 -0.56089,-0.14349 -0.84795,-0.16959 -0.73187,-0.0665 -1.46978,0 -2.20466,0 -0.66476,0 -1.87404,0.11164 -2.54385,0 -0.23723,-0.0395 -0.61071,-0.29964 -0.84794,-0.33918 -0.22305,-0.0372 -0.45224,0 -0.67836,0 -0.28265,-0.11306 -0.54944,-0.27947 -0.84795,-0.33918 -0.27716,-0.0554 -0.56814,0.04 -0.84795,0 -0.51594,-0.0737 -1.01524,-0.23696 -1.5263,-0.33918 -0.84706,-0.16941 -1.69721,-0.33944 -2.54384,-0.50876 -0.0554,-0.0111 -0.11596,0.0179 -0.16959,0 -0.11992,-0.04 -0.21655,-0.13894 -0.33918,-0.16959 -0.10969,-0.0274 -0.2295,0.0274 -0.33918,0 -0.12263,-0.0307 -0.21764,-0.13487 -0.33918,-0.16959 -0.27716,-0.0792 -0.56831,-0.0997 -0.84795,-0.16959 -0.17342,-0.0434 -0.3318,-0.14431 -0.50877,-0.16959 -0.22384,-0.032 -0.45531,0.0372 -0.67835,0 -0.12469,-0.0208 -0.21523,-0.1448 -0.33918,-0.16959 -0.1663,-0.0333 -0.34788,0.0536 -0.50877,0 -1.0076,-0.33587 -0.008,-0.3646 -1.01754,-0.50877 -0.22384,-0.032 -0.45451,0.032 -0.67836,0 -0.61756,-0.0882 -0.35674,-0.17544 -0.84794,-0.33918 -0.0536,-0.0179 -0.11475,0.0137 -0.16959,0 -0.17343,-0.0434 -0.33348,-0.13453 -0.50877,-0.16959 -0.22173,-0.0443 -0.46384,0.0715 -0.67836,0 -0.0758,-0.0253 -0.092,-0.1502 -0.16959,-0.16959 -0.27421,-0.0685 -0.58551,0.10498 -0.84795,0 -0.18924,-0.0757 -0.3154,-0.27472 -0.50876,-0.33918 -0.25439,-0.0848 -0.59357,0.0848 -0.84795,0 -0.0758,-0.0253 -0.0981,-0.13383 -0.16959,-0.16959 -0.0506,-0.0253 -0.11596,0.0179 -0.16959,0 -0.11992,-0.04 -0.22182,-0.12264 -0.33918,-0.16959 -0.16598,-0.0664 -0.34888,-0.0896 -0.50877,-0.16959 -0.0715,-0.0357 -0.0937,-0.1443 -0.16959,-0.16959 -0.10726,-0.0357 -0.22949,0.0274 -0.33918,0 -0.24526,-0.0613 -0.43852,-0.25923 -0.67835,-0.33917 -0.0536,-0.0179 -0.12256,0.0314 -0.16959,0 -0.30118,-0.20079 -0.5653,-0.45224 -0.84795,-0.67836 z"
       id="path3031"
       inkscape:connector-curvature="0"
       inkscape:export-filename="/Users/christian/Documents/Informatik/Autorennen/autorennen/img/instruction_building_2.png"
       inkscape:export-xdpi="89.938164"
       inkscape:export-ydpi="89.938164" />
    <path
       style="fill:none;stroke:#000000;stroke-width:2;stroke-linecap:butt;stroke-linejoin:miter;stroke-miterlimit:4;stroke-opacity:1;stroke-dasharray:none"
       d="m 373.02375,705.84321 c -5.85011,-0.97501 -3.04017,-0.76532 -8.41853,-0.76532 -4.08137,0 -8.30898,-0.54672 -12.24513,0.76532 -2.92868,0.97623 -8.43997,4.67771 -9.18385,7.65321 -0.12374,0.49498 0,1.02043 0,1.53064 -0.2551,1.02043 -0.4327,2.06343 -0.76532,3.06128 -0.18039,0.54117 -0.58493,0.98948 -0.76532,1.53064 -0.51367,1.54101 0.0768,3.9802 0.76532,5.35725 0.16135,0.32269 0.54886,0.4767 0.76532,0.76532 0.55188,0.73584 0.8124,1.72137 1.53064,2.29596 1.25989,1.00791 3.10894,0.89508 4.59193,1.53064 1.04863,0.44941 1.97895,1.16987 3.06128,1.53064 1.23404,0.41135 2.53376,0.62167 3.8266,0.76532 1.01419,0.11269 2.07133,-0.24749 3.06129,0 1.1068,0.27671 1.95447,1.25394 3.06128,1.53064 0.98996,0.24749 2.04085,0 3.06128,0 4.33682,0 8.67363,0 13.01045,0"
       id="path3801"
       inkscape:connector-curvature="0"
       inkscape:export-filename="/Users/christian/Documents/Informatik/Autorennen/autorennen/img/instruction_building_2.png"
       inkscape:export-xdpi="89.938164"
       inkscape:export-ydpi="89.938164" />
    <path
       style="fill:none;stroke:#000000;stroke-width:2;stroke-linecap:butt;stroke-linejoin:miter;stroke-miterlimit:4;stroke-opacity:1;stroke-dasharray:none"
       d="m 387.56484,702.78193 c -1.36212,5.03033 -3.38667,10.02723 -3.82661,15.30641 -0.14829,1.77958 0.16168,3.57883 0,5.35725 -0.16961,1.8657 -1.44315,4.85438 -0.76532,6.88788 0.11409,0.34226 0.65124,0.42306 0.76532,0.76532 0.16135,0.48403 -0.16134,1.04661 0,1.53064 0.12998,0.38994 4.03307,2.92157 4.59193,3.06129 1.05435,0.26358 2.70259,0 3.8266,0"
       id="path3803"
       inkscape:connector-curvature="0"
       inkscape:export-filename="/Users/christian/Documents/Informatik/Autorennen/autorennen/img/instruction_building_2.png"
       inkscape:export-xdpi="89.938164"
       inkscape:export-ydpi="89.938164" />
    <path
       style="fill:none;stroke:#000000;stroke-width:2;stroke-linecap:butt;stroke-linejoin:miter;stroke-miterlimit:4;stroke-opacity:1;stroke-dasharray:none"
       d="m 405.93253,718.08834 c 0,17.9405 0.5647,-1.65696 -0.76532,7.65321 -0.20645,1.44518 0,3.76489 0,5.35724"
       id="path3805"
       inkscape:connector-curvature="0"
       inkscape:export-filename="/Users/christian/Documents/Informatik/Autorennen/autorennen/img/instruction_building_2.png"
       inkscape:export-xdpi="89.938164"
       inkscape:export-ydpi="89.938164" />
    <path
       style="fill:none;stroke:#000000;stroke-width:2;stroke-linecap:butt;stroke-linejoin:miter;stroke-miterlimit:4;stroke-opacity:1;stroke-dasharray:none"
       d="m 407.46317,701.25129 c -0.76532,1.02043 -1.6397,1.96752 -2.29596,3.06128 -0.75041,1.25069 2.76729,0.86332 3.06128,0.76532 0.34226,-0.11408 0.44264,-0.60397 0.76532,-0.76532 0.22818,-0.11408 0.87941,0.22818 0.76532,0 -0.57043,-1.14087 -1.53064,-2.04085 -2.29596,-3.06128 z"
       id="path3811"
       inkscape:connector-curvature="0"
       inkscape:export-filename="/Users/christian/Documents/Informatik/Autorennen/autorennen/img/instruction_building_2.png"
       inkscape:export-xdpi="89.938164"
       inkscape:export-ydpi="89.938164" />
    <path
       style="fill:none;stroke:#000000;stroke-width:2;stroke-linecap:butt;stroke-linejoin:miter;stroke-miterlimit:4;stroke-opacity:1;stroke-dasharray:none"
       d="m 431.95343,716.5577 c -9.93856,-2.48464 2.45428,0.35061 -5.35724,-0.76532 -1.04126,-0.14875 -2.01589,-0.64916 -3.06129,-0.76532 -1.77482,-0.1972 -3.57149,0 -5.35724,0 -0.51021,0 -1.02043,0 -1.53064,0 -0.25511,0 -0.58493,-0.18039 -0.76532,0 -0.40336,0.40336 -0.4489,1.05601 -0.76532,1.53064 -1.84308,2.76462 -1.53064,0.39687 -1.53064,4.59193 0,0.2551 -0.11409,0.53714 0,0.76532 0.16134,0.32268 0.67782,0.41531 0.76532,0.76532 0.18561,0.74247 -0.18562,1.55349 0,2.29596 0.0875,0.35 0.60397,0.44263 0.76532,0.76532 0.67739,1.35478 -1.13837,0.26152 0.76532,1.53064 2.33967,1.55978 0.79316,0.15863 3.8266,0.76532 0.55936,0.11187 0.98948,0.58493 1.53064,0.76532 0.24202,0.0807 0.51517,-0.05 0.76532,0 1.03141,0.20628 2.02376,0.5924 3.06129,0.76532 2.63874,0.43979 5.74112,0 8.41852,0"
       id="path3813"
       inkscape:connector-curvature="0"
       inkscape:export-filename="/Users/christian/Documents/Informatik/Autorennen/autorennen/img/instruction_building_2.png"
       inkscape:export-xdpi="89.938164"
       inkscape:export-ydpi="89.938164" />
    <path
       style="fill:none;stroke:#000000;stroke-width:2;stroke-linecap:butt;stroke-linejoin:miter;stroke-miterlimit:4;stroke-opacity:1;stroke-dasharray:none"
       d="m 441.13728,692.83276 c 1.7699,5.68808 0.18188,11.768 0.76532,17.60238 0.10466,1.04661 0.64916,2.01588 0.76532,3.06128 0.14086,1.26773 0,2.55107 0,3.8266 0,0.76532 -0.24202,1.56992 0,2.29596 0.29086,0.8726 1.18903,1.44195 1.53064,2.29597 0.47372,1.1843 -0.30936,2.58915 0,3.8266 0.0875,0.35 0.65123,0.42306 0.76532,0.76532 2.10108,6.30323 -2.57725,-3.62386 0.76532,3.06128"
       id="path3815"
       inkscape:connector-curvature="0"
       inkscape:export-filename="/Users/christian/Documents/Informatik/Autorennen/autorennen/img/instruction_building_2.png"
       inkscape:export-xdpi="89.938164"
       inkscape:export-ydpi="89.938164" />
    <path
       style="fill:none;stroke:#000000;stroke-width:2;stroke-linecap:butt;stroke-linejoin:miter;stroke-miterlimit:4;stroke-opacity:1;stroke-dasharray:none"
       d="m 461.80093,708.13918 c -2.43769,-1.61878 -4.83872,2.54899 -6.88788,3.06128 -0.74247,0.18562 -1.65918,-0.42453 -2.29596,0 -0.60037,0.40024 -0.88527,1.20795 -1.53065,1.53064 -0.91269,0.45635 -2.09322,-0.32269 -3.06128,0 -2.38881,0.79627 0.25511,0.51021 -0.76532,1.53064 -0.18039,0.18039 -0.5233,-0.0807 -0.76532,0 -0.54116,0.18039 -0.98948,0.58493 -1.53064,0.76532 -0.20646,0.0688 -1.82396,-0.29332 -0.76532,0.76532 0.004,0.003 5.35714,0 6.12256,0 1.98009,0 5.90771,-0.43637 7.65321,0 0.35,0.0875 0.44263,0.60398 0.76532,0.76532 0.22818,0.11409 0.58493,-0.18039 0.76532,0 0.18039,0.18039 -0.14151,0.55306 0,0.76532 0.40025,0.60037 1.20795,0.88527 1.53064,1.53064 0.76532,1.53064 -0.38266,1.14798 0,2.29597 0.18039,0.54116 0.58494,0.98947 0.76532,1.53064 0.16135,0.48403 -0.16134,1.04661 0,1.53064 0.87941,2.63822 0.76532,0.56692 0.76532,2.29596"
       id="path3817"
       inkscape:connector-curvature="0"
       inkscape:export-filename="/Users/christian/Documents/Informatik/Autorennen/autorennen/img/instruction_building_2.png"
       inkscape:export-xdpi="89.938164"
       inkscape:export-ydpi="89.938164" />
    <path
       style="fill:none;stroke:#000000;stroke-width:2;stroke-linecap:butt;stroke-linejoin:miter;stroke-miterlimit:4;stroke-opacity:1;stroke-dasharray:none"
       d="m 489.09713,683.58683 c 0,9.94917 0,19.89833 0,29.8475 0,3.01805 -0.49061,7.00551 0,9.94917 0.13262,0.79574 0.60711,1.50491 0.76532,2.29596 0.10006,0.5003 -0.16135,1.04661 0,1.53064 0.81229,2.43688 10.71448,5.07861 10.71448,1.53064"
       id="path3831"
       inkscape:connector-curvature="0"
       inkscape:export-filename="/Users/christian/Documents/Informatik/Autorennen/autorennen/img/instruction_building_2.png"
       inkscape:export-xdpi="89.938164"
       inkscape:export-ydpi="89.938164" />
    <path
       style="fill:none;stroke:#000000;stroke-width:2;stroke-linecap:butt;stroke-linejoin:miter;stroke-miterlimit:4;stroke-opacity:1;stroke-dasharray:none"
       d="m 485.27052,713.43433 c 5.06656,-3.3777 2.94654,-2.23859 6.12257,-3.8266"
       id="path3833"
       inkscape:connector-curvature="0"
       inkscape:export-filename="/Users/christian/Documents/Informatik/Autorennen/autorennen/img/instruction_building_2.png"
       inkscape:export-xdpi="89.938164"
       inkscape:export-ydpi="89.938164" />
    <path
       style="fill:none;stroke:#000000;stroke-width:2;stroke-linecap:butt;stroke-linejoin:miter;stroke-miterlimit:4;stroke-opacity:1;stroke-dasharray:none"
       d="m 516.64867,711.13837 c -2.15886,1.1137 -4.66048,-0.55685 -6.88789,0 -0.35,0.0875 -0.44263,0.60398 -0.76532,0.76532 -0.72155,0.36077 -1.72553,0.19488 -2.29596,0.76532 -2.81253,2.81253 -1.05941,2.23574 -1.53064,4.59192 -0.3036,1.51797 -1.58997,4.47328 -0.76532,6.12257 0.2551,0.51021 1.12728,0.36196 1.53064,0.76532 0.6504,0.6504 0.88024,1.64556 1.53064,2.29596 0.18039,0.18039 0.5233,-0.0807 0.76532,0 0.54116,0.18039 0.98948,0.58493 1.53064,0.76532 1.40335,0.46778 10.27935,0 11.47981,0 2.27466,0 6.28928,0.65418 8.41853,-0.76532 0.0901,-0.0601 -0.12188,-1.80844 0,-2.29596 1.10758,-4.43033 0.76532,2.01175 0.76532,-3.8266 0,-1.85274 0.44377,-4.34746 0,-6.12257 -0.3332,-1.33277 -2.56389,-0.98948 -3.82661,-1.53064 -0.84543,-0.36233 -1.42336,-1.23977 -2.29596,-1.53064 -0.70997,-0.23666 -7.44599,0 -7.6532,0 z"
       id="path3835"
       inkscape:connector-curvature="0"
       inkscape:export-filename="/Users/christian/Documents/Informatik/Autorennen/autorennen/img/instruction_building_2.png"
       inkscape:export-xdpi="89.938164"
       inkscape:export-ydpi="89.938164" />
    <path
       style="fill:none;stroke:#000000;stroke-width:1px;stroke-linecap:butt;stroke-linejoin:miter;stroke-opacity:1"
       d="m 141.61982,766.47111 c -3.55882,-0.79654 -7.77353,-0.74185 -10.30809,1.79271 -0.63333,0.63332 -1.79738,0.90568 -2.24089,1.79271 -0.57083,1.14166 -0.82613,2.41902 -1.34453,3.58542 -3.15111,7.08998 -3.10146,16.32696 0,23.30525 0.51356,1.15552 0.84032,2.63304 1.79271,3.58542 5.39266,5.39267 12.05631,6.65698 19.27164,7.61903 4.30868,0.57449 8.32714,1.17124 12.1008,-1.34454 3.74828,-2.49885 3.54001,-6.35931 4.0336,-10.30809 0.60787,-4.86296 1.93458,-10.02437 -0.44817,-14.78987 -0.67681,-1.35361 -1.61332,-3.40602 -2.68907,-4.48177 -2.84405,-2.84406 -13.19583,-9.47796 -17.03076,-10.75627 -0.99208,-0.3307 -2.09149,0 -3.13724,0 z"
       id="path4009"
       inkscape:connector-curvature="0"
       inkscape:export-filename="/Users/christian/Documents/Informatik/Autorennen/autorennen/img/instruction_building_2.png"
       inkscape:export-xdpi="89.938164"
       inkscape:export-ydpi="89.938164" />
    <path
       style="fill:none;stroke:#000000;stroke-width:1px;stroke-linecap:butt;stroke-linejoin:miter;stroke-opacity:1"
       d="m 126.82995,788.88 c 1.86,-0.53143 3.64443,-0.92586 5.37813,-1.79271 2.89871,-1.44935 7.24057,-4.30998 9.85992,-6.27449 1.16743,-0.87558 2.90352,-0.49697 4.0336,-1.34453 0.26724,-0.20044 0.21196,-0.66015 0.44817,-0.89636 0.93007,-0.93007 4.03198,-1.34345 5.37814,-2.24089 0.99877,-0.66585 6.27449,-0.38039 6.27449,-1.79271"
       id="path4011"
       inkscape:connector-curvature="0"
       inkscape:export-filename="/Users/christian/Documents/Informatik/Autorennen/autorennen/img/instruction_building_2.png"
       inkscape:export-xdpi="89.938164"
       inkscape:export-ydpi="89.938164" />
    <path
       style="fill:none;stroke:#000000;stroke-width:1px;stroke-linecap:butt;stroke-linejoin:miter;stroke-opacity:1"
       d="m 133.55262,767.81564 c 1.48324,1.20039 1.48498,2.52178 2.24089,4.0336 0.54579,1.09158 1.7114,2.07827 2.24089,3.13725 0.51779,1.03559 0.30913,2.85915 0.89635,4.0336 0.088,0.17595 2.47063,2.47063 1.34454,1.34453"
       id="path4013"
       inkscape:connector-curvature="0"
       inkscape:export-filename="/Users/christian/Documents/Informatik/Autorennen/autorennen/img/instruction_building_2.png"
       inkscape:export-xdpi="89.938164"
       inkscape:export-ydpi="89.938164" />
    <path
       style="fill:none;stroke:#000000;stroke-width:0.5;stroke-linecap:butt;stroke-linejoin:miter;stroke-miterlimit:4;stroke-opacity:1;stroke-dasharray:none"
       d="m 133.10444,765.57475 c -3.01108,-1.85636 -5.22398,-4.0336 -8.96356,-4.0336 -0.89635,0 -1.79271,0 -2.68906,0 -0.1494,0 -0.44818,0.1494 -0.44818,0 0,-0.22294 1.49097,-0.37496 0.44818,-0.89635 -0.89523,-0.44761 -3.09222,0.13448 -4.0336,0 -2.14007,-0.30573 -3.78401,-1.34454 -5.82631,-1.34454 -1.2748,0 -8.0672,-0.64058 -8.0672,0.44818"
       id="path4019"
       inkscape:connector-curvature="0"
       inkscape:export-filename="/Users/christian/Documents/Informatik/Autorennen/autorennen/img/instruction_building_2.png"
       inkscape:export-xdpi="89.938164"
       inkscape:export-ydpi="89.938164" />
    <rect
       style="opacity:0.12916667;fill:none;stroke:#5b5b5b;stroke-width:2;stroke-linecap:round;stroke-linejoin:round;stroke-miterlimit:4;stroke-opacity:1;stroke-dasharray:none"
       id="rect4181"
       width="998.6781"
       height="600.69617"
       x="1.6548103"
       y="0.13124213"
       transform="translate(0,452.36218)"
       inkscape:export-xdpi="89.938164"
       inkscape:export-ydpi="89.938164"
       inkscape:export-filename="/Users/christian/Documents/Informatik/Autorennen/autorennen/img/instruction_building_2.png" />
    <path
       style="fill:none;stroke:#000000;stroke-width:1px;stroke-linecap:butt;stroke-linejoin:miter;stroke-opacity:1"
       d="m 128.10553,774.35404 c 1.2715,1.32261 5.56468,1.2005 6.61924,3.30962 0.12334,0.24669 -0.19502,0.63239 0,0.82741 0.19502,0.19502 0.58072,-0.12334 0.8274,0 0.69773,0.34886 1.30595,0.95708 1.65481,1.65481 0.68988,1.37975 -0.91495,1.56726 0.82741,3.30962"
       id="path4289"
       inkscape:connector-curvature="0" />
    <path
       style="fill:none;stroke:#000000;stroke-width:1px;stroke-linecap:butt;stroke-linejoin:miter;stroke-opacity:1"
       d="m 135.55217,769.38961 c -0.5516,1.10321 -1.02022,2.25197 -1.65481,3.30962 -0.20067,0.33446 -0.65297,0.47854 -0.8274,0.82741 -0.12335,0.24668 0.12334,0.58072 0,0.8274 -0.17444,0.34887 -0.61105,0.50287 -0.82741,0.82741 -0.15188,0.22782 -1.55471,3.83674 -1.65481,4.13702 -0.4137,1.24111 0.82741,0.82741 0,2.48222 -0.12334,0.24668 -0.5516,0 -0.8274,0"
       id="path4291"
       inkscape:connector-curvature="0" />
    <path
       style="fill:none;stroke:#000000;stroke-width:2;stroke-linecap:butt;stroke-linejoin:miter;stroke-miterlimit:4;stroke-opacity:1;stroke-dasharray:none"
       d="m 612.13756,700.71498 c -5.41741,-2.16696 -2.65179,-1.65481 -8.27405,-1.65481 -3.86123,0 -7.73579,-0.32066 -11.58368,0 -1.27472,0.10623 -6.54703,0.68299 -7.44664,2.48222 -0.24669,0.49337 0,1.1032 0,1.65481 0,0.5516 -0.20486,1.14266 0,1.65481 0.72685,1.81713 3.76534,4.85921 4.96443,5.79183 1.26942,0.98733 2.85047,1.51731 4.13702,2.48222 0.93611,0.70208 1.50861,1.83314 2.48222,2.48221 0.8274,0.27581 1.65481,0.55161 2.48221,0.82741 0,0.2758 -0.19502,0.63238 0,0.8274 0.19503,0.19503 0.70407,-0.24668 0.82741,0 0.24668,0.49337 0,1.10321 0,1.65482 0,4.15213 -2.54879,4.17031 -5.79184,5.79183 -1.43069,0.71535 -7.14984,3.74671 -9.10145,4.13703 -2.16357,0.43271 -4.41283,0 -6.61925,0 -4.73679,0 -0.36351,0.58506 -4.96443,-2.48222 -0.72568,-0.48379 -1.70213,-0.43736 -2.48221,-0.8274 -2.04485,-1.02243 0.2856,-0.82741 -1.65481,-0.82741"
       id="path4293"
       inkscape:connector-curvature="0" />
    <path
       style="fill:none;stroke:#000000;stroke-width:2;stroke-linecap:butt;stroke-linejoin:miter;stroke-miterlimit:4;stroke-opacity:1;stroke-dasharray:none"
       d="m 612.96496,714.78087 c 7.69816,-0.33954 15.48413,0.5488 23.16735,0 5.02837,-0.35917 10.8633,-2.51106 11.58367,-8.27405 0.17105,-1.36836 0,-2.75802 0,-4.13703 0,-0.5516 0.34458,-1.22408 0,-1.65481 -0.86146,-1.07682 -2.14022,-1.75134 -3.30962,-2.48221 -4.02913,-2.51821 -3.65284,-1.65481 -9.10146,-1.65481 -4.10833,0 -9.2012,-0.27368 -13.23848,0.8274 -0.95938,0.26165 -1.77906,0.95165 -2.48222,1.65481 -4.37334,4.37334 -1.84227,10.64637 -0.8274,15.7207 0.2758,1.37901 0.5516,2.75802 0.8274,4.13703 0.65253,3.26262 0.16944,4.82485 3.30962,6.61924 0.98734,0.56419 2.23082,0.4678 3.30963,0.8274 1.40902,0.46968 2.68982,1.32084 4.13702,1.65481 1.44925,0.33444 11.93114,1.43734 14.06589,0.82741 4.8082,-1.37377 0.50337,-1.65481 4.13703,-1.65481"
       id="path4295"
       inkscape:connector-curvature="0" />
    <path
       style="fill:none;stroke:#000000;stroke-width:2;stroke-linecap:butt;stroke-linejoin:miter;stroke-miterlimit:4;stroke-opacity:1;stroke-dasharray:none"
       d="m 665.09149,669.27358 c -0.17843,11.59125 0.61519,23.21029 -0.82741,34.75102 -0.0207,0.1655 -2.31647,13.40027 -2.48221,15.7207 -0.1965,2.75101 0,5.51603 0,8.27405 0,1.26602 -0.003,3.30896 0,3.30962 1.35223,0.27045 2.75802,0 4.13702,0 5.51604,0 11.03207,0 16.54811,0"
       id="path4297"
       inkscape:connector-curvature="0" />
    <path
       style="fill:none;stroke:#000000;stroke-width:2;stroke-linecap:butt;stroke-linejoin:miter;stroke-miterlimit:4;stroke-opacity:1;stroke-dasharray:none"
       d="m 651.0256,708.98903 c 5.11709,-1.37216 10.47598,-0.8274 15.7207,-0.8274 1.10321,0 2.26303,0.34886 3.30962,0 3.06728,-1.02243 -1.00857,-0.82741 1.65481,-0.82741"
       id="path4299"
       inkscape:connector-curvature="0" />
    <path
       style="fill:none;stroke:#000000;stroke-width:2;stroke-linecap:butt;stroke-linejoin:miter;stroke-miterlimit:4;stroke-opacity:1;stroke-dasharray:none"
       d="m 727.14688,700.71498 c -5.12266,1.61384 -10.56096,1.87636 -15.7207,3.30962 -2.27048,0.63069 -4.41986,1.6363 -6.61924,2.48222 -1.38624,0.53317 -3.00935,0.68823 -4.13703,1.65481 -2.6623,2.28197 -1.7347,6.37956 -0.8274,9.10145 0.19502,0.58507 0.63238,1.06975 0.8274,1.65482 0.3596,1.0788 0.16645,2.38427 0.82741,3.30962 0.37093,0.5193 9.20281,7.30143 9.92886,7.44664 1.89312,0.37863 3.86122,0 5.79184,0 3.03381,0 6.0723,0.16829 9.10145,0 3.01746,-0.16763 10.75627,-0.36038 10.75627,-4.96443"
       id="path4301"
       inkscape:connector-curvature="0" />
    <path
       style="fill:none;stroke:#000000;stroke-width:2;stroke-linecap:butt;stroke-linejoin:miter;stroke-miterlimit:4;stroke-opacity:1;stroke-dasharray:none"
       d="m 757.76087,699.88758 c -1.37901,0 -2.80661,-0.36285 -4.13703,0 -0.11554,0.0315 -6.50928,3.01218 -7.44664,4.13702 -2.94152,3.52982 -3.30819,10.75984 -1.65481,14.8933 0.15595,0.38988 0.92631,2.23938 1.65481,2.48221 1.04696,0.34899 4.25839,0.23166 4.96443,-0.8274 0.30597,-0.45897 -0.20486,-1.14266 0,-1.65481 0.36932,-0.9233 1.21009,-1.59279 1.65481,-2.48222 0.79683,-1.59365 1.12461,-4.20123 1.65481,-5.79184 0.19502,-0.58506 0.63238,-1.06974 0.8274,-1.65481 0.0872,-0.26165 -0.12334,-0.58072 0,-0.8274 0.72242,-1.44484 1.97031,-0.11907 2.48222,-1.65481 0.17443,-0.5233 0,-1.10321 0,-1.65481 0,-1.65481 0,-6.61924 0,-4.96443 0,5.79183 0,11.58367 0,17.3755 0,3.03144 -0.27045,5.34645 0.8274,8.27406 0.34917,0.9311 1.2855,1.55892 1.65482,2.48221 0.87388,2.18471 -1.22372,1.2585 0.8274,3.30962 1.00652,1.00652 1.90694,-1.58378 2.48222,-3.30962"
       id="path4303"
       inkscape:connector-curvature="0" />
    <path
       style="fill:none;stroke:#000000;stroke-width:2;stroke-linecap:butt;stroke-linejoin:miter;stroke-miterlimit:4;stroke-opacity:1;stroke-dasharray:none"
       d="m 771.82676,699.06017 c 0,7.17169 -0.19502,1.23824 0.8274,9.92886 0.10922,0.92831 0.90746,10.99642 1.65481,13.23849 2.11378,6.34131 1.65481,-1.15035 1.65481,4.96443 0,0.2758 0,1.1032 0,0.8274 0,-10.65219 -0.51215,2.56076 1.65481,-8.27405 0.27045,-1.35223 0,-2.75802 0,-4.13703 0,-0.8274 -0.37002,-1.74216 0,-2.48221 0.27581,-0.5516 1.31272,-0.31427 1.65481,-0.82741 0.30598,-0.45896 -0.17443,-1.13151 0,-1.65481 0.53427,-1.60278 2.30033,-0.42368 3.30963,-0.8274 1.23501,-0.49401 2.02602,-2.88176 3.30962,-3.30962 0.97667,-0.32556 4.64842,0 5.79183,0"
       id="path4305"
       inkscape:connector-curvature="0" />
    <path
       style="fill:none;stroke:#000000;stroke-width:2;stroke-linecap:butt;stroke-linejoin:miter;stroke-miterlimit:4;stroke-opacity:1;stroke-dasharray:none"
       d="m 819.81626,695.75055 c -9.49211,3.16403 -1.00518,-0.48722 -8.27405,4.96443 -0.98674,0.74005 -2.23871,1.04286 -3.30962,1.65481 -0.8634,0.49337 -1.62951,1.14319 -2.48222,1.65481 -0.52883,0.3173 -1.21873,0.39133 -1.65481,0.82741 -0.19502,0.19502 0,0.5516 0,0.8274 0,2.36583 0.35161,3.07173 2.48222,4.13703 1.1032,0.5516 2.23871,1.04286 3.30962,1.65481 0.86339,0.49337 1.59278,1.21009 2.48221,1.65481 0.24669,0.12334 0.56576,-0.0872 0.82741,0 0.38013,0.12671 2.24554,0.9448 2.48221,1.65481 0.17443,0.5233 -0.13378,1.11968 0,1.65481 0.14958,0.5983 0.67783,1.05651 0.82741,1.65481 0.33446,1.33783 0,2.75802 0,4.13703 0,2.29566 0.37002,2.34087 -0.82741,4.13702 -1.19642,1.79463 -3.22759,1.30745 -4.96443,1.65481 -0.85522,0.17105 -1.61882,0.70407 -2.48221,0.82741 -0.15898,0.0227 -5.01761,0.38711 -5.79184,0 -0.34887,-0.17444 -0.5516,-0.55161 -0.82741,-0.82741"
       id="path4307"
       inkscape:connector-curvature="0" />
    <path
       style="fill:none;stroke:#000000;stroke-width:1.59491384;stroke-linecap:butt;stroke-linejoin:miter;stroke-miterlimit:4;stroke-opacity:1;stroke-dasharray:none"
       d="m 342.60664,756.92253 c -0.55464,2.39386 -3.02178,3.75172 -3.95893,5.93838 -0.82352,1.92155 -0.93789,6.35308 -0.65981,8.57766 0.2782,2.22563 1.04143,4.37256 1.31964,6.5982 0.0818,0.65472 -0.18127,1.34503 0,1.97946 0.27021,0.94576 0.97427,1.71831 1.31964,2.63928 0.3184,0.8491 0.3414,1.79018 0.65982,2.63928 0.34536,0.92098 1.08108,1.68505 1.31964,2.63928 0.89459,3.57838 -1.28698,1.99579 1.31964,3.2991"
       id="path4309"
       inkscape:connector-curvature="0" />
    <path
       style="fill:none;stroke:#000000;stroke-width:1.59491384;stroke-linecap:butt;stroke-linejoin:miter;stroke-miterlimit:4;stroke-opacity:1;stroke-dasharray:none"
       d="m 359.76195,774.07785 c -0.87976,0 -1.82244,-0.32673 -2.63927,0 -0.45663,0.18265 -0.4068,0.89792 -0.65983,1.31964 -0.40799,0.67999 -0.96499,1.27018 -1.31964,1.97946 -1.06596,2.13194 -1.79405,5.54579 -1.31964,7.91784 0.0965,0.48225 0.47718,0.86301 0.65983,1.31964 0.2583,0.64577 0.22533,1.43636 0.65981,1.97946 1.41696,1.77119 3.91728,1.97946 5.93838,1.97946 0.21994,0 0.5043,0.15552 0.65983,0 1.11945,-1.11946 5.38111,-7.98364 5.93837,-9.23748 0.36831,-0.82868 0.4107,-1.76733 0.65983,-2.63928 0.19107,-0.66875 0.16801,-2.47126 0.65981,-1.97946 0.62209,0.62208 0,1.75952 0,2.63928 0,2.85922 0,5.71844 0,8.57766 0,3.07916 0,6.15832 0,9.23748 0,0.87976 0.21338,1.78579 0,2.63928 -0.11927,0.47712 -0.38701,0.91044 -0.65981,1.31964 -1.09418,1.64126 -0.15162,0.0758 -1.31964,0.65982 -0.55641,0.27821 -0.76323,1.04144 -1.31964,1.31964 -0.19673,0.0984 -0.45117,-0.0695 -0.65983,0 -0.46656,0.15552 -0.83738,0.56337 -1.31964,0.65982 -0.64701,0.1294 -1.3535,-0.20865 -1.97945,0 -0.75231,0.25077 -1.25058,1.00726 -1.97947,1.31964 -0.83351,0.35722 -1.76733,0.41069 -2.63927,0.65982 -0.66875,0.19107 -1.29094,0.56146 -1.97947,0.65982 -0.87091,0.12442 -1.77148,-0.14463 -2.63928,0 -0.48511,0.0808 -0.83738,0.56337 -1.31964,0.65982 -0.14129,0.0282 -3.14095,0.15815 -3.29909,0 -0.15552,-0.15552 0.0695,-0.45117 0,-0.65982 -0.15552,-0.46656 -0.43989,-0.87976 -0.65983,-1.31964"
       id="path4311"
       inkscape:connector-curvature="0" />
    <path
       style="fill:none;stroke:#000000;stroke-width:1.59491384;stroke-linecap:butt;stroke-linejoin:miter;stroke-miterlimit:4;stroke-opacity:1;stroke-dasharray:none"
       d="m 388.13421,776.05731 c -1.91054,-0.60592 -5.25297,-1.06083 -7.25801,-0.65982 -1.93403,0.3868 -2.01745,1.74452 -2.63928,3.2991 -0.18266,0.45663 -0.56337,0.83739 -0.65983,1.31964 -0.17253,0.86268 0,1.75952 0,2.63928 0,0.43988 0,0.87976 0,1.31964 0,0.21994 -0.19671,0.56146 0,0.65982 0.35875,0.17937 4.85267,0.0852 5.27856,0 0.44647,-0.0893 1.70008,-0.76087 1.97947,-1.31964 0.0983,-0.19672 -0.15552,-0.50429 0,-0.65982 0.34775,-0.34776 1.0997,-0.21994 1.31964,-0.65982 1.05571,-2.11143 -2.65573,-4.39332 1.97945,-5.93838 0.14846,-0.0494 -0.11876,5.58208 0,5.93838 0.0927,0.27811 3.59637,3.71722 3.95892,3.95892 0.67441,0.44961 1.32655,-0.65292 2.63929,0.65982"
       id="path4313"
       inkscape:connector-curvature="0" />
    <path
       style="fill:none;stroke:#000000;stroke-width:1.59491384;stroke-linecap:butt;stroke-linejoin:miter;stroke-miterlimit:4;stroke-opacity:1;stroke-dasharray:none"
       d="m 396.71187,774.07785 c 0.87977,1.31964 1.93,2.54035 2.63928,3.95892 0.40555,0.8111 0.30261,1.80576 0.65983,2.63928 0.31238,0.72889 0.96499,1.27018 1.31964,1.97946 0.0984,0.19672 0.21993,0.65982 0,0.65982 -0.21994,0 -0.0533,-0.44645 0,-0.65982 0.16868,-0.67475 0.43987,-1.31964 0.65981,-1.97946 0.21994,-0.65982 0.43989,-1.31964 0.65983,-1.97946 0,-0.43988 -0.1391,-0.90233 0,-1.31964 0.18873,-0.5662 1.67631,-1.2186 1.97945,-1.31964 0.20866,-0.0695 0.56147,0.19672 0.65982,0 0.19672,-0.39344 -0.31104,-1.00859 0,-1.31964 0.31104,-0.31104 0.87977,0 1.31964,0 0.43988,0 0.87977,0 1.31964,0 0.43988,0 0.87977,0 1.31964,0 0.21994,0 0.56146,-0.19672 0.65982,0 1.22174,2.44347 1.31964,7.30289 1.31964,9.8973 0,0.65982 0,1.31964 0,1.97946 0,0.21994 0,0.87976 0,0.65982 0,-4.63834 0.86101,-3.04165 2.63929,-6.5982 0.93881,-1.87763 -0.0693,-2.93454 1.97945,-3.95892 0.39344,-0.19672 0.8929,0.10669 1.31964,0 0.47712,-0.11928 0.87976,-0.43988 1.31964,-0.65982 0.43989,-0.21994 0.84252,-0.54054 1.31964,-0.65982 0.0273,-0.007 2.4026,-0.15779 2.63928,0 2.29274,1.5285 0.75518,1.70104 1.31964,3.95892 0.28727,1.14905 1.08736,2.13769 1.31964,3.2991 0.34508,1.72535 0,3.51904 0,5.27856"
       id="path4315"
       inkscape:connector-curvature="0" />
    <path
       style="fill:none;stroke:#000000;stroke-width:1.59491384;stroke-linecap:butt;stroke-linejoin:miter;stroke-miterlimit:4;stroke-opacity:1;stroke-dasharray:none"
       d="m 433.66179,785.29479 c 2.25849,-1.30074 4.91443,-1.57402 7.25802,-2.63928 1.16751,-0.53069 2.21157,-1.29975 3.2991,-1.97946 2.39465,-1.49665 2.63928,-1.88504 2.63928,-4.61874 0,-0.65982 0.20865,-1.3535 0,-1.97946 -0.0984,-0.29508 -0.43988,-0.43988 -0.65982,-0.65982 -0.21994,-0.21994 -0.36474,-0.56146 -0.65982,-0.65982 -0.4173,-0.1391 -0.90233,0.1391 -1.31964,0 -0.29508,-0.0984 -0.36473,-0.56146 -0.65982,-0.65982 -2.48709,-0.82903 -7.95965,4.23462 -9.23747,5.93838 -0.59017,0.78689 -0.87977,1.75952 -1.31964,2.63928 -0.21995,0.43988 -0.72938,0.83279 -0.65983,1.31964 0.4954,3.46776 2.79496,5.14739 5.93838,6.5982 1.21471,0.56064 2.65534,0.35899 3.95892,0.65982 3.74601,0.86446 7.50748,2.51455 11.21694,0.65982"
       id="path4317"
       inkscape:connector-curvature="0" />
    <path
       style="fill:none;stroke:#000000;stroke-width:1.59491384;stroke-linecap:butt;stroke-linejoin:miter;stroke-miterlimit:4;stroke-opacity:1;stroke-dasharray:none"
       d="m 369.65926,778.03677 c -0.87977,-0.65982 -1.86168,-1.20185 -2.63928,-1.97946 -0.80366,-0.80365 -0.30908,-1.47417 -1.31964,-1.97946 -0.19673,-0.0983 -0.4631,0.0984 -0.65983,0 -0.2782,-0.1391 -0.38161,-0.52072 -0.65981,-0.65982 -0.57457,-0.28728 -3.87779,0 -4.61875,0 -3.00368,0 -0.0377,-0.31104 -1.97945,0.65982 -0.19673,0.0984 -0.5043,-0.15552 -0.65982,0 -0.80294,0.80294 -0.14312,0.80294 0.65982,0"
       id="path4319"
       inkscape:connector-curvature="0" />
    <path
       style="fill:none;stroke:#000000;stroke-width:1.59491384;stroke-linecap:butt;stroke-linejoin:miter;stroke-miterlimit:4;stroke-opacity:1;stroke-dasharray:none"
       d="m 497.00451,768.13947 c -3.94808,0.16128 -7.93546,-0.26275 -11.87676,0 -4.48689,0.29913 -3.28365,0.65467 -7.25802,1.97946 -0.20865,0.0695 -0.56146,-0.19672 -0.65982,0 -0.19672,0.39345 0,0.87976 0,1.31964 0,1.78857 -0.36064,3.27452 1.31964,4.61874 1.08621,0.86896 2.76613,0.60397 3.95892,1.31964 0.53343,0.32006 0.80204,0.97457 1.31964,1.31964 1.45557,0.97038 -0.21655,-2.26819 1.97946,0.65982 2.57156,3.42875 0.0773,0.89163 0.65982,2.63928 0.15552,0.46656 0.54054,0.84252 0.65982,1.31964 0.10668,0.42674 0,0.87976 0,1.31964 0,0.43988 0.1391,0.90233 0,1.31964 -0.34598,1.03792 -1.8323,1.1179 -2.63928,1.31964 -0.67474,0.16869 -1.30471,0.49114 -1.97946,0.65982 -0.87324,0.21832 -3.22374,0.14704 -3.95892,0 -2.65519,-0.53104 -0.30316,-0.48148 -1.97946,-1.31964 -0.19672,-0.0984 -0.5043,0.15552 -0.65982,0 -0.31104,-0.31104 0,-0.87976 0,-1.31964"
       id="path4321"
       inkscape:connector-curvature="0" />
    <path
       style="fill:none;stroke:#000000;stroke-width:1.59491384;stroke-linecap:butt;stroke-linejoin:miter;stroke-miterlimit:4;stroke-opacity:1;stroke-dasharray:none"
       d="m 500.96343,750.98416 c 1.33021,5.17829 1.70075,10.50007 1.31964,15.83567 -0.84644,11.85023 -0.65982,-1.9641 -0.65982,8.57766 0,1.12289 -0.2907,5.06629 0,5.93838 0.15552,0.46657 0.43988,0.87976 0.65982,1.31964 0.21994,0.43988 0.21994,1.0997 0.65982,1.31964 0.60242,0.30121 5.04692,0 5.93838,0 0.43988,0 1.0086,0.31105 1.31964,0 0.15552,-0.15552 0,-0.43988 0,-0.65982"
       id="path4323"
       inkscape:connector-curvature="0" />
    <path
       style="fill:none;stroke:#000000;stroke-width:1.59491384;stroke-linecap:butt;stroke-linejoin:miter;stroke-miterlimit:4;stroke-opacity:1;stroke-dasharray:none"
       d="m 494.36523,772.09839 c 3.71779,-0.25304 7.50384,0.30943 11.21694,0 1.11761,-0.0931 2.18628,-0.52072 3.2991,-0.65982 1.6752,-0.2094 2.63928,0.66984 2.63928,-0.65982"
       id="path4325"
       inkscape:connector-curvature="0" />
    <path
       style="fill:none;stroke:#000000;stroke-width:1.59491384;stroke-linecap:butt;stroke-linejoin:miter;stroke-miterlimit:4;stroke-opacity:1;stroke-dasharray:none"
       d="m 523.39731,771.43857 c -1.34206,1.21715 -3.15817,-0.48686 -4.61874,0 -1.18442,0.39481 -0.53672,1.90069 -0.65982,2.63928 -0.86847,5.21084 -0.65982,-1.18777 -0.65982,3.95892 0,0.9448 -0.3353,3.94814 0,4.61874 0.2782,0.55641 0.87976,0.87976 1.31964,1.31964 1.81459,1.81459 3.23211,3.2991 5.93838,3.2991 0.43988,0 0.95363,0.24401 1.31964,0 1.81036,-1.2069 1.31964,-9.56595 1.31964,-11.87676 0,-1.31964 0,-2.63928 0,-3.95892 0,-0.43988 0,-1.75952 0,-1.31964 0,2.04057 -0.10669,1.27615 0.65982,3.95892 0.19107,0.66875 0.57355,1.28932 0.65982,1.97946 0.29533,2.36268 -0.53454,3.28796 0.65982,5.27856 0.32006,0.53343 1.04144,0.76324 1.31964,1.31964 0.19672,0.39344 -0.19672,0.9262 0,1.31964 0.0473,0.0945 2.45748,0 3.2991,0"
       id="path4327"
       inkscape:connector-curvature="0" />
    <path
       style="fill:none;stroke:#000000;stroke-width:1.59491384;stroke-linecap:butt;stroke-linejoin:miter;stroke-miterlimit:4;stroke-opacity:1;stroke-dasharray:none"
       d="m 537.91335,771.43857 c 0.8921,4.46052 0.24331,2.25784 1.97946,6.5982 0.43988,1.0997 1.03237,2.15005 1.31964,3.2991 0.16003,0.64012 -0.29508,1.3893 0,1.97946 0.1391,0.2782 0.59882,-0.35482 0.65982,-0.65982 0.17254,-0.86268 0,-1.75952 0,-2.63928 0,-2.99955 -0.29541,-7.20555 1.31964,-9.8973 0.32006,-0.53343 0.94639,-0.82197 1.31964,-1.31964 0.29508,-0.39344 0.2381,-1.06661 0.65982,-1.31963 1.77888,-1.06734 3.39516,-0.47149 5.27856,-0.65983 1.3312,-0.13312 2.6257,-0.54871 3.95892,-0.65981 4.65814,-0.38818 2.9343,1.02462 4.61874,-0.65983"
       id="path4329"
       inkscape:connector-curvature="0" />
    <path
       style="fill:none;stroke:#000000;stroke-width:1.59491384;stroke-linecap:butt;stroke-linejoin:miter;stroke-miterlimit:4;stroke-opacity:1;stroke-dasharray:none"
       d="m 569.58471,751.64397 c 0,6.81814 0,13.63628 0,20.45442 0,1.53958 0.11808,3.08369 0,4.61874 -0.22601,2.93807 -0.91566,4.43013 -1.31964,7.25802 -0.0622,0.43546 0.26393,0.96773 0,1.31964 -1.04348,1.3913 -3.90431,2.03408 -5.27856,0.65982 -0.34775,-0.34775 -0.43988,-0.87976 -0.65982,-1.31964"
       id="path4331"
       inkscape:connector-curvature="0" />
    <path
       style="fill:none;stroke:#000000;stroke-width:1.59491384;stroke-linecap:butt;stroke-linejoin:miter;stroke-miterlimit:4;stroke-opacity:1;stroke-dasharray:none"
       d="m 561.66687,772.75821 c 0.45101,-1.51967 7.5413,-0.14164 8.57765,-0.65982 0.27821,-0.1391 0.38162,-0.52072 0.65983,-0.65982 0.73459,-0.3673 3.54052,0 4.61874,0"
       id="path4333"
       inkscape:connector-curvature="0" />
    <path
       style="fill:none;stroke:#000000;stroke-width:1.59491384;stroke-linecap:butt;stroke-linejoin:miter;stroke-miterlimit:4;stroke-opacity:1;stroke-dasharray:none"
       d="m 589.3793,768.79929 c -4.64496,-0.77416 -2.68972,-1.08288 -5.93837,0 -0.65982,0.21994 -1.42305,0.24251 -1.97946,0.65982 -0.39345,0.29508 -0.31207,0.97189 -0.65982,1.31964 -0.15552,0.15552 -0.5043,-0.15552 -0.65982,0 -0.14355,0.14355 0,2.19969 0,2.63928 0,0.43988 -0.244,0.95364 0,1.31964 0.5456,0.81841 1.87121,0.70519 2.63928,1.31964 0.72865,0.58292 1.25081,1.39655 1.97946,1.97946 0.65033,0.52027 2.30923,0.98934 2.63928,1.97946 0.1391,0.41731 -0.10669,0.89289 0,1.31964 -0.49009,1.22114 1.12731,1.21013 1.31964,1.97946 0.21337,0.8535 0,1.75952 0,2.63928 0,0.76355 0.34575,2.60759 0,3.2991 -0.49621,0.99241 -2.41054,0.88196 -3.29911,0.65982 -0.47711,-0.11928 -0.84252,-0.54054 -1.31964,-0.65982 -1.07354,-0.26839 -2.63927,0.35165 -2.63927,-1.31964"
       id="path4335"
       inkscape:connector-curvature="0" />
    <path
       style="fill:none;stroke:#000000;stroke-width:1.59491384;stroke-linecap:butt;stroke-linejoin:miter;stroke-miterlimit:4;stroke-opacity:1;stroke-dasharray:none"
       d="m 626.50055,770.10766 c -0.75143,1.18383 -8.10185,-0.71818 -9.8973,0 -0.67609,0.27044 -1.82512,1.86762 -1.97945,2.63928 -0.30194,1.50968 0.21773,3.09463 0,4.61874 -0.0984,0.68852 -0.52342,1.29745 -0.65983,1.97946 -0.14379,0.71894 -0.12056,5.63698 0,5.93838 0.18265,0.45662 0.87976,0.43988 1.31964,0.65982 4.09147,2.04573 -0.32378,0.084 1.97947,0.65982 2.28075,0.57019 2.94019,1.43836 4.61873,-0.65982 0.49539,-0.61923 1.06887,-1.22715 1.31964,-1.97946 1.72787,-2.0107 0.0525,-4.47288 0.65982,-6.5982 0.21786,-0.7625 1.04864,-1.2342 1.31964,-1.97946 0.61981,-1.70448 -0.46935,-5.57672 1.31964,-5.27856 3.69272,0.61545 2.63928,10.72382 2.63928,13.19639 0,0.87977 -0.39344,1.85241 0,2.63929 0.35465,0.70928 1.28625,0.93452 1.97947,1.31964 1.28972,0.71652 2.55923,1.5129 3.95891,1.97946 0.94651,0.3155 6.8568,1.76839 7.91784,0 1.56654,-2.61089 -0.0128,-2.58799 0.65982,-5.27856 0.23856,-0.95424 1.0086,-1.70615 1.31964,-2.63928 0.76464,-2.29392 0.65982,-4.26135 0.65982,-6.5982"
       id="path4337"
       inkscape:connector-curvature="0" />
    <path
       style="fill:none;stroke:#000000;stroke-width:1.59491384;stroke-linecap:butt;stroke-linejoin:miter;stroke-miterlimit:4;stroke-opacity:1;stroke-dasharray:none"
       d="m 646.29516,769.44784 c 0.37914,1.90363 -0.38067,4.03505 0,5.93838 0.13639,0.68201 0.56145,1.29094 0.65981,1.97946 0.3783,2.6481 -0.38785,3.97902 0.65983,6.5982 0.18265,0.45662 0.31206,0.97188 0.65981,1.31964 0.98491,0.98491 4.80974,0.84793 5.93838,0.65982 2.43107,-0.40518 1.58232,-2.10768 1.97946,-3.2991 0.31105,-0.93313 1.10627,-1.6791 1.31964,-2.63928 0.47712,-2.14703 -0.2728,-4.41578 0,-6.5982 0.86848,-6.94779 0.65982,2.83558 0.65982,-3.95892 0,-0.43988 0,-1.75952 0,-1.31964 0,1.0997 0,2.1994 0,3.2991 0,3.95892 0,7.91784 0,11.87675 0,0.2717 -0.17466,1.80481 0,1.97947 0.15552,0.15552 0.5043,-0.15552 0.65982,0 0.31105,0.31104 -0.31104,1.0086 0,1.31964 1.20947,1.20947 4.33439,0.65982 5.93838,0.65982"
       id="path4339"
       inkscape:connector-curvature="0" />
    <path
       style="fill:none;stroke:#000000;stroke-width:1.59491384;stroke-linecap:butt;stroke-linejoin:miter;stroke-miterlimit:4;stroke-opacity:1;stroke-dasharray:none"
       d="m 672.68795,758.2309 c -0.26047,4.38018 0.3126,8.81995 0,13.1964 -0.23276,3.25868 -1.08688,6.63862 -1.31964,9.8973 -0.094,1.31628 0.14573,2.64735 0,3.95892 -0.13394,1.20547 -1.08039,2.03739 -0.65982,3.2991 0.33069,0.99206 4.91054,1.83356 5.93838,1.31964 0.19672,-0.0984 0,-0.43988 0,-0.65982 0,-0.43988 0,-0.87977 0,-1.31964"
       id="path4341"
       inkscape:connector-curvature="0" />
    <path
       style="fill:none;stroke:#000000;stroke-width:1.59491384;stroke-linecap:butt;stroke-linejoin:miter;stroke-miterlimit:4;stroke-opacity:1;stroke-dasharray:none"
       d="m 666.08975,774.7264 c 1.6925,-0.76399 4.12486,0.45338 5.93838,0 0.47712,-0.11928 0.84252,-0.54054 1.31964,-0.65982 0.0221,-0.006 1.97596,0.003 1.97946,0 0.87976,-0.87976 -1.0997,-0.65982 0.65982,-0.65982"
       id="path4343"
       inkscape:connector-curvature="0" />
    <path
       style="fill:none;stroke:#000000;stroke-width:1.59491384;stroke-linecap:butt;stroke-linejoin:miter;stroke-miterlimit:4;stroke-opacity:1;stroke-dasharray:none"
       d="m 690.50309,773.40676 c -2.04617,1.24467 -4.46447,-0.53343 -6.5982,0 -0.30176,0.0754 -0.47319,0.41099 -0.65982,0.65982 -0.4758,0.63441 -1.06887,1.22715 -1.31964,1.97946 -0.26536,0.79607 0,4.1797 0,5.27856 0,1.30202 -0.31881,4.05527 0.65982,5.27856 1.64144,2.05179 5.46961,2.63928 7.91784,2.63928 0.43988,0 0.87976,0 1.31964,0 0.43988,0 0.95364,0.244 1.31964,0 1.30989,-0.87327 1.13682,-5.13567 1.31964,-6.5982 0.42958,-3.43662 1.09708,-3.10018 0.65982,-6.5982 -0.0863,-0.69014 -0.056,-1.63439 -0.65982,-1.97946 -0.51505,-0.29431 -9.01413,-1.29731 -9.23748,-1.31964 -1.26809,-0.12681 -1.97946,0.16663 -1.97946,0 0,-0.21994 0.43988,0 0.65982,0"
       id="path4345"
       inkscape:connector-curvature="0" />
    <path
       style="fill:none;stroke:#000000;stroke-width:1.59491384;stroke-linecap:butt;stroke-linejoin:miter;stroke-miterlimit:4;stroke-opacity:1;stroke-dasharray:none"
       d="m 702.37985,770.76748 c 0,1.97946 0,3.95892 0,5.93838 0,1.75952 0,3.51904 0,5.27856 0,0.43988 -0.31104,1.00859 0,1.31963 0.15552,0.15553 0.43988,0 0.65982,0 0.21994,0 0.53782,0.18301 0.65982,0 1.10194,-1.6529 0.45249,-2.75271 0.65982,-4.61873 0.29687,-2.67181 1.20202,-4.44231 2.63928,-6.5982 0.63753,-0.9563 1.51427,-0.99821 2.63928,-1.31964 0.23168,-0.0662 5.01006,-1.06257 5.27856,-0.65982 1.21676,1.82515 0.65982,7.97217 0.65982,9.8973 0,2.1994 0,4.3988 0,6.5982 0,0.21994 -0.0431,-0.44415 0,-0.65982 0.17784,-0.88923 0.48198,-1.75006 0.65982,-2.63929 0.56734,-2.83668 0.48838,-5.8068 1.31964,-8.57765 0.22787,-0.75956 0.91164,-1.29946 1.31964,-1.97946 0.25303,-0.42171 0.31206,-0.97189 0.65982,-1.31964 0.17595,-0.17595 2.46333,-0.17595 2.63928,0 0.15552,0.15552 -0.0533,0.44645 0,0.65982 1.07712,4.30851 0.65982,-0.75976 0.65982,5.93838 0,2.85922 0,5.71844 0,8.57766"
       id="path4347"
       inkscape:connector-curvature="0" />
    <path
       style="fill:none;stroke:#000000;stroke-width:1.59491384;stroke-linecap:butt;stroke-linejoin:miter;stroke-miterlimit:4;stroke-opacity:1;stroke-dasharray:none"
       d="m 737.35031,768.78802 c -2.57355,1.54412 -3.50238,1.73869 -5.27856,3.95892 -0.30723,0.38403 -0.3526,0.93561 -0.65982,1.31964 -0.58292,0.72865 -1.61189,1.12178 -1.97946,1.97946 -0.34656,0.80862 0.14463,1.77149 0,2.63928 -0.0808,0.48511 -0.74067,0.83453 -0.65982,1.31964 0.075,0.4496 2.06347,4.15809 2.63928,4.61873 0.89647,0.71718 4.75526,1.51683 5.93838,1.31965 2.20804,-0.36801 2.1908,-0.69976 3.2991,-2.63929 0.48801,-0.854 1.12674,-1.67477 1.31964,-2.63927 0.2588,-1.29401 0,-2.63928 0,-3.95892 0,-1.31964 0,-2.63928 0,-3.95892 0,-1.53958 0,-3.07916 0,-4.61874 0,-0.21994 0,-0.87976 0,-0.65982 0,2.63928 0,5.27856 0,7.91784 0,1.31964 -0.28627,2.6707 0,3.95892 0.17203,0.77412 1.06886,1.22715 1.31964,1.97946 0.26393,0.79179 -0.26393,1.84749 0,2.63928 0.15552,0.46656 0.5043,0.85308 0.65982,1.31964 0.16495,0.49486 -0.32991,1.64955 0,1.97946 0.46657,0.46656 1.31964,0 1.97946,0"
       id="path4349"
       inkscape:connector-curvature="0" />
    <path
       style="fill:none;stroke:#000000;stroke-width:1.59491384;stroke-linecap:butt;stroke-linejoin:miter;stroke-miterlimit:4;stroke-opacity:1;stroke-dasharray:none"
       d="m 755.82527,754.9318 c 0,2.63928 0,5.27856 0,7.91784 0,4.17886 0,8.35772 0,12.53658 0,2.99714 -0.33771,7.79486 1.31964,10.55712 0.32006,0.53343 0.97457,0.80204 1.31964,1.31964 0.122,0.183 -0.19672,0.56146 0,0.65982 0.39344,0.19672 0.90233,-0.1391 1.31964,0 0.29508,0.0984 0.38162,0.52071 0.65982,0.65982 0.19672,0.0984 0.43988,0 0.65982,0 0.43988,0 0.9262,0.19672 1.31964,0 0.19672,-0.0984 -0.0984,-0.4631 0,-0.65982 0.1391,-0.2782 0.52072,-0.38162 0.65982,-0.65982 0.0984,-0.19672 -0.0695,-0.45117 0,-0.65982 0.39993,-1.19979 1.31964,-2.70532 1.31964,-3.95892"
       id="path4351"
       inkscape:connector-curvature="0" />
    <path
       style="fill:none;stroke:#000000;stroke-width:1.59491384;stroke-linecap:butt;stroke-linejoin:miter;stroke-miterlimit:4;stroke-opacity:1;stroke-dasharray:none"
       d="m 746.58779,772.08712 c 4.76939,-0.38404 9.83219,0.78137 14.51604,-0.65982 1.88021,-0.57853 3.51903,-1.75952 5.27856,-2.63928"
       id="path4353"
       inkscape:connector-curvature="0" />
    <path
       style="fill:none;stroke:#000000;stroke-width:1.59491384;stroke-linecap:butt;stroke-linejoin:miter;stroke-miterlimit:4;stroke-opacity:1;stroke-dasharray:none"
       d="m 770.34131,767.46838 c 1.53958,-0.87976 2.97235,-1.98072 4.61874,-2.63928 0.61262,-0.24505 1.31964,0 1.97946,0 2.41934,0 1.31964,-0.43988 1.31964,3.2991 0,3.72906 -0.51391,6.27151 -1.31964,9.8973 -0.19672,0.88524 -0.55968,1.73799 -0.65982,2.63928 -0.12144,1.09297 0,2.1994 0,3.2991 0,0.76355 -0.34576,2.60759 0,3.2991 0.55961,1.11922 0.93037,0.45 1.97946,0.65982 1.26101,0.2522 5.27855,2.94559 5.27855,0"
       id="path4355"
       inkscape:connector-curvature="0" />
    <path
       style="fill:none;stroke:#000000;stroke-width:1.59491384;stroke-linecap:butt;stroke-linejoin:miter;stroke-miterlimit:4;stroke-opacity:1;stroke-dasharray:none"
       d="m 781.55825,753.61216 -2.63928,0 c -0.87976,0.65982 -1.86168,1.20185 -2.63928,1.97946 -1.00277,1.00276 1.5789,0.65982 1.97946,0.65982 0.65982,0 1.46422,0.41219 1.97946,0 4.2827,-3.42616 0.005,-2.63928 -1.31964,-2.63928"
       id="path4357"
       inkscape:connector-curvature="0" />
    <path
       style="fill:none;stroke:#000000;stroke-width:1.59491384;stroke-linecap:butt;stroke-linejoin:miter;stroke-miterlimit:4;stroke-opacity:1;stroke-dasharray:none"
       d="m 799.37339,766.80856 c -2.84546,0.20677 -4.91358,1.95942 -7.25802,3.2991 -0.85401,0.488 -1.87122,0.70519 -2.63928,1.31964 -1.68772,1.35016 0.0836,1.15243 -0.65983,2.63928 -0.2782,0.55641 -1.04143,0.76323 -1.31964,1.31964 -0.38801,0.77603 0.0861,5.07782 0.65983,5.93838 0.5176,0.7764 1.20305,1.46185 1.97946,1.97945 0.5787,0.38581 1.32823,0.41562 1.97946,0.65983 1.109,0.41587 2.1308,1.12492 3.2991,1.31964 1.51863,0.2531 3.07916,0 4.61873,0 0.65983,0 1.31964,0 1.97947,0 0.21994,0 0.50429,0.15552 0.65981,0 0.15553,-0.15552 0,-0.43988 0,-0.65983 0.43989,-0.43987 0.87977,-0.87975 1.31964,-1.31964"
       id="path4359"
       inkscape:connector-curvature="0" />
    <path
       style="fill:none;stroke:#000000;stroke-width:1.59491384;stroke-linecap:butt;stroke-linejoin:miter;stroke-miterlimit:4;stroke-opacity:1;stroke-dasharray:none"
       d="m 818.50817,767.46838 c -0.7698,2.30937 -3.38708,-0.92375 -4.61874,0 -0.63441,0.4758 -0.7589,1.41872 -1.31964,1.97946 -0.56074,0.56073 -1.41872,0.7589 -1.97946,1.31964 -2.10194,2.10193 -2.63928,3.2342 -2.63928,5.93838 0,0.65982 -0.20865,1.3535 0,1.97946 0.25077,0.75231 1.00726,1.25057 1.31964,1.97946 0.35721,0.83351 0.1568,1.88475 0.65982,2.63927 1.42028,2.13043 2.10851,0.94957 3.95892,1.31964 0.48225,0.0965 0.84252,0.54055 1.31963,0.65983 0.42676,0.10668 0.87977,0 1.31964,0 2.59388,0 0.47306,0.39344 2.63928,-2.63928 0.54238,-0.75932 1.4371,-1.22014 1.97947,-1.97946 1.46428,-2.05 1.32162,-2.97614 1.97945,-5.27856 0.19108,-0.66875 0.56147,-1.29094 0.65983,-1.97946 0.12442,-0.87092 0,-1.75952 0,-2.63928 0,-1.19013 0.29508,-2.3442 -0.65983,-3.2991 -1.05688,-1.05689 -0.65981,1.42078 -0.65981,2.63928 0,2.85922 0,5.71844 0,8.57766 0,1.75952 -0.34507,3.5532 0,5.27856 0.16563,0.82816 2.56947,1.28473 2.63928,1.31964 0.55641,0.2782 0.87976,0.87976 1.31964,1.31964"
       id="path4361"
       inkscape:connector-curvature="0" />
    <path
       style="fill:none;stroke:#000000;stroke-width:1.59491384;stroke-linecap:butt;stroke-linejoin:miter;stroke-miterlimit:4;stroke-opacity:1;stroke-dasharray:none"
       d="m 835.66348,745.0345 c -0.0648,7.49425 0.35673,14.97921 -0.65981,22.43388 -0.74994,5.49949 -2.50448,10.96154 -0.65983,16.4955 1.15678,3.47032 1.19127,1.7227 2.63928,4.61874 0.0984,0.19672 -0.15552,0.5043 0,0.65982 0.30395,0.30395 1.37005,0.86296 1.97947,0.65982 1.01446,-0.33815 2.5462,-1.47753 3.29909,-1.97946"
       id="path4363"
       inkscape:connector-curvature="0" />
    <path
       style="fill:none;stroke:#000000;stroke-width:1.59491384;stroke-linecap:butt;stroke-linejoin:miter;stroke-miterlimit:4;stroke-opacity:1;stroke-dasharray:none"
       d="m 843.58133,746.35414 c 0,10.997 0,21.994 0,32.991 0,2.65949 -0.30194,5.35316 0.65982,7.91784 0.27844,0.74251 1.06887,1.22714 1.31963,1.97946 0.20866,0.62596 -0.366,1.43045 0,1.97946 0.24401,0.366 0.8929,-0.10669 1.31964,0 0.47712,0.11928 0.85308,0.5043 1.31964,0.65982 0.96233,0.32078 2.26402,0 3.29912,0"
       id="path4365"
       inkscape:connector-curvature="0" />
    <path
       style="fill:none;stroke:#000000;stroke-width:1.59491384;stroke-linecap:butt;stroke-linejoin:miter;stroke-miterlimit:4;stroke-opacity:1;stroke-dasharray:none"
       d="m 856.11789,774.7264 c 2.61685,2.53822 4.43625,5.69505 6.59823,8.57765 0.18661,0.24884 0.48725,0.40102 0.65982,0.65983 0.54562,0.8184 1.00854,1.70615 1.31963,2.63928 0.0694,0.20865 -0.0984,0.4631 0,0.65982 0.48541,0.97086 1.03526,0.65982 1.97945,0.65982"
       id="path4367"
       inkscape:connector-curvature="0" />
    <path
       style="fill:none;stroke:#000000;stroke-width:1.59491384;stroke-linecap:butt;stroke-linejoin:miter;stroke-miterlimit:4;stroke-opacity:1;stroke-dasharray:none"
       d="m 873.93307,771.4273 c 0.47577,4.11165 -1.43869,7.41491 -2.63934,11.21694 -1.81334,5.74244 -1.79372,8.52012 -4.61871,13.85622 -0.88526,1.67212 -2.3458,2.98447 -3.29908,4.61873 -0.59682,1.02308 -0.78996,2.23973 -1.31963,3.29911 -1.28263,2.56524 -3.43257,4.48846 -5.27861,6.5982 -0.92736,1.05986 -1.52761,2.43448 -2.63926,3.2991 -0.93494,0.72716 -2.23974,0.78995 -3.29908,1.31964 -1.50576,0.75289 -1.81772,1.48566 -3.29911,1.97945 -2.73338,0.91113 -1.97947,-3.33211 -1.97947,-1.31964"
       id="path4369"
       inkscape:connector-curvature="0" />
    <path
       style="fill:none;stroke:#000000;stroke-width:1.59491384;stroke-linecap:butt;stroke-linejoin:miter;stroke-miterlimit:4;stroke-opacity:1;stroke-dasharray:none"
       d="m 883.17053,746.35414 c 0.81198,3.99735 1.72341,8.0951 3.29909,11.87676 0.65822,1.57973 2.91739,5.34943 3.29911,7.25802 0.21567,1.07834 -0.15552,2.21045 0,3.2991 0.0695,0.48685 0.59027,0.83278 0.65982,1.31964 0.39362,2.75532 -0.0247,8.0167 -0.65982,10.55712 -0.28726,1.14905 -1.03238,2.15005 -1.31964,3.2991 -0.16004,0.64012 0.10847,1.32862 0,1.97946 -0.99033,5.94197 -0.0483,-1.52866 -1.97947,3.2991 -0.24505,0.61263 0.16004,1.33934 0,1.97946 -0.15087,0.60351 -1.04143,0.76323 -1.31964,1.31964 -0.0984,0.19672 0.15553,0.5043 0,0.65982 -0.15552,0.15552 -0.43987,0 -0.65981,0"
       id="path4371"
       inkscape:connector-curvature="0" />
  </g>
</svg>
