<?xml version="1.0" encoding="UTF-8" standalone="no"?>
<!-- Created with Inkscape (http://www.inkscape.org/) -->

<svg
   xmlns:dc="http://purl.org/dc/elements/1.1/"
   xmlns:cc="http://creativecommons.org/ns#"
   xmlns:rdf="http://www.w3.org/1999/02/22-rdf-syntax-ns#"
   xmlns:svg="http://www.w3.org/2000/svg"
   xmlns="http://www.w3.org/2000/svg"
   xmlns:sodipodi="http://sodipodi.sourceforge.net/DTD/sodipodi-0.dtd"
   xmlns:inkscape="http://www.inkscape.org/namespaces/inkscape"
   width="1052.3622"
   height="744.09448"
   id="svg2"
   version="1.1"
   inkscape:version="0.48.5 r10040"
   sodipodi:docname="New document 1">
  <defs
     id="defs4" />
  <sodipodi:namedview
     id="base"
     pagecolor="#ffffff"
     bordercolor="#666666"
     borderopacity="1.0"
     inkscape:pageopacity="0.0"
     inkscape:pageshadow="2"
     inkscape:zoom="0.64120312"
     inkscape:cx="640.26718"
     inkscape:cy="348.07252"
     inkscape:document-units="px"
     inkscape:current-layer="layer1"
     showgrid="false"
     inkscape:window-width="1145"
     inkscape:window-height="700"
     inkscape:window-x="0"
     inkscape:window-y="0"
     inkscape:window-maximized="0" />
  <metadata
     id="metadata7">
    <rdf:RDF>
      <cc:Work
         rdf:about="">
        <dc:format>image/svg+xml</dc:format>
        <dc:type
           rdf:resource="http://purl.org/dc/dcmitype/StillImage" />
        <dc:title></dc:title>
      </cc:Work>
    </rdf:RDF>
  </metadata>
  <g
     inkscape:label="Layer 1"
     inkscape:groupmode="layer"
     id="layer1"
     transform="translate(0,-308.2677)">
    <path
       style="fill:none;stroke:#000000;stroke-width:1px;stroke-linecap:butt;stroke-linejoin:miter;stroke-opacity:1"
       d="m 286.96055,922.91802 c 34.3105,0 68.621,0 102.9315,0 7.79784,0 15.59568,0 23.39352,0 3.639,0 7.28871,-0.27909 10.91698,0 3.15285,0.24253 6.20617,1.29697 9.35741,1.55957 14.26327,1.18861 4.51296,-1.71778 18.71482,1.55957 8.35426,1.92791 16.52601,4.55286 24.95309,6.23827 1.96389,0.39278 14.64628,2.28282 17.15525,3.11914 2.20556,0.73519 3.95855,2.66319 6.23827,3.11914 3.05857,0.61171 6.25109,-0.2824 9.35741,0 2.63987,0.23999 5.15797,1.31958 7.79784,1.55957 7.2481,0.65891 14.55597,0 21.83396,0 6.23827,0 12.5075,0.62073 18.71482,0 2.6376,-0.26376 5.19856,-1.03972 7.79784,-1.55957 3.63899,-0.51986 7.25613,-1.22677 10.91697,-1.55957 4.14177,-0.37653 8.34314,0.45927 12.47655,0 2.63454,-0.29273 5.16755,-1.23078 7.79784,-1.55957 5.03321,-0.62915 10.51686,0 15.59568,0 2.07943,0 4.22094,0.50433 6.23828,0 1.12772,-0.28193 1.97927,-1.3316 3.11913,-1.55957 3.79522,-0.75904 8.5751,0 12.47655,0 9.87726,0 19.75453,0 29.63179,0 2.36903,0 10.49513,0.66048 12.47655,0 2.20556,-0.73519 3.98282,-2.55527 6.23827,-3.11913 2.01734,-0.50434 4.18714,0.34185 6.23828,0 1.14661,-0.19111 1.97251,-1.36847 3.11913,-1.55957 5.05806,-0.84301 10.53763,0.84301 15.59568,0 1.62157,-0.27026 3.0667,-1.23717 4.67871,-1.55957 2.5488,-0.50976 5.19856,0 7.79784,0 5.05862,0 10.62426,0.55238 15.59568,0 3.8061,-0.4229 12.8284,-3.84852 15.59568,-4.67871 3.23287,-3.32573 7.38248,-0.54971 10.91698,-1.55956 2.23542,-0.63869 4.03271,-2.38395 6.23827,-3.11914 2.42126,-0.80708 15.2699,0 18.71482,0 12.47655,0 24.95309,0 37.42964,0"
       id="path2987"
       inkscape:connector-curvature="0"
       inkscape:export-filename="/Users/christian/Documents/Informatik/Autorennen/autorennen/img/loading_7.png"
       inkscape:export-xdpi="72.120003"
       inkscape:export-ydpi="72.120003" />
    <path
       style="fill:none;stroke:#000000;stroke-width:1px;stroke-linecap:butt;stroke-linejoin:miter;stroke-opacity:1"
       d="m 828.13072,608.41205 c 4.34727,-6.52092 5.41988,-9.4552 10.91698,-14.03612 1.43992,-1.19994 3.35332,-1.79375 4.6787,-3.11913 2.35375,-2.35375 3.88452,-5.44409 6.23827,-7.79784 3.88539,-3.88539 9.58134,-6.38756 14.03612,-9.35741 2.16273,-1.44182 4.12315,-3.16791 6.23827,-4.67871 1.52524,-1.08945 3.35333,-1.79376 4.6787,-3.11913 1.83797,-1.83797 2.72255,-4.52664 4.67871,-6.23828 2.28125,-1.99609 5.37284,-2.85995 7.79784,-4.6787 2.35237,-1.76428 10.781,-10.10278 12.47655,-12.47655 2.59464,-3.6325 5.77644,-12.61154 9.3574,-15.59568 1.78602,-1.48834 4.42286,-1.6668 6.23828,-3.11913 0.90771,-0.72617 0.7376,-2.29718 1.55957,-3.11914 1.32537,-1.32538 3.50779,-1.6555 4.6787,-3.11914 1.02695,-1.28369 1.03971,-3.11913 1.55957,-4.6787 1.55957,-2.07943 2.84073,-4.40031 4.6787,-6.23828 6.1386,-6.13859 3.16783,-0.0649 7.79784,-6.23827 0.69746,-0.92994 0.86211,-2.18919 1.55957,-3.11913 1.37562,-1.83416 5.14053,-4.04279 6.23828,-6.23828 0.23248,-0.46497 -0.23249,-1.09459 0,-1.55957 0.32878,-0.65757 1.23078,-0.90199 1.55956,-1.55956 0.23249,-0.46498 -0.23248,-1.0946 0,-1.55957 3.24528,-6.49055 -0.10766,1.66723 3.11914,-1.55957 0.73519,-0.73519 -0.73519,-2.38395 0,-3.11914 0.36759,-0.36759 1.03971,0 1.55957,0 0.51985,-0.51985 1.03971,-1.03971 1.55957,-1.55956"
       id="path2993"
       inkscape:connector-curvature="0"
       transform="translate(0,308.2677)"
       inkscape:export-filename="/Users/christian/Documents/Informatik/Autorennen/autorennen/img/loading_6.png"
       inkscape:export-xdpi="72.120003"
       inkscape:export-ydpi="72.120003" />
    <path
       style="fill:none;stroke:#000000;stroke-width:1px;stroke-linecap:butt;stroke-linejoin:miter;stroke-opacity:1"
       d="m 285.40098,611.53118 c -5.88258,-2.82569 -9.22345,-8.46599 -14.03611,-12.47654 -3.09297,-3.35247 -7.42496,-5.00422 -10.91698,-7.79784 -1.14817,-0.91854 -1.84249,-2.38963 -3.11914,-3.11914 -2.43065,-1.38894 -5.22468,-2.01635 -7.79784,-3.11913 -4.7321,-2.02805 -2.25435,-1.511 -7.79784,-4.67871 -3.02782,-1.73018 -6.36707,-2.8845 -9.35741,-4.6787 -2.89396,-1.73638 -8.65337,-5.91151 -10.91697,-7.79784 -2.25915,-1.88263 -3.94194,-4.40121 -6.23828,-6.23828 -1.46363,-1.17091 -3.35332,-1.79376 -4.6787,-3.11913 -1.32538,-1.32538 -1.79376,-3.35333 -3.11914,-4.67871 -6.13859,-6.13859 -3.16783,-0.0649 -7.79784,-6.23827 -0.69746,-0.92995 -0.86211,-2.18919 -1.55957,-3.11914 -0.88222,-1.1763 -2.23691,-1.94283 -3.11913,-3.11913 -0.69746,-0.92995 -0.86211,-2.18919 -1.55957,-3.11914 -0.88223,-1.1763 -2.23691,-1.94284 -3.11914,-3.11914 -1.39492,-1.85989 -1.82953,-4.30386 -3.11914,-6.23827 -0.4078,-0.61171 -1.15175,-0.94786 -1.55956,-1.55957 -1.64103,-2.46154 -1.47811,-3.77673 -3.11914,-6.23827 -0.81562,-1.22343 -2.46156,-1.80399 -3.11914,-3.11914 -0.23248,-0.46497 0.23249,-1.09459 0,-1.55957 -0.32878,-0.65757 -1.11845,-0.97141 -1.55956,-1.55956 -1.12463,-1.4995 -1.65551,-3.5078 -3.11914,-4.67871 -1.28369,-1.02695 -3.26905,-0.71377 -4.67871,-1.55957 -7.79784,-4.6787 0,-1.55957 -4.6787,-4.6787 -0.9672,-0.6448 -2.15193,-0.91477 -3.11914,-1.55957 -1.77467,-1.18311 -5.16463,-4.80675 -6.23827,-6.23827 -1.77546,-2.36729 -1.35294,-4.67871 -4.6787,-4.67871"
       id="path2995"
       inkscape:connector-curvature="0"
       transform="translate(0,308.2677)"
       inkscape:export-filename="/Users/christian/Documents/Informatik/Autorennen/autorennen/img/loading_06.png"
       inkscape:export-xdpi="72.120003"
       inkscape:export-ydpi="72.120003" />
    <path
       style="fill:none;stroke:#000000;stroke-width:1.11460435px;stroke-linecap:butt;stroke-linejoin:miter;stroke-opacity:1"
       d="m 946.6006,784.05915 c -1.15755,-2.90048 -1.60257,-6.20231 -3.47263,-8.70144 -1.73632,-2.32038 -4.63018,-3.48058 -6.94528,-5.22085 -1.73632,-2.32039 -3.67521,-4.50156 -5.20895,-6.96116 -1.37182,-2.19993 -2.03687,-4.80258 -3.47264,-6.96115 -6.50665,-9.78228 -14.38894,-17.34449 -20.83581,-27.84459 -2.44555,-3.98311 -4.63019,-8.12135 -6.94527,-12.18202 -2.89387,-4.06067 -5.98927,-7.98438 -8.68159,-12.18201 -2.09033,-3.25904 -9.26679,-16.74911 -12.15423,-20.88345 -2.12522,-3.04297 -4.88958,-5.61085 -6.94527,-8.70144 -1.43576,-2.15855 -2.08301,-4.77246 -3.47264,-6.96114 -9.13098,-14.3815 -20.5405,-27.95617 -27.78108,-43.50718 -3.40904,-7.32179 -5.92667,-15.03039 -8.68159,-22.62374 -2.16099,-5.95631 -4.06922,-13.3779 -6.94527,-19.14316 -2.08679,-4.18313 -4.35692,-8.29061 -6.94528,-12.18201 -0.45401,-0.6826 -1.37026,-1.00652 -1.73631,-1.74029 -3.86351,-7.74468 -4.36394,-16.79086 -8.68158,-24.36402 -0.8122,-1.42457 -2.3151,-2.32039 -3.47264,-3.48058 -2.3151,-2.32038 -4.98085,-4.33593 -6.94527,-6.96114 -1.55301,-2.07541 -1.81562,-4.96818 -3.47264,-6.96115 -1.33593,-1.60679 -3.87302,-1.87379 -5.20896,-3.48058 -1.65702,-1.99297 -2.03688,-4.80259 -3.47263,-6.96114 -1.75982,-2.64577 -12.00432,-10.29149 -12.15423,-10.44173 -2.04627,-2.05095 -3.01176,-5.07355 -5.20895,-6.96116 -1.96522,-1.68832 -4.83904,-1.97268 -6.94528,-3.48056 -2.02569,-1.45024 -6.36649,-6.76779 -8.68158,-8.70144 -2.22313,-1.85684 -4.59044,-3.535 -6.94527,-5.22087 -1.6981,-1.21569 -3.73337,-2.00161 -5.20895,-3.48057 -13.65811,-13.68931 8.38539,3.81328 -8.6816,-10.44172 -1.60312,-1.33899 -3.87302,-1.87379 -5.20895,-3.48058 -1.65701,-1.99297 -1.96819,-4.8501 -3.47264,-6.96114 -2.85448,-4.00543 -7.27392,-6.66033 -10.41791,-10.44173 -1.33593,-1.60679 -1.88822,-3.85969 -3.47262,-5.22087 -10.60347,-9.10945 -6.04392,-1.35228 -12.15423,-8.70143 -4.56059,-5.48521 -7.73584,-11.86726 -12.15423,-17.40287 -1.02263,-1.28122 -2.74053,-2.01304 -3.47263,-3.48058 -1.06721,-2.13928 -0.7963,-4.76274 -1.73632,-6.96115 -0.82203,-1.92244 -2.39898,-3.42736 -3.47264,-5.22086 -2.62154,-4.37923 -3.8983,-9.85039 -6.94527,-13.9223 -4.84496,-6.47471 -2.69621,-0.1839 -6.94526,-8.70143 -0.25884,-0.51885 0.18302,-1.18996 0,-1.74029 -0.40927,-1.23057 -1.32707,-2.25 -1.73632,-3.48057 -0.18304,-0.55033 0.40925,-1.3301 0,-1.74029 -0.40927,-0.4102 -1.32707,0.41019 -1.73632,0 -0.89694,-0.89898 1.35711,-2.12036 -1.73632,-5.22086"
       id="path2997"
       inkscape:connector-curvature="0"
       inkscape:export-filename="/Users/christian/Documents/Informatik/Autorennen/autorennen/img/loading_3.png"
       inkscape:export-xdpi="72.120003"
       inkscape:export-ydpi="72.120003" />
    <path
       style="fill:none;stroke:#000000;stroke-width:1px;stroke-linecap:butt;stroke-linejoin:miter;stroke-opacity:1"
       d="m 154.39725,489.88486 c 0,-3.11913 -1.19967,-6.4782 0,-9.3574 1.56162,-3.74789 5.73924,-5.85778 7.79784,-9.35741 3.18482,-5.4142 4.78996,-11.6408 7.79784,-17.15525 3.24571,-5.95046 7.27799,-11.43684 10.91698,-17.15525 3.63899,-5.71842 7.03,-11.60242 10.91698,-17.15525 15.50073,-22.14391 6.55568,-5.62344 20.27439,-28.07223 18.27803,-32.90047 -2.25504,2.81469 15.59568,-24.95309 2.26643,-3.52556 3.77312,-7.5274 6.23827,-10.91698 1.72967,-2.37829 4.30178,-4.02513 6.23827,-6.23827 4.83354,-5.52405 5.41436,-8.5335 10.91698,-14.03612 1.32538,-1.32538 3.17921,-1.99451 4.67871,-3.11913 5.02885,-1.54514 7.1744,-6.36335 10.91697,-9.35741 1.46364,-1.17091 3.45889,-1.69601 4.67871,-3.11914 1.97271,-2.3015 2.85995,-5.37284 4.6787,-7.79784 3.48718,-4.64957 8.84494,-7.93704 12.47655,-12.47655 0.72616,-0.9077 0.91476,-2.15193 1.55957,-3.11913 0.40781,-0.61172 1.03971,-1.03972 1.55956,-1.55957 0.51986,-1.03971 0.91477,-2.15193 1.55957,-3.11914 0.40781,-0.61171 1.23079,-0.90199 1.55957,-1.55957 0.73519,-1.47037 0.94903,-3.15235 1.55957,-4.6787 1.76172,-4.40429 3.00937,-4.51406 6.23827,-9.35741 0.6448,-0.9672 0.86211,-2.18919 1.55957,-3.11914 0.88223,-1.1763 2.2006,-1.97096 3.11914,-3.11913 3.25792,-4.0724 6.09949,-8.40415 9.35741,-12.47655 0.91853,-1.14817 2.23691,-1.94283 3.11913,-3.11913 0.69746,-0.92995 0.86211,-2.18919 1.55957,-3.11914 0.88223,-1.1763 2.07942,-2.07943 3.11914,-3.11914 1.55957,-2.07942 3.1679,-4.12315 4.6787,-6.23827 1.08946,-1.52524 1.79376,-3.35333 3.11914,-4.6787 1.83797,-1.83797 4.57425,-2.68189 6.23827,-4.67871 1.05242,-1.2629 0.64768,-3.31087 1.55957,-4.6787 1.29964,-1.94946 6.06499,-5.63178 7.79784,-7.79785 1.17091,-1.46363 1.9192,-3.23877 3.11914,-4.6787 2.35327,-2.82393 5.5015,-4.92742 7.79784,-7.79784 2.34181,-2.92727 3.89645,-6.43014 6.23827,-9.35741 1.3778,-1.72225 3.45528,-2.84357 4.67871,-4.6787 4.85913,-7.28871 -3.05401,1.86804 4.6787,-7.79785 0.91854,-1.14817 2.30352,-1.89571 3.11914,-3.11913 2.55929,-3.83894 3.67898,-8.63761 6.23827,-12.47655 0.40781,-0.61171 1.23078,-0.90199 1.55957,-1.55957 0.73518,-1.47037 0.82438,-3.20833 1.55957,-4.6787 0.32878,-0.65757 1.11845,-0.97142 1.55956,-1.55957 1.12462,-1.49949 2.07943,-3.11914 3.11914,-4.6787 3.16601,-4.74902 3.92896,-6.08088 7.79784,-10.91698 0.45927,-0.57409 1.15176,-0.94786 1.55957,-1.55957 0.6448,-0.9672 0.86211,-2.18919 1.55957,-3.11914 3.00253,-4.00337 7.91444,-5.35403 10.91697,-9.3574 1.39493,-1.8599 1.47521,-4.59435 3.11914,-6.23828 0.82197,-0.82196 2.29717,-0.7376 3.11914,-1.55957 0.82196,-0.82196 0.91476,-2.15193 1.55957,-3.11913 0.4078,-0.61172 1.23078,-0.902 1.55956,-1.55957 0.23249,-0.46497 -0.23248,-1.0946 0,-1.55957 0.65758,-1.31514 2.65417,-1.72421 3.11914,-3.11913 0.32879,-0.98636 -0.32879,-2.13278 0,-3.11914 1.62264,-4.86791 1.03971,0.51985 3.11914,-1.55957 0.36759,-0.36759 -0.3676,-1.19197 0,-1.55957 0.36759,-0.36759 1.03971,0 1.55957,0 0.51985,-0.51985 1.15175,-0.94785 1.55956,-1.55957 2.66563,-3.99844 0.43565,-3.99043 1.55957,-6.23827 0.66263,-1.32526 12.26819,-12.351529 12.47655,-12.476545 1.52262,-0.913573 6.2198,-1.541095 7.79784,-3.119136 0.36759,-0.367594 -0.23249,-1.094595 0,-1.559568 0.32878,-0.657572 1.23078,-0.901997 1.55957,-1.559568 0.23248,-0.464974 -0.23249,-1.094595 0,-1.559569 0.32878,-0.657571 1.15176,-0.947855 1.55956,-1.559568 0.64481,-0.967203 0.91477,-2.151933 1.55957,-3.119136 0.81562,-1.223426 2.46157,-1.803993 3.11914,-3.119137 0.23249,-0.464973 -0.16439,-1.066389 0,-1.559568 0.73519,-2.205562 2.07942,-4.158848 3.11914,-6.238273 1.55956,-3.119136 2.74429,-6.455799 4.6787,-9.357409 0.40781,-0.611713 1.23078,-0.901996 1.55957,-1.559568 0.99679,-1.993577 -1.68119,-3.119136 1.55957,-3.119136"
       id="path2999"
       inkscape:connector-curvature="0"
       transform="translate(0,308.2677)"
       inkscape:export-filename="/Users/christian/Documents/Informatik/Autorennen/autorennen/img/loading_2.png"
       inkscape:export-xdpi="72.120003"
       inkscape:export-ydpi="72.120003" />
    <path
       style="fill:none;stroke:#000000;stroke-width:1px;stroke-linecap:butt;stroke-linejoin:miter;stroke-opacity:1"
       d="m 474.10873,51.646199 c 31.19137,0 62.38273,0 93.5741,0 3.43905,0 21.24954,-0.714659 23.39352,0 0.69746,0.232486 0.84633,1.381259 1.55957,1.559568 2.01734,0.504334 4.26556,-0.657572 6.23827,0 1.10278,0.367593 1.99141,1.277636 3.11914,1.559568 2.86191,0.715478 6.56035,-0.932351 9.35741,0 1.10278,0.367594 2.01635,1.191974 3.11913,1.559568 2.22573,0.741911 9.68036,0 12.47655,0 9.35741,0 18.71482,0 28.07223,0"
       id="path3001"
       inkscape:connector-curvature="0"
       transform="translate(0,308.2677)"
       inkscape:export-filename="/Users/christian/Documents/Informatik/Autorennen/autorennen/img/loading_1.png"
       inkscape:export-xdpi="72.120003"
       inkscape:export-ydpi="72.120003" />
    <path
       style="fill:none;stroke:#000000;stroke-width:1.03396297px;stroke-linecap:butt;stroke-linejoin:miter;stroke-opacity:1"
       d="m 154.99533,795.03448 c 18.86819,0.9603 37.73636,1.9206 56.60455,2.88091 51.24154,2.60795 -12.79652,-0.17213 41.71156,0.56105 20.50666,0.27582 41.11029,2.09232 61.59907,3.1351 19.42313,0.98855 38.84625,1.9771 58.26939,2.96565 9.83836,0.50072 20.12827,1.68119 29.9671,1.52518 3.92931,-0.0623 7.82964,-0.64275 11.74446,-0.96414 3.91482,-0.32137 7.86277,-0.39033 11.74447,-0.96413 3.99645,-0.59076 7.849,-1.87201 11.83505,-2.5214 8.09231,-1.31837 9.65104,-0.4277 16.82956,-2.2672 1.19858,-0.30714 2.2217,-1.08066 3.42026,-1.38781 2.18402,-0.55965 17.28284,0.87962 18.31323,0.93206 8.87915,0.45191 17.7583,0.90382 26.63744,1.35573 5.71855,0.29104 12.70066,-0.1117 18.31324,0.93205 1.72374,0.32057 3.18861,1.45351 4.90392,1.81147 4.81547,1.00492 10.1681,-0.24233 14.98356,0.76259 3.41881,-0.36847 5.24447,2.84083 8.14303,3.5382 3.22949,0.77698 6.65935,0.33893 9.98903,0.50839 5.54948,0.28245 11.09894,0.56489 16.6484,0.84733 3.58292,0.18235 21.016,1.77352 23.30775,1.18626 1.19857,-0.30715 2.20004,-1.16756 3.42027,-1.3878 2.45279,-0.44273 7.95093,1.33537 9.98904,0.50839 0.72105,-0.29258 0.99739,-1.27828 1.75543,-1.47253 1.6278,-0.41713 5.01803,1.00491 6.65934,0.33893 0.72107,-0.29258 0.99739,-1.27828 1.75543,-1.47254 1.52554,-0.39091 3.46899,0.64512 4.99452,0.2542 1.19856,-0.30713 2.22169,-1.08066 3.42027,-1.3878 0.53602,-0.13735 1.15497,0.29162 1.66483,0.0847 0.72107,-0.29256 1.03437,-1.17995 1.75542,-1.47252 1.82415,-0.74016 4.83523,1.07909 6.65937,0.33893 4.22643,-1.71491 -0.48408,-1.58651 3.42025,-1.3878"
       id="path3003"
       inkscape:connector-curvature="0"
       inkscape:export-filename="/Users/christian/Documents/Informatik/Autorennen/autorennen/img/loading_9.png"
       inkscape:export-xdpi="72.120003"
       inkscape:export-ydpi="72.120003" />
    <path
       style="fill:none;stroke:#000000;stroke-width:1.18184173px;stroke-linecap:butt;stroke-linejoin:miter;stroke-opacity:1"
       d="m 651.80859,364.71251 c -11.62813,0 -3.79718,-1.74732 -12.83146,5.55995 -1.06689,0.86293 -2.44408,1.23554 -3.66613,1.85331 -1.83306,2.47109 -3.3389,5.22911 -5.4992,7.41326 -2.16029,2.18416 -5.17197,3.3758 -7.33225,5.55995 -2.1603,2.18415 -3.62355,4.97507 -5.49921,7.41327 -16.82483,21.8709 2.42855,-4.30196 -14.66451,20.38647 -3.99516,5.77042 -8.96703,10.81914 -12.83147,16.67984 -1.51575,2.29876 -1.88779,5.31562 -3.66613,7.41326 -1.98824,2.34524 -5.01265,3.54974 -7.33226,5.55995 -1.96826,1.70571 -3.5077,3.88204 -5.49919,5.55995 -1.69245,1.42594 -3.9414,2.13162 -5.49921,3.70663 -1.55781,1.57502 -2.10832,3.98493 -3.66612,5.55994 -0.96612,0.97679 -2.44409,1.23556 -3.66613,1.85332 -1.22205,1.85331 -2.25577,3.84881 -3.66614,5.55995 -1.65957,2.0135 -4.21304,3.28429 -5.49919,5.55995 -1.24993,2.21153 -0.84066,5.07207 -1.83307,7.41326 -3.99555,9.42593 -2.60194,2.0927 -7.33226,9.26657 -7.52678,11.4149 0.16786,3.4945 -7.33225,12.97322 -2.15925,2.72885 -4.88819,4.94217 -7.33228,7.41327 -3.66612,3.70662 -6.77944,8.07305 -10.99839,11.11988 -2.22359,1.60583 -5.40004,1.75307 -7.33226,3.70664 -1.93222,1.95356 -1.88779,5.31561 -3.66613,7.41325 -1.98824,2.34524 -5.01266,3.54975 -7.33227,5.55996 -3.9365,3.41143 -7.58424,7.17491 -10.99839,11.11989 -2.57636,2.97694 -4.98479,6.10205 -7.33226,9.26657 -3.12248,4.20931 -5.44828,9.21511 -9.16532,12.97322 -2.1603,2.18415 -5.55652,3.04644 -7.33226,5.55994 -1.46432,2.07269 -0.84067,5.07208 -1.83307,7.41326 -1.40347,3.31095 -3.90585,6.04469 -5.4992,9.26658 -0.61101,1.23556 -1.401,2.39614 -1.83307,3.70664 -0.19322,0.58606 0.33894,1.33929 0,1.85331 -0.95864,1.45385 -2.70747,2.25277 -3.66612,3.70664 -0.33894,0.51401 0,1.23554 0,1.85331 -0.61103,1.23555 -1.07519,2.55726 -1.83307,3.70663 -1.9173,2.90772 -5.11949,4.72861 -7.33225,7.41326 -1.41038,1.71114 -2.28989,3.82063 -3.66614,5.55995 -2.15923,2.72886 -5.25839,4.61755 -7.33227,7.41326 -1.63954,2.21021 -1.73391,5.45969 -3.66612,7.41326 -7.2151,7.29482 -3.72337,0.0771 -9.16533,7.41327 -0.81977,1.1051 -1.0133,2.60153 -1.83308,3.70663 -1.03693,1.39786 -2.58651,2.34221 -3.66611,3.70663 -3.32658,2.16685 -3.36151,6.38483 -5.49921,9.26659 -9.88889,13.33085 2.03539,-3.91121 -7.33226,5.55993 -0.96611,0.97679 -0.86696,2.72986 -1.83306,3.70664 -1.55782,1.57501 -3.73674,2.37019 -5.49919,3.70663 -2.55335,1.93617 -4.49456,5.97873 -7.33228,7.41326 -0.54651,0.27628 -1.401,-0.43683 -1.83306,0 -0.43206,0.43683 0.27326,1.30076 0,1.85333 -1.64963,3.33569 -8.79493,7.77818 -10.9984,11.11989 -1.0168,1.54205 0.81977,3.90228 0,5.55994 -0.27325,0.55255 -1.401,-0.43683 -1.83305,0 -0.43206,0.43684 0.27325,1.30077 0,1.85331 -1.09984,2.22398 -4.39937,3.33597 -5.4992,5.55996 -0.27325,0.55254 0.43206,1.41648 0,1.8533 -0.43206,0.43684 -1.40101,-0.43682 -1.83308,0 -0.43205,0.43684 0.43207,1.4165 0,1.85332 -0.43205,0.43684 -1.22203,0 -1.83305,0"
       id="path3005"
       inkscape:connector-curvature="0"
       inkscape:export-filename="/Users/christian/Documents/Informatik/Autorennen/autorennen/img/loading_10.png"
       inkscape:export-xdpi="72.120003"
       inkscape:export-ydpi="72.120003" />
    <path
       style="fill:none;stroke:#000000;stroke-width:1px;stroke-linecap:butt;stroke-linejoin:miter;stroke-opacity:1"
       d="m 828.13072,603.73334 c -1.27917,-3.81397 0.97485,-8.57715 0,-12.47654 -0.28193,-1.12773 -1.12785,-2.03985 -1.55957,-3.11914 -2.12257,-5.30641 -4.11263,-11.49445 -4.6787,-17.15525 -0.25864,-2.58638 0.3224,-5.21863 0,-7.79784 -0.40781,-3.26247 -2.47434,-6.1334 -3.11914,-9.35741 -0.20391,-1.01952 0.2039,-2.09961 0,-3.11914 -1.72639,-8.63193 -1.82711,-0.58074 -3.11914,-10.91697 -0.25792,-2.06337 0.65757,-4.26556 0,-6.23828 -0.46497,-1.39492 -2.57305,-1.75392 -3.11913,-3.11913 0,-10.6271 1.10278,0.64599 -3.11914,-7.79784 -0.46497,-0.92995 0.25217,-2.11047 0,-3.11914 -0.5866,-2.3464 -4.80748,-10.33036 -6.23827,-12.47655 -0.81562,-1.22342 -2.46157,-1.80399 -3.11914,-3.11913 -1.38039,-2.76078 2.31976,-0.53292 -1.55957,-3.11914 -2.22738,-1.48492 -4.77357,-0.92208 -6.23827,-3.11913 -0.6448,-0.96721 -0.91477,-2.15194 -1.55957,-3.11914 -0.81562,-1.22343 -2.65416,-1.72422 -3.11914,-3.11914 -0.32878,-0.98635 0.46498,-2.18919 0,-3.11913 -0.23248,-0.46498 -1.09459,0.23248 -1.55956,0 -0.65758,-0.32879 -1.03972,-1.03972 -1.55957,-1.55957 -0.51986,-0.51986 -1.32708,-0.86211 -1.55957,-1.55957 -0.32879,-0.98636 0.32879,-2.13278 0,-3.11914 -0.23249,-0.69746 -1.23078,-0.90199 -1.55957,-1.55956 -0.23249,-0.46498 0.16439,-1.06639 0,-1.55957 -1.88463,-5.65389 -0.73996,-1.10994 -3.11913,-4.67871 -3.18149,-4.77222 -4.85114,-10.6845 -7.79785,-15.59568 -0.37825,-0.63042 -1.15176,-0.94785 -1.55956,-1.55957 -1.28961,-1.9344 -1.82954,-4.30386 -3.11914,-6.23827 -0.40781,-0.61171 -1.15176,-0.94786 -1.55957,-1.55957 -2.72542,-4.08813 -0.58292,-2.72542 -3.11913,-7.79784 -3.81653,-7.63304 -1.88651,-1.99549 -6.23828,-7.79784 -0.69746,-0.92995 -0.86211,-2.18919 -1.55957,-3.11914 -0.88222,-1.1763 -2.36263,-1.8583 -3.11913,-3.11913 -1.54149,-2.56915 -2.58109,-7.77055 -4.67871,-10.91698 -0.40781,-0.61171 -1.15176,-0.94786 -1.55957,-1.55957 -2.55515,-3.83273 -3.8668,-8.5241 -6.23827,-12.47654 -7.63304,-12.72174 1.10742,1.99641 -6.23827,-7.79785 -3.35125,-4.46832 -3.36299,-10.80354 -6.23827,-15.59568 -8.93902,-13.40852 1.77818,3.55636 -4.67871,-9.35741 -0.83824,-1.67648 -2.28089,-3.00222 -3.11913,-4.6787 -0.73519,-1.47038 -0.71378,-3.26905 -1.55957,-4.67871 -0.7565,-1.26083 -2.36264,-1.8583 -3.11914,-3.11913 -0.84579,-1.40966 -0.82438,-3.20833 -1.55957,-4.67871 -0.32878,-0.65757 -1.03971,-1.03971 -1.55957,-1.55957 -0.51985,-1.55956 -0.82438,-3.20833 -1.55956,-4.6787 -0.48118,-0.96236 -6.83549,-7.31666 -7.79785,-7.79784 -0.46497,-0.23249 -1.19197,0.36759 -1.55956,0 -0.82197,-0.82197 -0.91477,-2.15193 -1.55957,-3.11914 -0.40781,-0.61171 -1.23078,-0.90199 -1.55957,-1.55957 -0.23249,-0.46497 0.23249,-1.09459 0,-1.55956 -1.24884,-2.49769 -4.67623,-3.89521 -6.23827,-6.23828 -0.6448,-0.9672 -0.91477,-2.15193 -1.55957,-3.11913 -0.81562,-1.22343 -2.46157,-1.804 -3.11914,-3.11914 -0.23248,-0.46497 0.23249,-1.09459 0,-1.55957 -0.32878,-0.65757 -1.23078,-0.90199 -1.55957,-1.55957 -0.23248,-0.46497 0.23249,-1.09459 0,-1.55956 -0.65757,-1.31515 -2.46156,-1.804 -3.11913,-3.11914 -0.23249,-0.46497 0.16439,-1.06639 0,-1.55957 -0.3676,-1.10278 -1.19198,-2.01635 -1.55957,-3.11914 -0.16439,-0.49317 0.36759,-1.19197 0,-1.55956 -8.24698,-8.24698 2.42089,7.96092 -4.6787,-6.23828 -0.98911,-1.97821 -5.59904,-4.32054 -6.23828,-6.23827 -0.32878,-0.98636 0.73519,-2.38395 0,-3.11914 -1.16243,-1.16243 -3.36356,-0.57321 -4.6787,-1.55956 -0.92995,-0.69746 -0.73761,-2.29718 -1.55957,-3.11914 -0.82196,-0.82197 -2.29717,-0.7376 -3.11914,-1.55957 -5.85074,-5.85074 -0.98671,-2.87519 -4.6787,-7.79784 -0.88223,-1.1763 -2.23691,-1.94284 -3.11914,-3.11914 -0.69746,-0.92994 -0.7376,-2.29717 -1.55957,-3.11913 -0.82196,-0.82197 -2.47433,-0.59237 -3.11913,-1.55957 -0.57673,-0.86509 0.32878,-2.13278 0,-3.11914 -0.23249,-0.69746 -1.23078,-0.90199 -1.55957,-1.55957 -0.62383,-1.24765 0.62383,-3.43105 0,-4.6787 -0.65757,-1.31514 -2.46157,-1.80399 -3.11914,-3.11914 -0.47081,-0.94162 0.72094,-3.95777 0,-4.6787 -0.36759,-0.36759 -1.19197,0.36759 -1.55957,0 -0.73518,-0.73519 0.32879,-2.13278 0,-3.11914 -3.76553,-11.2966 0.44963,2.45883 -3.11913,-4.6787 -0.23249,-0.46498 0.36759,-1.19198 0,-1.55957 -0.3676,-0.36759 -1.0946,0.23249 -1.55957,0 -1.31514,-0.65757 -2.46156,-1.80399 -3.11914,-3.11914 -0.23248,-0.46497 0.3676,-1.19197 0,-1.55956 -0.36759,-0.3676 -1.19197,0.36759 -1.55956,0 -0.73519,-0.73519 0.73518,-2.38395 0,-3.11914 -0.3676,-0.3676 -1.19198,0.36759 -1.55957,0 -0.3676,-0.3676 0.23248,-1.0946 0,-1.55957 -0.65757,-1.31514 -2.46157,-1.80399 -3.11914,-3.11914 -0.73519,-1.47037 -0.82438,-3.20833 -1.55957,-4.6787 -1.92716,-3.85432 -1.55957,0.53833 -1.55957,-3.11914"
       id="path3007"
       inkscape:connector-curvature="0"
       transform="translate(0,308.2677)"
       inkscape:export-filename="/Users/christian/Documents/Informatik/Autorennen/autorennen/img/loading_5.png"
       inkscape:export-xdpi="72.120003"
       inkscape:export-ydpi="72.120003" />
    <path
       style="fill:none;stroke:#000000;stroke-width:1.54484415px;stroke-linecap:butt;stroke-linejoin:miter;stroke-opacity:1"
       d="m 644.13106,801.43971 c -13.01118,-1.88396 2.60223,-8.40189 0,-11.97093 -0.61335,-0.84123 -2.29603,-1.15392 -2.90939,-1.99515 -0.43369,-0.59484 0.30669,-1.36423 0,-1.99515 -0.68574,-1.41079 -2.22364,-2.57954 -2.9094,-3.99032 -1.16843,-2.40382 0.90123,-5.50854 0,-7.98061 -0.7438,-2.04029 -2.30792,-3.92323 -2.90937,-5.98547 -1.10868,-3.80148 1.36946,-8.2144 0,-11.97094 -0.52594,-1.44269 -2.38345,-2.5476 -2.90939,-3.99029 -1.59732,-4.38152 1.5973,-9.58458 0,-13.96609 -0.52593,-1.4427 -2.22364,-2.57951 -2.90939,-3.99032 -1.3649,-2.80799 1.923,-7.3383 0,-9.97577 -0.61335,-0.84122 -2.29603,-1.15391 -2.90939,-1.99515 -0.8674,-1.18967 0.61336,-2.72846 0,-3.99031 -1.76575,-3.63268 -4.05302,-6.3431 -5.81876,-9.97577 -0.30669,-0.63092 0.30668,-1.36423 0,-1.99515 -7.02465,-14.45174 0.83878,3.14557 -5.81878,-5.98548 -0.43372,-0.59483 0.68574,-1.52488 0,-1.99514 -0.68574,-0.47027 -2.22365,0.47026 -2.90939,0 -0.68574,-0.47027 0.43371,-1.40032 0,-1.99516 -0.61335,-0.84123 -2.14862,-1.21259 -2.90939,-1.99516 -2.4329,-2.50259 -4.29372,-6.46012 -8.72814,-7.98061 -0.86743,-0.29742 -2.22366,0.47026 -2.90941,0 -0.68573,-0.47027 0.43372,-1.40032 0,-1.99516 -1.2267,-1.68245 -4.29723,-2.42518 -5.81877,-3.99031 -1.20288,-1.23733 -2.22363,-2.57951 -2.90937,-3.99031 -0.30669,-0.63091 0.68574,-1.52489 0,-1.99515 -0.68577,-0.47027 -2.22365,0.47026 -2.90939,0 -1.37151,-0.94052 0.86741,-2.80063 0,-3.99031 -0.61337,-0.84123 -2.29605,-1.15393 -2.90939,-1.99516 -1.33209,-1.82698 0.37844,-8.93771 0,-9.97577 -0.33264,-0.91244 -2.29603,-1.15392 -2.90939,-1.99516 -0.43371,-0.59484 0,-1.3301 0,-1.99515 -0.9698,-0.66505 -2.29603,-1.15392 -2.90939,-1.99515 -1.55168,-2.12817 1.55168,-5.85246 0,-7.98063 -0.61334,-0.84123 -2.29603,-1.15392 -2.9094,-1.99514 -0.86739,-1.18969 1.37151,-3.04979 0,-3.99032 -6.01961,-4.12804 0.23533,6.3082 -5.81875,-1.99516 -0.43372,-0.59483 0.43369,-1.4003 0,-1.99515 -0.61336,-0.84123 -2.29604,-1.15392 -2.90939,-1.99514 -0.43372,-0.59486 0.30666,-1.36424 0,-1.99516 -7.02463,-14.45174 0.83879,3.14557 -5.81878,-5.98547 -0.43369,-0.59483 0.4337,-1.40031 0,-1.99516 -0.61335,-0.84123 -2.29603,-1.15391 -2.90938,-1.99515 -0.4337,-0.59484 0.68574,-1.5249 0,-1.99515 -0.68575,-0.47027 -2.22365,0.47025 -2.90939,0 -1.3715,-0.94053 0.86741,-2.80063 0,-3.99032 -0.61336,-0.84122 -2.47567,-1.10289 -2.90939,-1.99516 -7.98729,-16.43222 9.79748,9.44725 -2.90939,-7.98061"
       id="path3011"
       inkscape:connector-curvature="0"
       inkscape:export-filename="/Users/christian/Documents/Informatik/Autorennen/autorennen/img/loading_06.png"
       inkscape:export-xdpi="72.120003"
       inkscape:export-ydpi="72.120003" />
    <path
       style="fill:none;stroke:#000000;stroke-width:1.2310586px;stroke-linecap:butt;stroke-linejoin:miter;stroke-opacity:1"
       d="m 622.15218,528.46279 c -3.0942,1.98548 -6.18841,3.97097 -9.28261,5.95645 -1.85652,1.98549 -3.43309,4.32439 -5.56957,5.95644 -2.25203,1.72035 -5.3,2.07617 -7.42608,3.97097 -3.89316,3.46965 -5.99128,11.47949 -11.13914,15.88386 -1.74233,1.49067 -3.82725,2.48027 -5.56958,3.97096 -1.36679,1.16939 -2.31276,2.8478 -3.71304,3.97096 -2.88675,2.31545 -6.39587,3.641 -9.28262,5.95644 -2.10042,1.68474 -3.46915,4.27172 -5.56956,5.95646 -1.10702,0.88793 -2.73457,0.93903 -3.71305,1.98548 -0.97847,1.04644 -0.87805,2.92452 -1.85652,3.97096 -0.97848,1.04644 -2.47537,1.32366 -3.71305,1.98548 -0.61884,1.32365 -0.87804,2.92452 -1.85652,3.97097 -2.47536,2.6473 -1.78145,-4.21185 -3.71305,1.98548 -0.39138,1.25572 0.55351,2.78706 0,3.97096 -0.78278,1.67431 -2.61961,2.50924 -3.71304,3.97097 -1.39386,1.86334 -2.31919,4.09309 -3.71305,5.95644 -1.09343,1.46173 -2.61961,2.50923 -3.71304,3.97097 -1.39386,1.86334 -2.1353,4.26911 -3.71305,5.95644 -0.97848,1.04644 -2.73457,0.93904 -3.71305,1.98548 -0.87517,0.93597 0.68655,2.86962 0,3.97097 -1.94183,3.11508 -5.32567,4.94683 -7.42609,7.94192 -0.83026,1.18392 -0.87804,2.92452 -1.85652,3.97097 -1.57774,1.68734 -3.78456,2.53921 -5.56956,3.97096 -1.40028,1.12316 -2.74213,2.41342 -3.71305,3.97096 -0.76758,1.23134 -0.87805,2.92453 -1.85653,3.97097 -0.43758,0.46798 -1.57977,-0.59196 -1.85652,0 -0.55351,1.18391 0.55351,2.78705 0,3.97096 -1.11392,2.38259 -4.45565,3.57387 -5.56957,5.95645 -0.27676,0.59195 0.43758,1.51749 0,1.98549 -0.97848,1.04643 -2.73457,0.93903 -3.71305,1.98547 -0.43758,0.46799 0.19571,1.35761 0,1.98548 -0.43758,1.40395 -1.08894,2.73963 -1.85652,3.97097 -4.51288,7.23953 0.79983,-3.26856 -3.71304,3.97097 -0.76758,1.23134 -1.08895,2.73961 -1.85653,3.97095 -0.48546,0.77878 -1.46513,1.14834 -1.85652,1.98549 -0.27675,0.59195 0.27676,1.39353 0,1.98548 -0.39138,0.83715 -1.37107,1.20671 -1.85653,1.98549 -0.53687,0.86126 -5.39344,9.17396 -5.56956,9.9274 -0.45027,1.9262 0.83026,4.18057 0,5.95644 -0.39139,0.83715 -1.57977,1.09755 -1.85652,1.98549 -0.39139,1.25573 0.39139,2.71523 0,3.97097 -0.27676,0.88793 -1.46513,1.14832 -1.85653,1.98548 -2.73169,5.84289 4.30079,-2.61405 -1.85652,3.97096"
       id="path3013"
       inkscape:connector-curvature="0"
       inkscape:export-filename="/Users/christian/Documents/Informatik/Autorennen/autorennen/img/loading_11.png"
       inkscape:export-xdpi="72.120003"
       inkscape:export-ydpi="72.120003" />
    <path
       style="fill:none;stroke:#000000;stroke-width:1px;stroke-linecap:butt;stroke-linejoin:miter;stroke-opacity:1"
       d="m 358.70069,399.42991 c 16.11554,0 32.23107,0 48.34661,0 18.71482,0 37.42964,0 56.14446,0 6.23827,0 12.47654,0 18.71482,0 3.17275,0 7.74012,0.63537 10.91697,0 3.13184,0.35789 5.08192,-2.44016 7.79784,-3.11914 2.01734,-0.50433 4.22094,0.50434 6.23828,0 1.12772,-0.28193 1.99141,-1.27763 3.11913,-1.55957 3.00203,-0.7505 12.00104,0 15.59569,0 16.63539,0 33.27078,0 49.90618,0 2.05303,0 12.93837,0.54888 14.03611,0 0.65757,-0.32878 0.902,-1.23078 1.55957,-1.55956 1.49552,-0.74777 7.2932,0 9.35741,0 1.55957,0 3.11914,0 4.6787,0 1.03972,0 3.11914,-1.03972 3.11914,0 0,1.03971 -2.07942,0 -3.11914,0"
       id="path3015"
       inkscape:connector-curvature="0"
       transform="translate(0,308.2677)"
       inkscape:export-filename="/Users/christian/Documents/Informatik/Autorennen/autorennen/img/loading_12.png"
       inkscape:export-xdpi="72.120003"
       inkscape:export-ydpi="72.120003" />
    <rect
       style="opacity:0.12916667000000001;fill:none;fill-opacity:1;fill-rule:nonzero;stroke:none;stroke-width:1.71738397999999992;stroke-linecap:round;stroke-linejoin:round;stroke-miterlimit:4;stroke-opacity:1;stroke-dasharray:none"
       id="rect3017"
       width="998.28259"
       height="598.28259"
       x="37.360546"
       y="348.29944"
       inkscape:export-filename="/Users/christian/Documents/Informatik/Autorennen/autorennen/img/loading_06.png"
       inkscape:export-xdpi="72.120003"
       inkscape:export-ydpi="72.120003" />
  </g>
</svg>
